<?xml version="1.0" encoding="utf-8" standalone="no"?>
<!DOCTYPE svg PUBLIC "-//W3C//DTD SVG 1.1//EN"
  "http://www.w3.org/Graphics/SVG/1.1/DTD/svg11.dtd">
<!-- Created with matplotlib (https://matplotlib.org/) -->
<svg height="213.84pt" version="1.1" viewBox="0 0 576 213.84" width="576pt" xmlns="http://www.w3.org/2000/svg" xmlns:xlink="http://www.w3.org/1999/xlink">
 <defs>
  <style type="text/css">
*{stroke-linecap:butt;stroke-linejoin:round;}
  </style>
 </defs>
 <g id="figure_1">
  <g id="patch_1">
   <path d="M 0 213.84 
L 576 213.84 
L 576 0 
L 0 0 
z
" style="fill:#ffffff;"/>
  </g>
  <g id="axes_1">
   <g id="patch_2">
    <path d="M 69.445987 94.868015 
L 558.855 94.868015 
L 558.855 10.8 
L 69.445987 10.8 
z
" style="fill:#ffffff;"/>
   </g>
   <g id="matplotlib.axis_1">
    <g id="xtick_1">
     <g id="line2d_1">
      <path clip-path="url(#p69195786e6)" d="M 69.445987 94.868015 
L 69.445987 10.8 
" style="fill:none;stroke:#cccccc;stroke-linecap:square;stroke-width:0.8;"/>
     </g>
     <g id="line2d_2">
      <defs>
       <path d="M 0 0 
L 0 -3.5 
" id="m854eedb9f4" style="stroke:#000000;stroke-width:0.8;"/>
      </defs>
      <g>
       <use style="stroke:#000000;stroke-width:0.8;" x="69.445987" xlink:href="#m854eedb9f4" y="94.868015"/>
      </g>
     </g>
    </g>
    <g id="xtick_2">
     <g id="line2d_3">
      <path clip-path="url(#p69195786e6)" d="M 151.014156 94.868015 
L 151.014156 10.8 
" style="fill:none;stroke:#cccccc;stroke-linecap:square;stroke-width:0.8;"/>
     </g>
     <g id="line2d_4">
      <g>
       <use style="stroke:#000000;stroke-width:0.8;" x="151.014156" xlink:href="#m854eedb9f4" y="94.868015"/>
      </g>
     </g>
    </g>
    <g id="xtick_3">
     <g id="line2d_5">
      <path clip-path="url(#p69195786e6)" d="M 232.582325 94.868015 
L 232.582325 10.8 
" style="fill:none;stroke:#cccccc;stroke-linecap:square;stroke-width:0.8;"/>
     </g>
     <g id="line2d_6">
      <g>
       <use style="stroke:#000000;stroke-width:0.8;" x="232.582325" xlink:href="#m854eedb9f4" y="94.868015"/>
      </g>
     </g>
    </g>
    <g id="xtick_4">
     <g id="line2d_7">
      <path clip-path="url(#p69195786e6)" d="M 314.150494 94.868015 
L 314.150494 10.8 
" style="fill:none;stroke:#cccccc;stroke-linecap:square;stroke-width:0.8;"/>
     </g>
     <g id="line2d_8">
      <g>
       <use style="stroke:#000000;stroke-width:0.8;" x="314.150494" xlink:href="#m854eedb9f4" y="94.868015"/>
      </g>
     </g>
    </g>
    <g id="xtick_5">
     <g id="line2d_9">
      <path clip-path="url(#p69195786e6)" d="M 395.718662 94.868015 
L 395.718662 10.8 
" style="fill:none;stroke:#cccccc;stroke-linecap:square;stroke-width:0.8;"/>
     </g>
     <g id="line2d_10">
      <g>
       <use style="stroke:#000000;stroke-width:0.8;" x="395.718662" xlink:href="#m854eedb9f4" y="94.868015"/>
      </g>
     </g>
    </g>
    <g id="xtick_6">
     <g id="line2d_11">
      <path clip-path="url(#p69195786e6)" d="M 477.286831 94.868015 
L 477.286831 10.8 
" style="fill:none;stroke:#cccccc;stroke-linecap:square;stroke-width:0.8;"/>
     </g>
     <g id="line2d_12">
      <g>
       <use style="stroke:#000000;stroke-width:0.8;" x="477.286831" xlink:href="#m854eedb9f4" y="94.868015"/>
      </g>
     </g>
    </g>
    <g id="xtick_7">
     <g id="line2d_13">
      <path clip-path="url(#p69195786e6)" d="M 558.855 94.868015 
L 558.855 10.8 
" style="fill:none;stroke:#cccccc;stroke-linecap:square;stroke-width:0.8;"/>
     </g>
     <g id="line2d_14">
      <g>
       <use style="stroke:#000000;stroke-width:0.8;" x="558.855" xlink:href="#m854eedb9f4" y="94.868015"/>
      </g>
     </g>
    </g>
   </g>
   <g id="matplotlib.axis_2">
    <g id="ytick_1">
     <g id="line2d_15">
      <path clip-path="url(#p69195786e6)" d="M 69.445987 91.36208 
L 558.855 91.36208 
" style="fill:none;stroke:#cccccc;stroke-linecap:square;stroke-width:0.8;"/>
     </g>
     <g id="line2d_16">
      <defs>
       <path d="M 0 0 
L 3.5 0 
" id="md447882493" style="stroke:#000000;stroke-width:0.8;"/>
      </defs>
      <g>
       <use style="stroke:#000000;stroke-width:0.8;" x="69.445987" xlink:href="#md447882493" y="91.36208"/>
      </g>
     </g>
     <g id="text_1">
      <!-- 0.00 -->
      <defs>
       <path d="M 31.78125 66.40625 
Q 24.171875 66.40625 20.328125 58.90625 
Q 16.5 51.421875 16.5 36.375 
Q 16.5 21.390625 20.328125 13.890625 
Q 24.171875 6.390625 31.78125 6.390625 
Q 39.453125 6.390625 43.28125 13.890625 
Q 47.125 21.390625 47.125 36.375 
Q 47.125 51.421875 43.28125 58.90625 
Q 39.453125 66.40625 31.78125 66.40625 
z
M 31.78125 74.21875 
Q 44.046875 74.21875 50.515625 64.515625 
Q 56.984375 54.828125 56.984375 36.375 
Q 56.984375 17.96875 50.515625 8.265625 
Q 44.046875 -1.421875 31.78125 -1.421875 
Q 19.53125 -1.421875 13.0625 8.265625 
Q 6.59375 17.96875 6.59375 36.375 
Q 6.59375 54.828125 13.0625 64.515625 
Q 19.53125 74.21875 31.78125 74.21875 
z
" id="DejaVuSans-48"/>
       <path d="M 10.6875 12.40625 
L 21 12.40625 
L 21 0 
L 10.6875 0 
z
" id="DejaVuSans-46"/>
      </defs>
      <g transform="translate(48.133487 94.401455)scale(0.08 -0.08)">
       <use xlink:href="#DejaVuSans-48"/>
       <use x="63.623047" xlink:href="#DejaVuSans-46"/>
       <use x="95.410156" xlink:href="#DejaVuSans-48"/>
       <use x="159.033203" xlink:href="#DejaVuSans-48"/>
      </g>
     </g>
    </g>
    <g id="ytick_2">
     <g id="line2d_17">
      <path clip-path="url(#p69195786e6)" d="M 69.445987 72.176878 
L 558.855 72.176878 
" style="fill:none;stroke:#cccccc;stroke-linecap:square;stroke-width:0.8;"/>
     </g>
     <g id="line2d_18">
      <g>
       <use style="stroke:#000000;stroke-width:0.8;" x="69.445987" xlink:href="#md447882493" y="72.176878"/>
      </g>
     </g>
     <g id="text_2">
      <!-- 0.25 -->
      <defs>
       <path d="M 19.1875 8.296875 
L 53.609375 8.296875 
L 53.609375 0 
L 7.328125 0 
L 7.328125 8.296875 
Q 12.9375 14.109375 22.625 23.890625 
Q 32.328125 33.6875 34.8125 36.53125 
Q 39.546875 41.84375 41.421875 45.53125 
Q 43.3125 49.21875 43.3125 52.78125 
Q 43.3125 58.59375 39.234375 62.25 
Q 35.15625 65.921875 28.609375 65.921875 
Q 23.96875 65.921875 18.8125 64.3125 
Q 13.671875 62.703125 7.8125 59.421875 
L 7.8125 69.390625 
Q 13.765625 71.78125 18.9375 73 
Q 24.125 74.21875 28.421875 74.21875 
Q 39.75 74.21875 46.484375 68.546875 
Q 53.21875 62.890625 53.21875 53.421875 
Q 53.21875 48.921875 51.53125 44.890625 
Q 49.859375 40.875 45.40625 35.40625 
Q 44.1875 33.984375 37.640625 27.21875 
Q 31.109375 20.453125 19.1875 8.296875 
z
" id="DejaVuSans-50"/>
       <path d="M 10.796875 72.90625 
L 49.515625 72.90625 
L 49.515625 64.59375 
L 19.828125 64.59375 
L 19.828125 46.734375 
Q 21.96875 47.46875 24.109375 47.828125 
Q 26.265625 48.1875 28.421875 48.1875 
Q 40.625 48.1875 47.75 41.5 
Q 54.890625 34.8125 54.890625 23.390625 
Q 54.890625 11.625 47.5625 5.09375 
Q 40.234375 -1.421875 26.90625 -1.421875 
Q 22.3125 -1.421875 17.546875 -0.640625 
Q 12.796875 0.140625 7.71875 1.703125 
L 7.71875 11.625 
Q 12.109375 9.234375 16.796875 8.0625 
Q 21.484375 6.890625 26.703125 6.890625 
Q 35.15625 6.890625 40.078125 11.328125 
Q 45.015625 15.765625 45.015625 23.390625 
Q 45.015625 31 40.078125 35.4375 
Q 35.15625 39.890625 26.703125 39.890625 
Q 22.75 39.890625 18.8125 39.015625 
Q 14.890625 38.140625 10.796875 36.28125 
z
" id="DejaVuSans-53"/>
      </defs>
      <g transform="translate(48.133487 75.216253)scale(0.08 -0.08)">
       <use xlink:href="#DejaVuSans-48"/>
       <use x="63.623047" xlink:href="#DejaVuSans-46"/>
       <use x="95.410156" xlink:href="#DejaVuSans-50"/>
       <use x="159.033203" xlink:href="#DejaVuSans-53"/>
      </g>
     </g>
    </g>
    <g id="ytick_3">
     <g id="line2d_19">
      <path clip-path="url(#p69195786e6)" d="M 69.445987 52.991677 
L 558.855 52.991677 
" style="fill:none;stroke:#cccccc;stroke-linecap:square;stroke-width:0.8;"/>
     </g>
     <g id="line2d_20">
      <g>
       <use style="stroke:#000000;stroke-width:0.8;" x="69.445987" xlink:href="#md447882493" y="52.991677"/>
      </g>
     </g>
     <g id="text_3">
      <!-- 0.50 -->
      <g transform="translate(48.133487 56.031052)scale(0.08 -0.08)">
       <use xlink:href="#DejaVuSans-48"/>
       <use x="63.623047" xlink:href="#DejaVuSans-46"/>
       <use x="95.410156" xlink:href="#DejaVuSans-53"/>
       <use x="159.033203" xlink:href="#DejaVuSans-48"/>
      </g>
     </g>
    </g>
    <g id="ytick_4">
     <g id="line2d_21">
      <path clip-path="url(#p69195786e6)" d="M 69.445987 33.806475 
L 558.855 33.806475 
" style="fill:none;stroke:#cccccc;stroke-linecap:square;stroke-width:0.8;"/>
     </g>
     <g id="line2d_22">
      <g>
       <use style="stroke:#000000;stroke-width:0.8;" x="69.445987" xlink:href="#md447882493" y="33.806475"/>
      </g>
     </g>
     <g id="text_4">
      <!-- 0.75 -->
      <defs>
       <path d="M 8.203125 72.90625 
L 55.078125 72.90625 
L 55.078125 68.703125 
L 28.609375 0 
L 18.3125 0 
L 43.21875 64.59375 
L 8.203125 64.59375 
z
" id="DejaVuSans-55"/>
      </defs>
      <g transform="translate(48.133487 36.84585)scale(0.08 -0.08)">
       <use xlink:href="#DejaVuSans-48"/>
       <use x="63.623047" xlink:href="#DejaVuSans-46"/>
       <use x="95.410156" xlink:href="#DejaVuSans-55"/>
       <use x="159.033203" xlink:href="#DejaVuSans-53"/>
      </g>
     </g>
    </g>
    <g id="ytick_5">
     <g id="line2d_23">
      <path clip-path="url(#p69195786e6)" d="M 69.445987 14.621273 
L 558.855 14.621273 
" style="fill:none;stroke:#cccccc;stroke-linecap:square;stroke-width:0.8;"/>
     </g>
     <g id="line2d_24">
      <g>
       <use style="stroke:#000000;stroke-width:0.8;" x="69.445987" xlink:href="#md447882493" y="14.621273"/>
      </g>
     </g>
     <g id="text_5">
      <!-- 1.00 -->
      <defs>
       <path d="M 12.40625 8.296875 
L 28.515625 8.296875 
L 28.515625 63.921875 
L 10.984375 60.40625 
L 10.984375 69.390625 
L 28.421875 72.90625 
L 38.28125 72.90625 
L 38.28125 8.296875 
L 54.390625 8.296875 
L 54.390625 0 
L 12.40625 0 
z
" id="DejaVuSans-49"/>
      </defs>
      <g transform="translate(48.133487 17.660648)scale(0.08 -0.08)">
       <use xlink:href="#DejaVuSans-49"/>
       <use x="63.623047" xlink:href="#DejaVuSans-46"/>
       <use x="95.410156" xlink:href="#DejaVuSans-48"/>
       <use x="159.033203" xlink:href="#DejaVuSans-48"/>
      </g>
     </g>
    </g>
    <g id="text_6">
     <!-- h -->
     <defs>
      <path d="M 54.890625 33.015625 
L 54.890625 0 
L 45.90625 0 
L 45.90625 32.71875 
Q 45.90625 40.484375 42.875 44.328125 
Q 39.84375 48.1875 33.796875 48.1875 
Q 26.515625 48.1875 22.3125 43.546875 
Q 18.109375 38.921875 18.109375 30.90625 
L 18.109375 0 
L 9.078125 0 
L 9.078125 75.984375 
L 18.109375 75.984375 
L 18.109375 46.1875 
Q 21.34375 51.125 25.703125 53.5625 
Q 30.078125 56 35.796875 56 
Q 45.21875 56 50.046875 50.171875 
Q 54.890625 44.34375 54.890625 33.015625 
z
" id="DejaVuSans-104"/>
     </defs>
     <g transform="translate(10.716906 51.170258)scale(0.08 -0.08)">
      <use xlink:href="#DejaVuSans-104"/>
     </g>
    </g>
   </g>
   <g id="patch_3">
    <path d="M 69.445987 94.868015 
L 69.445987 10.8 
" style="fill:none;stroke:#000000;stroke-linecap:square;stroke-linejoin:miter;stroke-width:0.5;"/>
   </g>
   <g id="patch_4">
    <path d="M 558.855 94.868015 
L 558.855 10.8 
" style="fill:none;stroke:#000000;stroke-linecap:square;stroke-linejoin:miter;stroke-width:0.5;"/>
   </g>
   <g id="patch_5">
    <path d="M 69.445987 94.868015 
L 558.855 94.868015 
" style="fill:none;stroke:#000000;stroke-linecap:square;stroke-linejoin:miter;stroke-width:0.5;"/>
   </g>
   <g id="patch_6">
    <path d="M 69.445987 10.8 
L 558.855 10.8 
" style="fill:none;stroke:#000000;stroke-linecap:square;stroke-linejoin:miter;stroke-width:0.5;"/>
   </g>
   <g id="PathCollection_1">
    <defs>
     <path d="M 0 1.118034 
C 0.296506 1.118034 0.580908 1.000231 0.790569 0.790569 
C 1.000231 0.580908 1.118034 0.296506 1.118034 0 
C 1.118034 -0.296506 1.000231 -0.580908 0.790569 -0.790569 
C 0.580908 -1.000231 0.296506 -1.118034 0 -1.118034 
C -0.296506 -1.118034 -0.580908 -1.000231 -0.790569 -0.790569 
C -1.000231 -0.580908 -1.118034 -0.296506 -1.118034 0 
C -1.118034 0.296506 -1.000231 0.580908 -0.790569 0.790569 
C -0.580908 1.000231 -0.296506 1.118034 0 1.118034 
z
" id="mfc5f031e35" style="stroke:#0000ff;"/>
    </defs>
    <g clip-path="url(#p69195786e6)">
     <use style="fill:#0000ff;stroke:#0000ff;" x="69.445987" xlink:href="#mfc5f031e35" y="14.621273"/>
     <use style="fill:#0000ff;stroke:#0000ff;" x="85.759621" xlink:href="#mfc5f031e35" y="18.008996"/>
     <use style="fill:#0000ff;stroke:#0000ff;" x="102.073255" xlink:href="#mfc5f031e35" y="28.924992"/>
     <use style="fill:#0000ff;stroke:#0000ff;" x="118.386888" xlink:href="#mfc5f031e35" y="47.369261"/>
     <use style="fill:#0000ff;stroke:#0000ff;" x="134.700522" xlink:href="#mfc5f031e35" y="73.341804"/>
     <use style="fill:#0000ff;stroke:#0000ff;" x="151.014156" xlink:href="#mfc5f031e35" y="82.117345"/>
     <use style="fill:#0000ff;stroke:#0000ff;" x="167.32779" xlink:href="#mfc5f031e35" y="64.275338"/>
     <use style="fill:#0000ff;stroke:#0000ff;" x="183.641424" xlink:href="#mfc5f031e35" y="53.961604"/>
     <use style="fill:#0000ff;stroke:#0000ff;" x="199.955057" xlink:href="#mfc5f031e35" y="51.176143"/>
     <use style="fill:#0000ff;stroke:#0000ff;" x="216.268691" xlink:href="#mfc5f031e35" y="55.918955"/>
     <use style="fill:#0000ff;stroke:#0000ff;" x="232.582325" xlink:href="#mfc5f031e35" y="68.19004"/>
     <use style="fill:#0000ff;stroke:#0000ff;" x="248.895959" xlink:href="#mfc5f031e35" y="87.989413"/>
     <use style="fill:#0000ff;stroke:#0000ff;" x="265.209592" xlink:href="#mfc5f031e35" y="79.220456"/>
     <use style="fill:#0000ff;stroke:#0000ff;" x="281.523226" xlink:href="#mfc5f031e35" y="70.81895"/>
     <use style="fill:#0000ff;stroke:#0000ff;" x="297.83686" xlink:href="#mfc5f031e35" y="69.945639"/>
     <use style="fill:#0000ff;stroke:#0000ff;" x="314.150494" xlink:href="#mfc5f031e35" y="76.600679"/>
     <use style="fill:#0000ff;stroke:#0000ff;" x="330.464127" xlink:href="#mfc5f031e35" y="90.783908"/>
     <use style="fill:#0000ff;stroke:#0000ff;" x="346.777761" xlink:href="#mfc5f031e35" y="82.053957"/>
     <use style="fill:#0000ff;stroke:#0000ff;" x="363.091395" xlink:href="#mfc5f031e35" y="78.863458"/>
     <use style="fill:#0000ff;stroke:#0000ff;" x="379.405029" xlink:href="#mfc5f031e35" y="83.201309"/>
     <use style="fill:#0000ff;stroke:#0000ff;" x="395.718662" xlink:href="#mfc5f031e35" y="89.407231"/>
     <use style="fill:#0000ff;stroke:#0000ff;" x="412.032296" xlink:href="#mfc5f031e35" y="84.149933"/>
     <use style="fill:#0000ff;stroke:#0000ff;" x="428.34593" xlink:href="#mfc5f031e35" y="86.420916"/>
     <use style="fill:#0000ff;stroke:#0000ff;" x="444.659564" xlink:href="#mfc5f031e35" y="88.753798"/>
     <use style="fill:#0000ff;stroke:#0000ff;" x="460.973197" xlink:href="#mfc5f031e35" y="87.502884"/>
     <use style="fill:#0000ff;stroke:#0000ff;" x="477.286831" xlink:href="#mfc5f031e35" y="90.189649"/>
     <use style="fill:#0000ff;stroke:#0000ff;" x="493.600465" xlink:href="#mfc5f031e35" y="88.844444"/>
     <use style="fill:#0000ff;stroke:#0000ff;" x="509.914099" xlink:href="#mfc5f031e35" y="89.766331"/>
     <use style="fill:#0000ff;stroke:#0000ff;" x="526.227732" xlink:href="#mfc5f031e35" y="91.046742"/>
     <use style="fill:#0000ff;stroke:#0000ff;" x="542.541366" xlink:href="#mfc5f031e35" y="90.182773"/>
     <use style="fill:#0000ff;stroke:#0000ff;" x="558.855" xlink:href="#mfc5f031e35" y="90.19598"/>
    </g>
   </g>
   <g id="line2d_25">
    <path clip-path="url(#p69195786e6)" d="M 69.445987 14.621273 
L 85.759621 18.008996 
L 102.073255 28.924992 
L 118.386888 47.369261 
L 134.700522 73.341804 
L 151.014156 82.117345 
L 167.32779 64.275338 
L 183.641424 53.961604 
L 199.955057 51.176143 
L 216.268691 55.918955 
L 232.582325 68.19004 
L 248.895959 87.989413 
L 265.209592 79.220456 
L 281.523226 70.81895 
L 297.83686 69.945639 
L 314.150494 76.600679 
L 330.464127 90.783908 
L 346.777761 82.053957 
L 363.091395 78.863458 
L 379.405029 83.201309 
L 395.718662 89.407231 
L 412.032296 84.149933 
L 428.34593 86.420916 
L 444.659564 88.753798 
L 460.973197 87.502884 
L 477.286831 90.189649 
L 493.600465 88.844444 
L 509.914099 89.766331 
L 526.227732 91.046742 
L 542.541366 90.182773 
L 558.855 90.19598 
" style="fill:none;stroke:#0000ff;stroke-linecap:square;stroke-width:0.9;"/>
   </g>
  </g>
  <g id="axes_2">
   <g id="patch_7">
    <path d="M 69.445987 191.26 
L 558.855 191.26 
L 558.855 107.191985 
L 69.445987 107.191985 
z
" style="fill:#ffffff;"/>
   </g>
   <g id="matplotlib.axis_3">
    <g id="xtick_8">
     <g id="line2d_26">
      <path clip-path="url(#pef152558e1)" d="M 69.445987 191.26 
L 69.445987 107.191985 
" style="fill:none;stroke:#cccccc;stroke-linecap:square;stroke-width:0.8;"/>
     </g>
     <g id="line2d_27">
      <g>
       <use style="stroke:#000000;stroke-width:0.8;" x="69.445987" xlink:href="#m854eedb9f4" y="191.26"/>
      </g>
     </g>
     <g id="text_7">
      <!-- 0.0 -->
      <g transform="translate(63.084737 200.83875)scale(0.08 -0.08)">
       <use xlink:href="#DejaVuSans-48"/>
       <use x="63.623047" xlink:href="#DejaVuSans-46"/>
       <use x="95.410156" xlink:href="#DejaVuSans-48"/>
      </g>
     </g>
    </g>
    <g id="xtick_9">
     <g id="line2d_28">
      <path clip-path="url(#pef152558e1)" d="M 151.014156 191.26 
L 151.014156 107.191985 
" style="fill:none;stroke:#cccccc;stroke-linecap:square;stroke-width:0.8;"/>
     </g>
     <g id="line2d_29">
      <g>
       <use style="stroke:#000000;stroke-width:0.8;" x="151.014156" xlink:href="#m854eedb9f4" y="191.26"/>
      </g>
     </g>
     <g id="text_8">
      <!-- 0.5 -->
      <g transform="translate(144.652906 200.83875)scale(0.08 -0.08)">
       <use xlink:href="#DejaVuSans-48"/>
       <use x="63.623047" xlink:href="#DejaVuSans-46"/>
       <use x="95.410156" xlink:href="#DejaVuSans-53"/>
      </g>
     </g>
    </g>
    <g id="xtick_10">
     <g id="line2d_30">
      <path clip-path="url(#pef152558e1)" d="M 232.582325 191.26 
L 232.582325 107.191985 
" style="fill:none;stroke:#cccccc;stroke-linecap:square;stroke-width:0.8;"/>
     </g>
     <g id="line2d_31">
      <g>
       <use style="stroke:#000000;stroke-width:0.8;" x="232.582325" xlink:href="#m854eedb9f4" y="191.26"/>
      </g>
     </g>
     <g id="text_9">
      <!-- 1.0 -->
      <g transform="translate(226.221075 200.83875)scale(0.08 -0.08)">
       <use xlink:href="#DejaVuSans-49"/>
       <use x="63.623047" xlink:href="#DejaVuSans-46"/>
       <use x="95.410156" xlink:href="#DejaVuSans-48"/>
      </g>
     </g>
    </g>
    <g id="xtick_11">
     <g id="line2d_32">
      <path clip-path="url(#pef152558e1)" d="M 314.150494 191.26 
L 314.150494 107.191985 
" style="fill:none;stroke:#cccccc;stroke-linecap:square;stroke-width:0.8;"/>
     </g>
     <g id="line2d_33">
      <g>
       <use style="stroke:#000000;stroke-width:0.8;" x="314.150494" xlink:href="#m854eedb9f4" y="191.26"/>
      </g>
     </g>
     <g id="text_10">
      <!-- 1.5 -->
      <g transform="translate(307.789244 200.83875)scale(0.08 -0.08)">
       <use xlink:href="#DejaVuSans-49"/>
       <use x="63.623047" xlink:href="#DejaVuSans-46"/>
       <use x="95.410156" xlink:href="#DejaVuSans-53"/>
      </g>
     </g>
    </g>
    <g id="xtick_12">
     <g id="line2d_34">
      <path clip-path="url(#pef152558e1)" d="M 395.718662 191.26 
L 395.718662 107.191985 
" style="fill:none;stroke:#cccccc;stroke-linecap:square;stroke-width:0.8;"/>
     </g>
     <g id="line2d_35">
      <g>
       <use style="stroke:#000000;stroke-width:0.8;" x="395.718662" xlink:href="#m854eedb9f4" y="191.26"/>
      </g>
     </g>
     <g id="text_11">
      <!-- 2.0 -->
      <g transform="translate(389.357412 200.83875)scale(0.08 -0.08)">
       <use xlink:href="#DejaVuSans-50"/>
       <use x="63.623047" xlink:href="#DejaVuSans-46"/>
       <use x="95.410156" xlink:href="#DejaVuSans-48"/>
      </g>
     </g>
    </g>
    <g id="xtick_13">
     <g id="line2d_36">
      <path clip-path="url(#pef152558e1)" d="M 477.286831 191.26 
L 477.286831 107.191985 
" style="fill:none;stroke:#cccccc;stroke-linecap:square;stroke-width:0.8;"/>
     </g>
     <g id="line2d_37">
      <g>
       <use style="stroke:#000000;stroke-width:0.8;" x="477.286831" xlink:href="#m854eedb9f4" y="191.26"/>
      </g>
     </g>
     <g id="text_12">
      <!-- 2.5 -->
      <g transform="translate(470.925581 200.83875)scale(0.08 -0.08)">
       <use xlink:href="#DejaVuSans-50"/>
       <use x="63.623047" xlink:href="#DejaVuSans-46"/>
       <use x="95.410156" xlink:href="#DejaVuSans-53"/>
      </g>
     </g>
    </g>
    <g id="xtick_14">
     <g id="line2d_38">
      <path clip-path="url(#pef152558e1)" d="M 558.855 191.26 
L 558.855 107.191985 
" style="fill:none;stroke:#cccccc;stroke-linecap:square;stroke-width:0.8;"/>
     </g>
     <g id="line2d_39">
      <g>
       <use style="stroke:#000000;stroke-width:0.8;" x="558.855" xlink:href="#m854eedb9f4" y="191.26"/>
      </g>
     </g>
     <g id="text_13">
      <!-- 3.0 -->
      <defs>
       <path d="M 40.578125 39.3125 
Q 47.65625 37.796875 51.625 33 
Q 55.609375 28.21875 55.609375 21.1875 
Q 55.609375 10.40625 48.1875 4.484375 
Q 40.765625 -1.421875 27.09375 -1.421875 
Q 22.515625 -1.421875 17.65625 -0.515625 
Q 12.796875 0.390625 7.625 2.203125 
L 7.625 11.71875 
Q 11.71875 9.328125 16.59375 8.109375 
Q 21.484375 6.890625 26.8125 6.890625 
Q 36.078125 6.890625 40.9375 10.546875 
Q 45.796875 14.203125 45.796875 21.1875 
Q 45.796875 27.640625 41.28125 31.265625 
Q 36.765625 34.90625 28.71875 34.90625 
L 20.21875 34.90625 
L 20.21875 43.015625 
L 29.109375 43.015625 
Q 36.375 43.015625 40.234375 45.921875 
Q 44.09375 48.828125 44.09375 54.296875 
Q 44.09375 59.90625 40.109375 62.90625 
Q 36.140625 65.921875 28.71875 65.921875 
Q 24.65625 65.921875 20.015625 65.03125 
Q 15.375 64.15625 9.8125 62.3125 
L 9.8125 71.09375 
Q 15.4375 72.65625 20.34375 73.4375 
Q 25.25 74.21875 29.59375 74.21875 
Q 40.828125 74.21875 47.359375 69.109375 
Q 53.90625 64.015625 53.90625 55.328125 
Q 53.90625 49.265625 50.4375 45.09375 
Q 46.96875 40.921875 40.578125 39.3125 
z
" id="DejaVuSans-51"/>
      </defs>
      <g transform="translate(552.49375 200.83875)scale(0.08 -0.08)">
       <use xlink:href="#DejaVuSans-51"/>
       <use x="63.623047" xlink:href="#DejaVuSans-46"/>
       <use x="95.410156" xlink:href="#DejaVuSans-48"/>
      </g>
     </g>
    </g>
   </g>
   <g id="matplotlib.axis_4">
    <g id="ytick_6">
     <g id="line2d_40">
      <path clip-path="url(#pef152558e1)" d="M 69.445987 188.306884 
L 558.855 188.306884 
" style="fill:none;stroke:#cccccc;stroke-linecap:square;stroke-width:0.8;"/>
     </g>
     <g id="line2d_41">
      <g>
       <use style="stroke:#000000;stroke-width:0.8;" x="69.445987" xlink:href="#md447882493" y="188.306884"/>
      </g>
     </g>
     <g id="text_14">
      <!-- −4 -->
      <defs>
       <path d="M 10.59375 35.5 
L 73.1875 35.5 
L 73.1875 27.203125 
L 10.59375 27.203125 
z
" id="DejaVuSans-8722"/>
       <path d="M 37.796875 64.3125 
L 12.890625 25.390625 
L 37.796875 25.390625 
z
M 35.203125 72.90625 
L 47.609375 72.90625 
L 47.609375 25.390625 
L 58.015625 25.390625 
L 58.015625 17.1875 
L 47.609375 17.1875 
L 47.609375 0 
L 37.796875 0 
L 37.796875 17.1875 
L 4.890625 17.1875 
L 4.890625 26.703125 
z
" id="DejaVuSans-52"/>
      </defs>
      <g transform="translate(54.152237 191.346259)scale(0.08 -0.08)">
       <use xlink:href="#DejaVuSans-8722"/>
       <use x="83.789062" xlink:href="#DejaVuSans-52"/>
      </g>
     </g>
    </g>
    <g id="ytick_7">
     <g id="line2d_42">
      <path clip-path="url(#pef152558e1)" d="M 69.445987 165.460644 
L 558.855 165.460644 
" style="fill:none;stroke:#cccccc;stroke-linecap:square;stroke-width:0.8;"/>
     </g>
     <g id="line2d_43">
      <g>
       <use style="stroke:#000000;stroke-width:0.8;" x="69.445987" xlink:href="#md447882493" y="165.460644"/>
      </g>
     </g>
     <g id="text_15">
      <!-- −2 -->
      <g transform="translate(54.152237 168.500019)scale(0.08 -0.08)">
       <use xlink:href="#DejaVuSans-8722"/>
       <use x="83.789062" xlink:href="#DejaVuSans-50"/>
      </g>
     </g>
    </g>
    <g id="ytick_8">
     <g id="line2d_44">
      <path clip-path="url(#pef152558e1)" d="M 69.445987 142.614405 
L 558.855 142.614405 
" style="fill:none;stroke:#cccccc;stroke-linecap:square;stroke-width:0.8;"/>
     </g>
     <g id="line2d_45">
      <g>
       <use style="stroke:#000000;stroke-width:0.8;" x="69.445987" xlink:href="#md447882493" y="142.614405"/>
      </g>
     </g>
     <g id="text_16">
      <!-- 0 -->
      <g transform="translate(60.855987 145.65378)scale(0.08 -0.08)">
       <use xlink:href="#DejaVuSans-48"/>
      </g>
     </g>
    </g>
    <g id="ytick_9">
     <g id="line2d_46">
      <path clip-path="url(#pef152558e1)" d="M 69.445987 119.768166 
L 558.855 119.768166 
" style="fill:none;stroke:#cccccc;stroke-linecap:square;stroke-width:0.8;"/>
     </g>
     <g id="line2d_47">
      <g>
       <use style="stroke:#000000;stroke-width:0.8;" x="69.445987" xlink:href="#md447882493" y="119.768166"/>
      </g>
     </g>
     <g id="text_17">
      <!-- 2 -->
      <g transform="translate(60.855987 122.807541)scale(0.08 -0.08)">
       <use xlink:href="#DejaVuSans-50"/>
      </g>
     </g>
    </g>
    <g id="text_18">
     <!-- v -->
     <defs>
      <path d="M 2.984375 54.6875 
L 12.5 54.6875 
L 29.59375 8.796875 
L 46.6875 54.6875 
L 56.203125 54.6875 
L 35.6875 0 
L 23.484375 0 
z
" id="DejaVuSans-118"/>
     </defs>
     <g transform="translate(10.716906 147.562242)scale(0.08 -0.08)">
      <use xlink:href="#DejaVuSans-118"/>
     </g>
    </g>
   </g>
   <g id="patch_8">
    <path d="M 69.445987 191.26 
L 69.445987 107.191985 
" style="fill:none;stroke:#000000;stroke-linecap:square;stroke-linejoin:miter;stroke-width:0.5;"/>
   </g>
   <g id="patch_9">
    <path d="M 558.855 191.26 
L 558.855 107.191985 
" style="fill:none;stroke:#000000;stroke-linecap:square;stroke-linejoin:miter;stroke-width:0.5;"/>
   </g>
   <g id="patch_10">
    <path d="M 69.445987 191.26 
L 558.855 191.26 
" style="fill:none;stroke:#000000;stroke-linecap:square;stroke-linejoin:miter;stroke-width:0.5;"/>
   </g>
   <g id="patch_11">
    <path d="M 69.445987 107.191985 
L 558.855 107.191985 
" style="fill:none;stroke:#000000;stroke-linecap:square;stroke-linejoin:miter;stroke-width:0.5;"/>
   </g>
   <g id="PathCollection_2">
    <g clip-path="url(#pef152558e1)">
     <use style="fill:#0000ff;stroke:#0000ff;" x="69.445987" xlink:href="#mfc5f031e35" y="142.614405"/>
     <use style="fill:#0000ff;stroke:#0000ff;" x="85.759621" xlink:href="#mfc5f031e35" y="153.820485"/>
     <use style="fill:#0000ff;stroke:#0000ff;" x="102.073255" xlink:href="#mfc5f031e35" y="165.026566"/>
     <use style="fill:#0000ff;stroke:#0000ff;" x="118.386888" xlink:href="#mfc5f031e35" y="176.232646"/>
     <use style="fill:#0000ff;stroke:#0000ff;" x="134.700522" xlink:href="#mfc5f031e35" y="187.438727"/>
     <use style="fill:#0000ff;stroke:#0000ff;" x="151.014156" xlink:href="#mfc5f031e35" y="111.013258"/>
     <use style="fill:#0000ff;stroke:#0000ff;" x="167.32779" xlink:href="#mfc5f031e35" y="122.219339"/>
     <use style="fill:#0000ff;stroke:#0000ff;" x="183.641424" xlink:href="#mfc5f031e35" y="133.425419"/>
     <use style="fill:#0000ff;stroke:#0000ff;" x="199.955057" xlink:href="#mfc5f031e35" y="144.631499"/>
     <use style="fill:#0000ff;stroke:#0000ff;" x="216.268691" xlink:href="#mfc5f031e35" y="155.83758"/>
     <use style="fill:#0000ff;stroke:#0000ff;" x="232.582325" xlink:href="#mfc5f031e35" y="167.04366"/>
     <use style="fill:#0000ff;stroke:#0000ff;" x="248.895959" xlink:href="#mfc5f031e35" y="178.249741"/>
     <use style="fill:#0000ff;stroke:#0000ff;" x="265.209592" xlink:href="#mfc5f031e35" y="125.065637"/>
     <use style="fill:#0000ff;stroke:#0000ff;" x="281.523226" xlink:href="#mfc5f031e35" y="136.271763"/>
     <use style="fill:#0000ff;stroke:#0000ff;" x="297.83686" xlink:href="#mfc5f031e35" y="147.477844"/>
     <use style="fill:#0000ff;stroke:#0000ff;" x="314.150494" xlink:href="#mfc5f031e35" y="158.683879"/>
     <use style="fill:#0000ff;stroke:#0000ff;" x="330.464127" xlink:href="#mfc5f031e35" y="169.889959"/>
     <use style="fill:#0000ff;stroke:#0000ff;" x="346.777761" xlink:href="#mfc5f031e35" y="132.82253"/>
     <use style="fill:#0000ff;stroke:#0000ff;" x="363.091395" xlink:href="#mfc5f031e35" y="144.02861"/>
     <use style="fill:#0000ff;stroke:#0000ff;" x="379.405029" xlink:href="#mfc5f031e35" y="155.234668"/>
     <use style="fill:#0000ff;stroke:#0000ff;" x="395.718662" xlink:href="#mfc5f031e35" y="129.746032"/>
     <use style="fill:#0000ff;stroke:#0000ff;" x="412.032296" xlink:href="#mfc5f031e35" y="140.95209"/>
     <use style="fill:#0000ff;stroke:#0000ff;" x="428.34593" xlink:href="#mfc5f031e35" y="152.15817"/>
     <use style="fill:#0000ff;stroke:#0000ff;" x="444.659564" xlink:href="#mfc5f031e35" y="135.709643"/>
     <use style="fill:#0000ff;stroke:#0000ff;" x="460.973197" xlink:href="#mfc5f031e35" y="146.915724"/>
     <use style="fill:#0000ff;stroke:#0000ff;" x="477.286831" xlink:href="#mfc5f031e35" y="135.569287"/>
     <use style="fill:#0000ff;stroke:#0000ff;" x="493.600465" xlink:href="#mfc5f031e35" y="146.775368"/>
     <use style="fill:#0000ff;stroke:#0000ff;" x="509.914099" xlink:href="#mfc5f031e35" y="139.477605"/>
     <use style="fill:#0000ff;stroke:#0000ff;" x="526.227732" xlink:href="#mfc5f031e35" y="150.683685"/>
     <use style="fill:#0000ff;stroke:#0000ff;" x="542.541366" xlink:href="#mfc5f031e35" y="146.266959"/>
     <use style="fill:#0000ff;stroke:#0000ff;" x="558.855" xlink:href="#mfc5f031e35" y="143.643566"/>
    </g>
   </g>
   <g id="line2d_48">
    <path clip-path="url(#pef152558e1)" d="M 69.445987 142.614405 
L 85.759621 153.820485 
L 102.073255 165.026566 
L 118.386888 176.232646 
L 134.700522 187.438727 
L 151.014156 111.013258 
L 167.32779 122.219339 
L 183.641424 133.425419 
L 199.955057 144.631499 
L 216.268691 155.83758 
L 232.582325 167.04366 
L 248.895959 178.249741 
L 265.209592 125.065637 
L 281.523226 136.271763 
L 297.83686 147.477844 
L 314.150494 158.683879 
L 330.464127 169.889959 
L 346.777761 132.82253 
L 363.091395 144.02861 
L 379.405029 155.234668 
L 395.718662 129.746032 
L 412.032296 140.95209 
L 428.34593 152.15817 
L 444.659564 135.709643 
L 460.973197 146.915724 
L 477.286831 135.569287 
L 493.600465 146.775368 
L 509.914099 139.477605 
L 526.227732 150.683685 
L 542.541366 146.266959 
L 558.855 143.643566 
" style="fill:none;stroke:#0000ff;stroke-linecap:square;stroke-width:0.9;"/>
   </g>
  </g>
 </g>
 <defs>
  <clipPath id="p69195786e6">
   <rect height="84.068015" width="489.409013" x="69.445987" y="10.8"/>
  </clipPath>
  <clipPath id="pef152558e1">
   <rect height="84.068015" width="489.409013" x="69.445987" y="107.191985"/>
  </clipPath>
 </defs>
</svg>
