<?xml version="1.0" encoding="utf-8" standalone="no"?>
<!DOCTYPE svg PUBLIC "-//W3C//DTD SVG 1.1//EN"
  "http://www.w3.org/Graphics/SVG/1.1/DTD/svg11.dtd">
<!-- Created with matplotlib (https://matplotlib.org/) -->
<svg height="213.84pt" version="1.1" viewBox="0 0 576 213.84" width="576pt" xmlns="http://www.w3.org/2000/svg" xmlns:xlink="http://www.w3.org/1999/xlink">
 <defs>
  <style type="text/css">
*{stroke-linecap:butt;stroke-linejoin:round;}
  </style>
 </defs>
 <g id="figure_1">
  <g id="patch_1">
   <path d="M 0 213.84 
L 576 213.84 
L 576 0 
L 0 0 
z
" style="fill:#ffffff;"/>
  </g>
  <g id="axes_1">
   <g id="patch_2">
    <path d="M 70.122806 95.63 
L 565.2 95.63 
L 565.2 10.8 
L 70.122806 10.8 
z
" style="fill:#ffffff;"/>
   </g>
   <g id="matplotlib.axis_1">
    <g id="xtick_1">
     <g id="line2d_1">
      <path clip-path="url(#p18d9b55288)" d="M 70.122806 95.63 
L 70.122806 10.8 
" style="fill:none;stroke:#cccccc;stroke-linecap:square;stroke-width:0.8;"/>
     </g>
     <g id="line2d_2">
      <defs>
       <path d="M 0 0 
L 0 -3.5 
" id="mcb84a81eaa" style="stroke:#000000;stroke-width:0.8;"/>
      </defs>
      <g>
       <use style="stroke:#000000;stroke-width:0.8;" x="70.122806" xlink:href="#mcb84a81eaa" y="95.63"/>
      </g>
     </g>
    </g>
    <g id="xtick_2">
     <g id="line2d_3">
      <path clip-path="url(#p18d9b55288)" d="M 151.549976 95.63 
L 151.549976 10.8 
" style="fill:none;stroke:#cccccc;stroke-linecap:square;stroke-width:0.8;"/>
     </g>
     <g id="line2d_4">
      <g>
       <use style="stroke:#000000;stroke-width:0.8;" x="151.549976" xlink:href="#mcb84a81eaa" y="95.63"/>
      </g>
     </g>
    </g>
    <g id="xtick_3">
     <g id="line2d_5">
      <path clip-path="url(#p18d9b55288)" d="M 232.977146 95.63 
L 232.977146 10.8 
" style="fill:none;stroke:#cccccc;stroke-linecap:square;stroke-width:0.8;"/>
     </g>
     <g id="line2d_6">
      <g>
       <use style="stroke:#000000;stroke-width:0.8;" x="232.977146" xlink:href="#mcb84a81eaa" y="95.63"/>
      </g>
     </g>
    </g>
    <g id="xtick_4">
     <g id="line2d_7">
      <path clip-path="url(#p18d9b55288)" d="M 314.404316 95.63 
L 314.404316 10.8 
" style="fill:none;stroke:#cccccc;stroke-linecap:square;stroke-width:0.8;"/>
     </g>
     <g id="line2d_8">
      <g>
       <use style="stroke:#000000;stroke-width:0.8;" x="314.404316" xlink:href="#mcb84a81eaa" y="95.63"/>
      </g>
     </g>
    </g>
    <g id="xtick_5">
     <g id="line2d_9">
      <path clip-path="url(#p18d9b55288)" d="M 395.831486 95.63 
L 395.831486 10.8 
" style="fill:none;stroke:#cccccc;stroke-linecap:square;stroke-width:0.8;"/>
     </g>
     <g id="line2d_10">
      <g>
       <use style="stroke:#000000;stroke-width:0.8;" x="395.831486" xlink:href="#mcb84a81eaa" y="95.63"/>
      </g>
     </g>
    </g>
    <g id="xtick_6">
     <g id="line2d_11">
      <path clip-path="url(#p18d9b55288)" d="M 477.258656 95.63 
L 477.258656 10.8 
" style="fill:none;stroke:#cccccc;stroke-linecap:square;stroke-width:0.8;"/>
     </g>
     <g id="line2d_12">
      <g>
       <use style="stroke:#000000;stroke-width:0.8;" x="477.258656" xlink:href="#mcb84a81eaa" y="95.63"/>
      </g>
     </g>
    </g>
    <g id="xtick_7">
     <g id="line2d_13">
      <path clip-path="url(#p18d9b55288)" d="M 558.685826 95.63 
L 558.685826 10.8 
" style="fill:none;stroke:#cccccc;stroke-linecap:square;stroke-width:0.8;"/>
     </g>
     <g id="line2d_14">
      <g>
       <use style="stroke:#000000;stroke-width:0.8;" x="558.685826" xlink:href="#mcb84a81eaa" y="95.63"/>
      </g>
     </g>
    </g>
   </g>
   <g id="matplotlib.axis_2">
    <g id="ytick_1">
     <g id="line2d_15">
      <path clip-path="url(#p18d9b55288)" d="M 70.122806 90.304704 
L 565.2 90.304704 
" style="fill:none;stroke:#cccccc;stroke-linecap:square;stroke-width:0.8;"/>
     </g>
     <g id="line2d_16">
      <defs>
       <path d="M 0 0 
L 3.5 0 
" id="m4b1bb9a58c" style="stroke:#000000;stroke-width:0.8;"/>
      </defs>
      <g>
       <use style="stroke:#000000;stroke-width:0.8;" x="70.122806" xlink:href="#m4b1bb9a58c" y="90.304704"/>
      </g>
     </g>
     <g id="text_1">
      <!-- 0.00 -->
      <defs>
       <path d="M 31.78125 66.40625 
Q 24.171875 66.40625 20.328125 58.90625 
Q 16.5 51.421875 16.5 36.375 
Q 16.5 21.390625 20.328125 13.890625 
Q 24.171875 6.390625 31.78125 6.390625 
Q 39.453125 6.390625 43.28125 13.890625 
Q 47.125 21.390625 47.125 36.375 
Q 47.125 51.421875 43.28125 58.90625 
Q 39.453125 66.40625 31.78125 66.40625 
z
M 31.78125 74.21875 
Q 44.046875 74.21875 50.515625 64.515625 
Q 56.984375 54.828125 56.984375 36.375 
Q 56.984375 17.96875 50.515625 8.265625 
Q 44.046875 -1.421875 31.78125 -1.421875 
Q 19.53125 -1.421875 13.0625 8.265625 
Q 6.59375 17.96875 6.59375 36.375 
Q 6.59375 54.828125 13.0625 64.515625 
Q 19.53125 74.21875 31.78125 74.21875 
z
" id="DejaVuSans-48"/>
       <path d="M 10.6875 12.40625 
L 21 12.40625 
L 21 0 
L 10.6875 0 
z
" id="DejaVuSans-46"/>
      </defs>
      <g transform="translate(48.810306 93.344079)scale(0.08 -0.08)">
       <use xlink:href="#DejaVuSans-48"/>
       <use x="63.623047" xlink:href="#DejaVuSans-46"/>
       <use x="95.410156" xlink:href="#DejaVuSans-48"/>
       <use x="159.033203" xlink:href="#DejaVuSans-48"/>
      </g>
     </g>
    </g>
    <g id="ytick_2">
     <g id="line2d_17">
      <path clip-path="url(#p18d9b55288)" d="M 70.122806 71.392505 
L 565.2 71.392505 
" style="fill:none;stroke:#cccccc;stroke-linecap:square;stroke-width:0.8;"/>
     </g>
     <g id="line2d_18">
      <g>
       <use style="stroke:#000000;stroke-width:0.8;" x="70.122806" xlink:href="#m4b1bb9a58c" y="71.392505"/>
      </g>
     </g>
     <g id="text_2">
      <!-- 0.25 -->
      <defs>
       <path d="M 19.1875 8.296875 
L 53.609375 8.296875 
L 53.609375 0 
L 7.328125 0 
L 7.328125 8.296875 
Q 12.9375 14.109375 22.625 23.890625 
Q 32.328125 33.6875 34.8125 36.53125 
Q 39.546875 41.84375 41.421875 45.53125 
Q 43.3125 49.21875 43.3125 52.78125 
Q 43.3125 58.59375 39.234375 62.25 
Q 35.15625 65.921875 28.609375 65.921875 
Q 23.96875 65.921875 18.8125 64.3125 
Q 13.671875 62.703125 7.8125 59.421875 
L 7.8125 69.390625 
Q 13.765625 71.78125 18.9375 73 
Q 24.125 74.21875 28.421875 74.21875 
Q 39.75 74.21875 46.484375 68.546875 
Q 53.21875 62.890625 53.21875 53.421875 
Q 53.21875 48.921875 51.53125 44.890625 
Q 49.859375 40.875 45.40625 35.40625 
Q 44.1875 33.984375 37.640625 27.21875 
Q 31.109375 20.453125 19.1875 8.296875 
z
" id="DejaVuSans-50"/>
       <path d="M 10.796875 72.90625 
L 49.515625 72.90625 
L 49.515625 64.59375 
L 19.828125 64.59375 
L 19.828125 46.734375 
Q 21.96875 47.46875 24.109375 47.828125 
Q 26.265625 48.1875 28.421875 48.1875 
Q 40.625 48.1875 47.75 41.5 
Q 54.890625 34.8125 54.890625 23.390625 
Q 54.890625 11.625 47.5625 5.09375 
Q 40.234375 -1.421875 26.90625 -1.421875 
Q 22.3125 -1.421875 17.546875 -0.640625 
Q 12.796875 0.140625 7.71875 1.703125 
L 7.71875 11.625 
Q 12.109375 9.234375 16.796875 8.0625 
Q 21.484375 6.890625 26.703125 6.890625 
Q 35.15625 6.890625 40.078125 11.328125 
Q 45.015625 15.765625 45.015625 23.390625 
Q 45.015625 31 40.078125 35.4375 
Q 35.15625 39.890625 26.703125 39.890625 
Q 22.75 39.890625 18.8125 39.015625 
Q 14.890625 38.140625 10.796875 36.28125 
z
" id="DejaVuSans-53"/>
      </defs>
      <g transform="translate(48.810306 74.43188)scale(0.08 -0.08)">
       <use xlink:href="#DejaVuSans-48"/>
       <use x="63.623047" xlink:href="#DejaVuSans-46"/>
       <use x="95.410156" xlink:href="#DejaVuSans-50"/>
       <use x="159.033203" xlink:href="#DejaVuSans-53"/>
      </g>
     </g>
    </g>
    <g id="ytick_3">
     <g id="line2d_19">
      <path clip-path="url(#p18d9b55288)" d="M 70.122806 52.480306 
L 565.2 52.480306 
" style="fill:none;stroke:#cccccc;stroke-linecap:square;stroke-width:0.8;"/>
     </g>
     <g id="line2d_20">
      <g>
       <use style="stroke:#000000;stroke-width:0.8;" x="70.122806" xlink:href="#m4b1bb9a58c" y="52.480306"/>
      </g>
     </g>
     <g id="text_3">
      <!-- 0.50 -->
      <g transform="translate(48.810306 55.519681)scale(0.08 -0.08)">
       <use xlink:href="#DejaVuSans-48"/>
       <use x="63.623047" xlink:href="#DejaVuSans-46"/>
       <use x="95.410156" xlink:href="#DejaVuSans-53"/>
       <use x="159.033203" xlink:href="#DejaVuSans-48"/>
      </g>
     </g>
    </g>
    <g id="ytick_4">
     <g id="line2d_21">
      <path clip-path="url(#p18d9b55288)" d="M 70.122806 33.568108 
L 565.2 33.568108 
" style="fill:none;stroke:#cccccc;stroke-linecap:square;stroke-width:0.8;"/>
     </g>
     <g id="line2d_22">
      <g>
       <use style="stroke:#000000;stroke-width:0.8;" x="70.122806" xlink:href="#m4b1bb9a58c" y="33.568108"/>
      </g>
     </g>
     <g id="text_4">
      <!-- 0.75 -->
      <defs>
       <path d="M 8.203125 72.90625 
L 55.078125 72.90625 
L 55.078125 68.703125 
L 28.609375 0 
L 18.3125 0 
L 43.21875 64.59375 
L 8.203125 64.59375 
z
" id="DejaVuSans-55"/>
      </defs>
      <g transform="translate(48.810306 36.607483)scale(0.08 -0.08)">
       <use xlink:href="#DejaVuSans-48"/>
       <use x="63.623047" xlink:href="#DejaVuSans-46"/>
       <use x="95.410156" xlink:href="#DejaVuSans-55"/>
       <use x="159.033203" xlink:href="#DejaVuSans-53"/>
      </g>
     </g>
    </g>
    <g id="ytick_5">
     <g id="line2d_23">
      <path clip-path="url(#p18d9b55288)" d="M 70.122806 14.655909 
L 565.2 14.655909 
" style="fill:none;stroke:#cccccc;stroke-linecap:square;stroke-width:0.8;"/>
     </g>
     <g id="line2d_24">
      <g>
       <use style="stroke:#000000;stroke-width:0.8;" x="70.122806" xlink:href="#m4b1bb9a58c" y="14.655909"/>
      </g>
     </g>
     <g id="text_5">
      <!-- 1.00 -->
      <defs>
       <path d="M 12.40625 8.296875 
L 28.515625 8.296875 
L 28.515625 63.921875 
L 10.984375 60.40625 
L 10.984375 69.390625 
L 28.421875 72.90625 
L 38.28125 72.90625 
L 38.28125 8.296875 
L 54.390625 8.296875 
L 54.390625 0 
L 12.40625 0 
z
" id="DejaVuSans-49"/>
      </defs>
      <g transform="translate(48.810306 17.695284)scale(0.08 -0.08)">
       <use xlink:href="#DejaVuSans-49"/>
       <use x="63.623047" xlink:href="#DejaVuSans-46"/>
       <use x="95.410156" xlink:href="#DejaVuSans-48"/>
       <use x="159.033203" xlink:href="#DejaVuSans-48"/>
      </g>
     </g>
    </g>
    <g id="text_6">
     <!-- h -->
     <defs>
      <path d="M 54.890625 33.015625 
L 54.890625 0 
L 45.90625 0 
L 45.90625 32.71875 
Q 45.90625 40.484375 42.875 44.328125 
Q 39.84375 48.1875 33.796875 48.1875 
Q 26.515625 48.1875 22.3125 43.546875 
Q 18.109375 38.921875 18.109375 30.90625 
L 18.109375 0 
L 9.078125 0 
L 9.078125 75.984375 
L 18.109375 75.984375 
L 18.109375 46.1875 
Q 21.34375 51.125 25.703125 53.5625 
Q 30.078125 56 35.796875 56 
Q 45.21875 56 50.046875 50.171875 
Q 54.890625 44.34375 54.890625 33.015625 
z
" id="DejaVuSans-104"/>
     </defs>
     <g transform="translate(10.713543 51.55125)scale(0.08 -0.08)">
      <use xlink:href="#DejaVuSans-104"/>
     </g>
    </g>
   </g>
   <g id="line2d_25">
    <path clip-path="url(#p18d9b55288)" d="M 145.035803 95.63 
L 145.035803 10.8 
" style="fill:none;stroke:#bfbf00;stroke-linecap:square;"/>
   </g>
   <g id="line2d_26">
    <path clip-path="url(#p18d9b55288)" d="M 252.519667 95.63 
L 252.519667 10.8 
" style="fill:none;stroke:#bfbf00;stroke-linecap:square;"/>
   </g>
   <g id="line2d_27">
    <path clip-path="url(#p18d9b55288)" d="M 332.318294 95.63 
L 332.318294 10.8 
" style="fill:none;stroke:#bfbf00;stroke-linecap:square;"/>
   </g>
   <g id="line2d_28">
    <path clip-path="url(#p18d9b55288)" d="M 392.5744 95.63 
L 392.5744 10.8 
" style="fill:none;stroke:#bfbf00;stroke-linecap:square;"/>
   </g>
   <g id="line2d_29">
    <path clip-path="url(#p18d9b55288)" d="M 438.173615 95.63 
L 438.173615 10.8 
" style="fill:none;stroke:#bfbf00;stroke-linecap:square;"/>
   </g>
   <g id="line2d_30">
    <path clip-path="url(#p18d9b55288)" d="M 474.00157 95.63 
L 474.00157 10.8 
" style="fill:none;stroke:#bfbf00;stroke-linecap:square;"/>
   </g>
   <g id="line2d_31">
    <path clip-path="url(#p18d9b55288)" d="M 503.315351 95.63 
L 503.315351 10.8 
" style="fill:none;stroke:#bfbf00;stroke-linecap:square;"/>
   </g>
   <g id="line2d_32">
    <path clip-path="url(#p18d9b55288)" d="M 527.743502 95.63 
L 527.743502 10.8 
" style="fill:none;stroke:#bfbf00;stroke-linecap:square;"/>
   </g>
   <g id="line2d_33">
    <path clip-path="url(#p18d9b55288)" d="M 548.914566 95.63 
L 548.914566 10.8 
" style="fill:none;stroke:#bfbf00;stroke-linecap:square;"/>
   </g>
   <g id="patch_3">
    <path d="M 70.122806 95.63 
L 70.122806 10.8 
" style="fill:none;stroke:#000000;stroke-linecap:square;stroke-linejoin:miter;stroke-width:0.5;"/>
   </g>
   <g id="patch_4">
    <path d="M 565.2 95.63 
L 565.2 10.8 
" style="fill:none;stroke:#000000;stroke-linecap:square;stroke-linejoin:miter;stroke-width:0.5;"/>
   </g>
   <g id="patch_5">
    <path d="M 70.122806 95.63 
L 565.2 95.63 
" style="fill:none;stroke:#000000;stroke-linecap:square;stroke-linejoin:miter;stroke-width:0.5;"/>
   </g>
   <g id="patch_6">
    <path d="M 70.122806 10.8 
L 565.2 10.8 
" style="fill:none;stroke:#000000;stroke-linecap:square;stroke-linejoin:miter;stroke-width:0.5;"/>
   </g>
   <g id="PathCollection_1">
    <defs>
     <path d="M 0 1.118034 
C 0.296506 1.118034 0.580908 1.000231 0.790569 0.790569 
C 1.000231 0.580908 1.118034 0.296506 1.118034 0 
C 1.118034 -0.296506 1.000231 -0.580908 0.790569 -0.790569 
C 0.580908 -1.000231 0.296506 -1.118034 0 -1.118034 
C -0.296506 -1.118034 -0.580908 -1.000231 -0.790569 -0.790569 
C -1.000231 -0.580908 -1.118034 -0.296506 -1.118034 0 
C -1.118034 0.296506 -1.000231 0.580908 -0.790569 0.790569 
C -0.580908 1.000231 -0.296506 1.118034 0 1.118034 
z
" id="m25844bef79" style="stroke:#0000ff;"/>
    </defs>
    <g clip-path="url(#p18d9b55288)">
     <use style="fill:#0000ff;stroke:#0000ff;" x="70.122806" xlink:href="#m25844bef79" y="14.655909"/>
     <use style="fill:#0000ff;stroke:#0000ff;" x="86.40824" xlink:href="#m25844bef79" y="17.995425"/>
     <use style="fill:#0000ff;stroke:#0000ff;" x="102.693674" xlink:href="#m25844bef79" y="28.756088"/>
     <use style="fill:#0000ff;stroke:#0000ff;" x="118.979108" xlink:href="#m25844bef79" y="46.937898"/>
     <use style="fill:#0000ff;stroke:#0000ff;" x="135.264542" xlink:href="#m25844bef79" y="72.540854"/>
     <use style="fill:#0000ff;stroke:#0000ff;" x="145.035803" xlink:href="#m25844bef79" y="91.464778"/>
     <use style="fill:#0000ff;stroke:#0000ff;" x="145.035803" xlink:href="#m25844bef79" y="90.304704"/>
     <use style="fill:#0000ff;stroke:#0000ff;" x="161.321237" xlink:href="#m25844bef79" y="69.748127"/>
     <use style="fill:#0000ff;stroke:#0000ff;" x="177.606671" xlink:href="#m25844bef79" y="56.612698"/>
     <use style="fill:#0000ff;stroke:#0000ff;" x="193.892105" xlink:href="#m25844bef79" y="50.898415"/>
     <use style="fill:#0000ff;stroke:#0000ff;" x="210.177539" xlink:href="#m25844bef79" y="52.605278"/>
     <use style="fill:#0000ff;stroke:#0000ff;" x="226.462973" xlink:href="#m25844bef79" y="61.733289"/>
     <use style="fill:#0000ff;stroke:#0000ff;" x="242.748407" xlink:href="#m25844bef79" y="78.282446"/>
     <use style="fill:#0000ff;stroke:#0000ff;" x="252.519667" xlink:href="#m25844bef79" y="91.774091"/>
     <use style="fill:#0000ff;stroke:#0000ff;" x="252.519667" xlink:href="#m25844bef79" y="90.304704"/>
     <use style="fill:#0000ff;stroke:#0000ff;" x="268.805101" xlink:href="#m25844bef79" y="76.085756"/>
     <use style="fill:#0000ff;stroke:#0000ff;" x="285.090535" xlink:href="#m25844bef79" y="69.288031"/>
     <use style="fill:#0000ff;stroke:#0000ff;" x="301.375969" xlink:href="#m25844bef79" y="69.911377"/>
     <use style="fill:#0000ff;stroke:#0000ff;" x="317.661403" xlink:href="#m25844bef79" y="77.955946"/>
     <use style="fill:#0000ff;stroke:#0000ff;" x="332.318294" xlink:href="#m25844bef79" y="91.54107"/>
     <use style="fill:#0000ff;stroke:#0000ff;" x="332.318294" xlink:href="#m25844bef79" y="90.304704"/>
     <use style="fill:#0000ff;stroke:#0000ff;" x="348.603728" xlink:href="#m25844bef79" y="80.480573"/>
     <use style="fill:#0000ff;stroke:#0000ff;" x="364.889162" xlink:href="#m25844bef79" y="78.077589"/>
     <use style="fill:#0000ff;stroke:#0000ff;" x="381.174596" xlink:href="#m25844bef79" y="83.095805"/>
     <use style="fill:#0000ff;stroke:#0000ff;" x="392.5744" xlink:href="#m25844bef79" y="91.02411"/>
     <use style="fill:#0000ff;stroke:#0000ff;" x="392.5744" xlink:href="#m25844bef79" y="90.304704"/>
     <use style="fill:#0000ff;stroke:#0000ff;" x="408.859834" xlink:href="#m25844bef79" y="83.637987"/>
     <use style="fill:#0000ff;stroke:#0000ff;" x="425.145268" xlink:href="#m25844bef79" y="84.392425"/>
     <use style="fill:#0000ff;stroke:#0000ff;" x="438.173615" xlink:href="#m25844bef79" y="90.339197"/>
     <use style="fill:#0000ff;stroke:#0000ff;" x="438.173615" xlink:href="#m25844bef79" y="90.304704"/>
     <use style="fill:#0000ff;stroke:#0000ff;" x="454.459049" xlink:href="#m25844bef79" y="86.103132"/>
     <use style="fill:#0000ff;stroke:#0000ff;" x="470.744483" xlink:href="#m25844bef79" y="89.322707"/>
     <use style="fill:#0000ff;stroke:#0000ff;" x="474.00157" xlink:href="#m25844bef79" y="90.857161"/>
     <use style="fill:#0000ff;stroke:#0000ff;" x="474.00157" xlink:href="#m25844bef79" y="90.304704"/>
     <use style="fill:#0000ff;stroke:#0000ff;" x="490.287004" xlink:href="#m25844bef79" y="87.494412"/>
     <use style="fill:#0000ff;stroke:#0000ff;" x="503.315351" xlink:href="#m25844bef79" y="90.58941"/>
     <use style="fill:#0000ff;stroke:#0000ff;" x="503.315351" xlink:href="#m25844bef79" y="90.304704"/>
     <use style="fill:#0000ff;stroke:#0000ff;" x="519.600785" xlink:href="#m25844bef79" y="88.598438"/>
     <use style="fill:#0000ff;stroke:#0000ff;" x="527.743502" xlink:href="#m25844bef79" y="90.528235"/>
     <use style="fill:#0000ff;stroke:#0000ff;" x="527.743502" xlink:href="#m25844bef79" y="90.304704"/>
     <use style="fill:#0000ff;stroke:#0000ff;" x="544.028936" xlink:href="#m25844bef79" y="89.384066"/>
     <use style="fill:#0000ff;stroke:#0000ff;" x="548.914566" xlink:href="#m25844bef79" y="90.554994"/>
     <use style="fill:#0000ff;stroke:#0000ff;" x="548.914566" xlink:href="#m25844bef79" y="90.304704"/>
     <use style="fill:#0000ff;stroke:#0000ff;" x="565.2" xlink:href="#m25844bef79" y="89.873087"/>
    </g>
   </g>
   <g id="line2d_34">
    <path clip-path="url(#p18d9b55288)" d="M 70.122806 14.655909 
L 86.40824 17.995425 
L 102.693674 28.756088 
L 118.979108 46.937898 
L 135.264542 72.540854 
L 145.035803 91.464778 
" style="fill:none;stroke:#0000ff;stroke-linecap:square;stroke-width:0.9;"/>
   </g>
   <g id="line2d_35">
    <path clip-path="url(#p18d9b55288)" d="M 145.035803 90.304704 
L 161.321237 69.748127 
L 177.606671 56.612698 
L 193.892105 50.898415 
L 210.177539 52.605278 
L 226.462973 61.733289 
L 242.748407 78.282446 
L 252.519667 91.774091 
" style="fill:none;stroke:#0000ff;stroke-linecap:square;stroke-width:0.9;"/>
   </g>
   <g id="line2d_36">
    <path clip-path="url(#p18d9b55288)" d="M 252.519667 90.304704 
L 268.805101 76.085756 
L 285.090535 69.288031 
L 301.375969 69.911377 
L 317.661403 77.955946 
L 332.318294 91.54107 
" style="fill:none;stroke:#0000ff;stroke-linecap:square;stroke-width:0.9;"/>
   </g>
   <g id="line2d_37">
    <path clip-path="url(#p18d9b55288)" d="M 332.318294 90.304704 
L 348.603728 80.480573 
L 364.889162 78.077589 
L 381.174596 83.095805 
L 392.5744 91.02411 
" style="fill:none;stroke:#0000ff;stroke-linecap:square;stroke-width:0.9;"/>
   </g>
   <g id="line2d_38">
    <path clip-path="url(#p18d9b55288)" d="M 392.5744 90.304704 
L 408.859834 83.637987 
L 425.145268 84.392425 
L 438.173615 90.339197 
" style="fill:none;stroke:#0000ff;stroke-linecap:square;stroke-width:0.9;"/>
   </g>
   <g id="line2d_39">
    <path clip-path="url(#p18d9b55288)" d="M 438.173615 90.304704 
L 454.459049 86.103132 
L 470.744483 89.322707 
L 474.00157 90.857161 
" style="fill:none;stroke:#0000ff;stroke-linecap:square;stroke-width:0.9;"/>
   </g>
   <g id="line2d_40">
    <path clip-path="url(#p18d9b55288)" d="M 474.00157 90.304704 
L 490.287004 87.494412 
L 503.315351 90.58941 
" style="fill:none;stroke:#0000ff;stroke-linecap:square;stroke-width:0.9;"/>
   </g>
   <g id="line2d_41">
    <path clip-path="url(#p18d9b55288)" d="M 503.315351 90.304704 
L 519.600785 88.598438 
L 527.743502 90.528235 
" style="fill:none;stroke:#0000ff;stroke-linecap:square;stroke-width:0.9;"/>
   </g>
   <g id="line2d_42">
    <path clip-path="url(#p18d9b55288)" d="M 527.743502 90.304704 
L 544.028936 89.384066 
L 548.914566 90.554994 
" style="fill:none;stroke:#0000ff;stroke-linecap:square;stroke-width:0.9;"/>
   </g>
   <g id="line2d_43">
    <path clip-path="url(#p18d9b55288)" d="M 548.914566 90.304704 
L 565.2 89.873087 
" style="fill:none;stroke:#0000ff;stroke-linecap:square;stroke-width:0.9;"/>
   </g>
  </g>
  <g id="axes_2">
   <g id="patch_7">
    <path d="M 70.122806 191.26 
L 565.2 191.26 
L 565.2 106.43 
L 70.122806 106.43 
z
" style="fill:#ffffff;"/>
   </g>
   <g id="matplotlib.axis_3">
    <g id="xtick_8">
     <g id="line2d_44">
      <path clip-path="url(#pae29c3b87d)" d="M 70.122806 191.26 
L 70.122806 106.43 
" style="fill:none;stroke:#cccccc;stroke-linecap:square;stroke-width:0.8;"/>
     </g>
     <g id="line2d_45">
      <g>
       <use style="stroke:#000000;stroke-width:0.8;" x="70.122806" xlink:href="#mcb84a81eaa" y="191.26"/>
      </g>
     </g>
     <g id="text_7">
      <!-- 0.0 -->
      <g transform="translate(63.761556 200.83875)scale(0.08 -0.08)">
       <use xlink:href="#DejaVuSans-48"/>
       <use x="63.623047" xlink:href="#DejaVuSans-46"/>
       <use x="95.410156" xlink:href="#DejaVuSans-48"/>
      </g>
     </g>
    </g>
    <g id="xtick_9">
     <g id="line2d_46">
      <path clip-path="url(#pae29c3b87d)" d="M 151.549976 191.26 
L 151.549976 106.43 
" style="fill:none;stroke:#cccccc;stroke-linecap:square;stroke-width:0.8;"/>
     </g>
     <g id="line2d_47">
      <g>
       <use style="stroke:#000000;stroke-width:0.8;" x="151.549976" xlink:href="#mcb84a81eaa" y="191.26"/>
      </g>
     </g>
     <g id="text_8">
      <!-- 0.5 -->
      <g transform="translate(145.188726 200.83875)scale(0.08 -0.08)">
       <use xlink:href="#DejaVuSans-48"/>
       <use x="63.623047" xlink:href="#DejaVuSans-46"/>
       <use x="95.410156" xlink:href="#DejaVuSans-53"/>
      </g>
     </g>
    </g>
    <g id="xtick_10">
     <g id="line2d_48">
      <path clip-path="url(#pae29c3b87d)" d="M 232.977146 191.26 
L 232.977146 106.43 
" style="fill:none;stroke:#cccccc;stroke-linecap:square;stroke-width:0.8;"/>
     </g>
     <g id="line2d_49">
      <g>
       <use style="stroke:#000000;stroke-width:0.8;" x="232.977146" xlink:href="#mcb84a81eaa" y="191.26"/>
      </g>
     </g>
     <g id="text_9">
      <!-- 1.0 -->
      <g transform="translate(226.615896 200.83875)scale(0.08 -0.08)">
       <use xlink:href="#DejaVuSans-49"/>
       <use x="63.623047" xlink:href="#DejaVuSans-46"/>
       <use x="95.410156" xlink:href="#DejaVuSans-48"/>
      </g>
     </g>
    </g>
    <g id="xtick_11">
     <g id="line2d_50">
      <path clip-path="url(#pae29c3b87d)" d="M 314.404316 191.26 
L 314.404316 106.43 
" style="fill:none;stroke:#cccccc;stroke-linecap:square;stroke-width:0.8;"/>
     </g>
     <g id="line2d_51">
      <g>
       <use style="stroke:#000000;stroke-width:0.8;" x="314.404316" xlink:href="#mcb84a81eaa" y="191.26"/>
      </g>
     </g>
     <g id="text_10">
      <!-- 1.5 -->
      <g transform="translate(308.043066 200.83875)scale(0.08 -0.08)">
       <use xlink:href="#DejaVuSans-49"/>
       <use x="63.623047" xlink:href="#DejaVuSans-46"/>
       <use x="95.410156" xlink:href="#DejaVuSans-53"/>
      </g>
     </g>
    </g>
    <g id="xtick_12">
     <g id="line2d_52">
      <path clip-path="url(#pae29c3b87d)" d="M 395.831486 191.26 
L 395.831486 106.43 
" style="fill:none;stroke:#cccccc;stroke-linecap:square;stroke-width:0.8;"/>
     </g>
     <g id="line2d_53">
      <g>
       <use style="stroke:#000000;stroke-width:0.8;" x="395.831486" xlink:href="#mcb84a81eaa" y="191.26"/>
      </g>
     </g>
     <g id="text_11">
      <!-- 2.0 -->
      <g transform="translate(389.470236 200.83875)scale(0.08 -0.08)">
       <use xlink:href="#DejaVuSans-50"/>
       <use x="63.623047" xlink:href="#DejaVuSans-46"/>
       <use x="95.410156" xlink:href="#DejaVuSans-48"/>
      </g>
     </g>
    </g>
    <g id="xtick_13">
     <g id="line2d_54">
      <path clip-path="url(#pae29c3b87d)" d="M 477.258656 191.26 
L 477.258656 106.43 
" style="fill:none;stroke:#cccccc;stroke-linecap:square;stroke-width:0.8;"/>
     </g>
     <g id="line2d_55">
      <g>
       <use style="stroke:#000000;stroke-width:0.8;" x="477.258656" xlink:href="#mcb84a81eaa" y="191.26"/>
      </g>
     </g>
     <g id="text_12">
      <!-- 2.5 -->
      <g transform="translate(470.897406 200.83875)scale(0.08 -0.08)">
       <use xlink:href="#DejaVuSans-50"/>
       <use x="63.623047" xlink:href="#DejaVuSans-46"/>
       <use x="95.410156" xlink:href="#DejaVuSans-53"/>
      </g>
     </g>
    </g>
    <g id="xtick_14">
     <g id="line2d_56">
      <path clip-path="url(#pae29c3b87d)" d="M 558.685826 191.26 
L 558.685826 106.43 
" style="fill:none;stroke:#cccccc;stroke-linecap:square;stroke-width:0.8;"/>
     </g>
     <g id="line2d_57">
      <g>
       <use style="stroke:#000000;stroke-width:0.8;" x="558.685826" xlink:href="#mcb84a81eaa" y="191.26"/>
      </g>
     </g>
     <g id="text_13">
      <!-- 3.0 -->
      <defs>
       <path d="M 40.578125 39.3125 
Q 47.65625 37.796875 51.625 33 
Q 55.609375 28.21875 55.609375 21.1875 
Q 55.609375 10.40625 48.1875 4.484375 
Q 40.765625 -1.421875 27.09375 -1.421875 
Q 22.515625 -1.421875 17.65625 -0.515625 
Q 12.796875 0.390625 7.625 2.203125 
L 7.625 11.71875 
Q 11.71875 9.328125 16.59375 8.109375 
Q 21.484375 6.890625 26.8125 6.890625 
Q 36.078125 6.890625 40.9375 10.546875 
Q 45.796875 14.203125 45.796875 21.1875 
Q 45.796875 27.640625 41.28125 31.265625 
Q 36.765625 34.90625 28.71875 34.90625 
L 20.21875 34.90625 
L 20.21875 43.015625 
L 29.109375 43.015625 
Q 36.375 43.015625 40.234375 45.921875 
Q 44.09375 48.828125 44.09375 54.296875 
Q 44.09375 59.90625 40.109375 62.90625 
Q 36.140625 65.921875 28.71875 65.921875 
Q 24.65625 65.921875 20.015625 65.03125 
Q 15.375 64.15625 9.8125 62.3125 
L 9.8125 71.09375 
Q 15.4375 72.65625 20.34375 73.4375 
Q 25.25 74.21875 29.59375 74.21875 
Q 40.828125 74.21875 47.359375 69.109375 
Q 53.90625 64.015625 53.90625 55.328125 
Q 53.90625 49.265625 50.4375 45.09375 
Q 46.96875 40.921875 40.578125 39.3125 
z
" id="DejaVuSans-51"/>
      </defs>
      <g transform="translate(552.324576 200.83875)scale(0.08 -0.08)">
       <use xlink:href="#DejaVuSans-51"/>
       <use x="63.623047" xlink:href="#DejaVuSans-46"/>
       <use x="95.410156" xlink:href="#DejaVuSans-48"/>
      </g>
     </g>
    </g>
   </g>
   <g id="matplotlib.axis_4">
    <g id="ytick_6">
     <g id="line2d_58">
      <path clip-path="url(#pae29c3b87d)" d="M 70.122806 182.251097 
L 565.2 182.251097 
" style="fill:none;stroke:#cccccc;stroke-linecap:square;stroke-width:0.8;"/>
     </g>
     <g id="line2d_59">
      <g>
       <use style="stroke:#000000;stroke-width:0.8;" x="70.122806" xlink:href="#m4b1bb9a58c" y="182.251097"/>
      </g>
     </g>
     <g id="text_14">
      <!-- −4 -->
      <defs>
       <path d="M 10.59375 35.5 
L 73.1875 35.5 
L 73.1875 27.203125 
L 10.59375 27.203125 
z
" id="DejaVuSans-8722"/>
       <path d="M 37.796875 64.3125 
L 12.890625 25.390625 
L 37.796875 25.390625 
z
M 35.203125 72.90625 
L 47.609375 72.90625 
L 47.609375 25.390625 
L 58.015625 25.390625 
L 58.015625 17.1875 
L 47.609375 17.1875 
L 47.609375 0 
L 37.796875 0 
L 37.796875 17.1875 
L 4.890625 17.1875 
L 4.890625 26.703125 
z
" id="DejaVuSans-52"/>
      </defs>
      <g transform="translate(54.829056 185.290472)scale(0.08 -0.08)">
       <use xlink:href="#DejaVuSans-8722"/>
       <use x="83.789062" xlink:href="#DejaVuSans-52"/>
      </g>
     </g>
    </g>
    <g id="ytick_7">
     <g id="line2d_60">
      <path clip-path="url(#pae29c3b87d)" d="M 70.122806 162.145776 
L 565.2 162.145776 
" style="fill:none;stroke:#cccccc;stroke-linecap:square;stroke-width:0.8;"/>
     </g>
     <g id="line2d_61">
      <g>
       <use style="stroke:#000000;stroke-width:0.8;" x="70.122806" xlink:href="#m4b1bb9a58c" y="162.145776"/>
      </g>
     </g>
     <g id="text_15">
      <!-- −2 -->
      <g transform="translate(54.829056 165.185151)scale(0.08 -0.08)">
       <use xlink:href="#DejaVuSans-8722"/>
       <use x="83.789062" xlink:href="#DejaVuSans-50"/>
      </g>
     </g>
    </g>
    <g id="ytick_8">
     <g id="line2d_62">
      <path clip-path="url(#pae29c3b87d)" d="M 70.122806 142.040455 
L 565.2 142.040455 
" style="fill:none;stroke:#cccccc;stroke-linecap:square;stroke-width:0.8;"/>
     </g>
     <g id="line2d_63">
      <g>
       <use style="stroke:#000000;stroke-width:0.8;" x="70.122806" xlink:href="#m4b1bb9a58c" y="142.040455"/>
      </g>
     </g>
     <g id="text_16">
      <!-- 0 -->
      <g transform="translate(61.532806 145.07983)scale(0.08 -0.08)">
       <use xlink:href="#DejaVuSans-48"/>
      </g>
     </g>
    </g>
    <g id="ytick_9">
     <g id="line2d_64">
      <path clip-path="url(#pae29c3b87d)" d="M 70.122806 121.935133 
L 565.2 121.935133 
" style="fill:none;stroke:#cccccc;stroke-linecap:square;stroke-width:0.8;"/>
     </g>
     <g id="line2d_65">
      <g>
       <use style="stroke:#000000;stroke-width:0.8;" x="70.122806" xlink:href="#m4b1bb9a58c" y="121.935133"/>
      </g>
     </g>
     <g id="text_17">
      <!-- 2 -->
      <g transform="translate(61.532806 124.974508)scale(0.08 -0.08)">
       <use xlink:href="#DejaVuSans-50"/>
      </g>
     </g>
    </g>
    <g id="text_18">
     <!-- v -->
     <defs>
      <path d="M 2.984375 54.6875 
L 12.5 54.6875 
L 29.59375 8.796875 
L 46.6875 54.6875 
L 56.203125 54.6875 
L 35.6875 0 
L 23.484375 0 
z
" id="DejaVuSans-118"/>
     </defs>
     <g transform="translate(10.713543 147.18125)scale(0.08 -0.08)">
      <use xlink:href="#DejaVuSans-118"/>
     </g>
    </g>
   </g>
   <g id="line2d_66">
    <path clip-path="url(#pae29c3b87d)" d="M 145.035803 191.26 
L 145.035803 106.43 
" style="fill:none;stroke:#bfbf00;stroke-linecap:square;"/>
   </g>
   <g id="line2d_67">
    <path clip-path="url(#pae29c3b87d)" d="M 252.519667 191.26 
L 252.519667 106.43 
" style="fill:none;stroke:#bfbf00;stroke-linecap:square;"/>
   </g>
   <g id="line2d_68">
    <path clip-path="url(#pae29c3b87d)" d="M 332.318294 191.26 
L 332.318294 106.43 
" style="fill:none;stroke:#bfbf00;stroke-linecap:square;"/>
   </g>
   <g id="line2d_69">
    <path clip-path="url(#pae29c3b87d)" d="M 392.5744 191.26 
L 392.5744 106.43 
" style="fill:none;stroke:#bfbf00;stroke-linecap:square;"/>
   </g>
   <g id="line2d_70">
    <path clip-path="url(#pae29c3b87d)" d="M 438.173615 191.26 
L 438.173615 106.43 
" style="fill:none;stroke:#bfbf00;stroke-linecap:square;"/>
   </g>
   <g id="line2d_71">
    <path clip-path="url(#pae29c3b87d)" d="M 474.00157 191.26 
L 474.00157 106.43 
" style="fill:none;stroke:#bfbf00;stroke-linecap:square;"/>
   </g>
   <g id="line2d_72">
    <path clip-path="url(#pae29c3b87d)" d="M 503.315351 191.26 
L 503.315351 106.43 
" style="fill:none;stroke:#bfbf00;stroke-linecap:square;"/>
   </g>
   <g id="line2d_73">
    <path clip-path="url(#pae29c3b87d)" d="M 527.743502 191.26 
L 527.743502 106.43 
" style="fill:none;stroke:#bfbf00;stroke-linecap:square;"/>
   </g>
   <g id="line2d_74">
    <path clip-path="url(#pae29c3b87d)" d="M 548.914566 191.26 
L 548.914566 106.43 
" style="fill:none;stroke:#bfbf00;stroke-linecap:square;"/>
   </g>
   <g id="patch_8">
    <path d="M 70.122806 191.26 
L 70.122806 106.43 
" style="fill:none;stroke:#000000;stroke-linecap:square;stroke-linejoin:miter;stroke-width:0.5;"/>
   </g>
   <g id="patch_9">
    <path d="M 565.2 191.26 
L 565.2 106.43 
" style="fill:none;stroke:#000000;stroke-linecap:square;stroke-linejoin:miter;stroke-width:0.5;"/>
   </g>
   <g id="patch_10">
    <path d="M 70.122806 191.26 
L 565.2 191.26 
" style="fill:none;stroke:#000000;stroke-linecap:square;stroke-linejoin:miter;stroke-width:0.5;"/>
   </g>
   <g id="patch_11">
    <path d="M 70.122806 106.43 
L 565.2 106.43 
" style="fill:none;stroke:#000000;stroke-linecap:square;stroke-linejoin:miter;stroke-width:0.5;"/>
   </g>
   <g id="PathCollection_2">
    <g clip-path="url(#pae29c3b87d)">
     <use style="fill:#0000ff;stroke:#0000ff;" x="70.122806" xlink:href="#m25844bef79" y="142.040455"/>
     <use style="fill:#0000ff;stroke:#0000ff;" x="86.40824" xlink:href="#m25844bef79" y="151.902115"/>
     <use style="fill:#0000ff;stroke:#0000ff;" x="102.693674" xlink:href="#m25844bef79" y="161.763775"/>
     <use style="fill:#0000ff;stroke:#0000ff;" x="118.979108" xlink:href="#m25844bef79" y="171.625435"/>
     <use style="fill:#0000ff;stroke:#0000ff;" x="135.264542" xlink:href="#m25844bef79" y="181.487095"/>
     <use style="fill:#0000ff;stroke:#0000ff;" x="145.035803" xlink:href="#m25844bef79" y="187.404091"/>
     <use style="fill:#0000ff;stroke:#0000ff;" x="145.035803" xlink:href="#m25844bef79" y="110.285909"/>
     <use style="fill:#0000ff;stroke:#0000ff;" x="161.321237" xlink:href="#m25844bef79" y="120.147569"/>
     <use style="fill:#0000ff;stroke:#0000ff;" x="177.606671" xlink:href="#m25844bef79" y="130.009229"/>
     <use style="fill:#0000ff;stroke:#0000ff;" x="193.892105" xlink:href="#m25844bef79" y="139.870889"/>
     <use style="fill:#0000ff;stroke:#0000ff;" x="210.177539" xlink:href="#m25844bef79" y="149.732549"/>
     <use style="fill:#0000ff;stroke:#0000ff;" x="226.462973" xlink:href="#m25844bef79" y="159.594209"/>
     <use style="fill:#0000ff;stroke:#0000ff;" x="242.748407" xlink:href="#m25844bef79" y="169.45587"/>
     <use style="fill:#0000ff;stroke:#0000ff;" x="252.519667" xlink:href="#m25844bef79" y="175.372866"/>
     <use style="fill:#0000ff;stroke:#0000ff;" x="252.519667" xlink:href="#m25844bef79" y="118.707727"/>
     <use style="fill:#0000ff;stroke:#0000ff;" x="268.805101" xlink:href="#m25844bef79" y="128.569387"/>
     <use style="fill:#0000ff;stroke:#0000ff;" x="285.090535" xlink:href="#m25844bef79" y="138.431087"/>
     <use style="fill:#0000ff;stroke:#0000ff;" x="301.375969" xlink:href="#m25844bef79" y="148.292747"/>
     <use style="fill:#0000ff;stroke:#0000ff;" x="317.661403" xlink:href="#m25844bef79" y="158.154367"/>
     <use style="fill:#0000ff;stroke:#0000ff;" x="332.318294" xlink:href="#m25844bef79" y="167.029861"/>
     <use style="fill:#0000ff;stroke:#0000ff;" x="332.318294" xlink:href="#m25844bef79" y="124.54782"/>
     <use style="fill:#0000ff;stroke:#0000ff;" x="348.603728" xlink:href="#m25844bef79" y="134.4095"/>
     <use style="fill:#0000ff;stroke:#0000ff;" x="364.889162" xlink:href="#m25844bef79" y="144.27116"/>
     <use style="fill:#0000ff;stroke:#0000ff;" x="381.174596" xlink:href="#m25844bef79" y="154.1328"/>
     <use style="fill:#0000ff;stroke:#0000ff;" x="392.5744" xlink:href="#m25844bef79" y="161.035962"/>
     <use style="fill:#0000ff;stroke:#0000ff;" x="392.5744" xlink:href="#m25844bef79" y="128.743599"/>
     <use style="fill:#0000ff;stroke:#0000ff;" x="408.859834" xlink:href="#m25844bef79" y="138.605239"/>
     <use style="fill:#0000ff;stroke:#0000ff;" x="425.145268" xlink:href="#m25844bef79" y="148.466899"/>
     <use style="fill:#0000ff;stroke:#0000ff;" x="438.173615" xlink:href="#m25844bef79" y="156.356247"/>
     <use style="fill:#0000ff;stroke:#0000ff;" x="438.173615" xlink:href="#m25844bef79" y="132.01941"/>
     <use style="fill:#0000ff;stroke:#0000ff;" x="454.459049" xlink:href="#m25844bef79" y="141.881071"/>
     <use style="fill:#0000ff;stroke:#0000ff;" x="470.744483" xlink:href="#m25844bef79" y="151.74273"/>
     <use style="fill:#0000ff;stroke:#0000ff;" x="474.00157" xlink:href="#m25844bef79" y="153.715112"/>
     <use style="fill:#0000ff;stroke:#0000ff;" x="474.00157" xlink:href="#m25844bef79" y="133.868225"/>
     <use style="fill:#0000ff;stroke:#0000ff;" x="490.287004" xlink:href="#m25844bef79" y="143.729885"/>
     <use style="fill:#0000ff;stroke:#0000ff;" x="503.315351" xlink:href="#m25844bef79" y="151.619213"/>
     <use style="fill:#0000ff;stroke:#0000ff;" x="503.315351" xlink:href="#m25844bef79" y="135.33532"/>
     <use style="fill:#0000ff;stroke:#0000ff;" x="519.600785" xlink:href="#m25844bef79" y="145.19698"/>
     <use style="fill:#0000ff;stroke:#0000ff;" x="527.743502" xlink:href="#m25844bef79" y="150.12781"/>
     <use style="fill:#0000ff;stroke:#0000ff;" x="527.743502" xlink:href="#m25844bef79" y="136.379309"/>
     <use style="fill:#0000ff;stroke:#0000ff;" x="544.028936" xlink:href="#m25844bef79" y="146.240969"/>
     <use style="fill:#0000ff;stroke:#0000ff;" x="548.914566" xlink:href="#m25844bef79" y="149.199467"/>
     <use style="fill:#0000ff;stroke:#0000ff;" x="548.914566" xlink:href="#m25844bef79" y="137.029153"/>
     <use style="fill:#0000ff;stroke:#0000ff;" x="565.2" xlink:href="#m25844bef79" y="146.890813"/>
    </g>
   </g>
   <g id="line2d_75">
    <path clip-path="url(#pae29c3b87d)" d="M 70.122806 142.040455 
L 86.40824 151.902115 
L 102.693674 161.763775 
L 118.979108 171.625435 
L 135.264542 181.487095 
L 145.035803 187.404091 
" style="fill:none;stroke:#0000ff;stroke-linecap:square;stroke-width:0.9;"/>
   </g>
   <g id="line2d_76">
    <path clip-path="url(#pae29c3b87d)" d="M 145.035803 110.285909 
L 161.321237 120.147569 
L 177.606671 130.009229 
L 193.892105 139.870889 
L 210.177539 149.732549 
L 226.462973 159.594209 
L 242.748407 169.45587 
L 252.519667 175.372866 
" style="fill:none;stroke:#0000ff;stroke-linecap:square;stroke-width:0.9;"/>
   </g>
   <g id="line2d_77">
    <path clip-path="url(#pae29c3b87d)" d="M 252.519667 118.707727 
L 268.805101 128.569387 
L 285.090535 138.431087 
L 301.375969 148.292747 
L 317.661403 158.154367 
L 332.318294 167.029861 
" style="fill:none;stroke:#0000ff;stroke-linecap:square;stroke-width:0.9;"/>
   </g>
   <g id="line2d_78">
    <path clip-path="url(#pae29c3b87d)" d="M 332.318294 124.54782 
L 348.603728 134.4095 
L 364.889162 144.27116 
L 381.174596 154.1328 
L 392.5744 161.035962 
" style="fill:none;stroke:#0000ff;stroke-linecap:square;stroke-width:0.9;"/>
   </g>
   <g id="line2d_79">
    <path clip-path="url(#pae29c3b87d)" d="M 392.5744 128.743599 
L 408.859834 138.605239 
L 425.145268 148.466899 
L 438.173615 156.356247 
" style="fill:none;stroke:#0000ff;stroke-linecap:square;stroke-width:0.9;"/>
   </g>
   <g id="line2d_80">
    <path clip-path="url(#pae29c3b87d)" d="M 438.173615 132.01941 
L 454.459049 141.881071 
L 470.744483 151.74273 
L 474.00157 153.715112 
" style="fill:none;stroke:#0000ff;stroke-linecap:square;stroke-width:0.9;"/>
   </g>
   <g id="line2d_81">
    <path clip-path="url(#pae29c3b87d)" d="M 474.00157 133.868225 
L 490.287004 143.729885 
L 503.315351 151.619213 
" style="fill:none;stroke:#0000ff;stroke-linecap:square;stroke-width:0.9;"/>
   </g>
   <g id="line2d_82">
    <path clip-path="url(#pae29c3b87d)" d="M 503.315351 135.33532 
L 519.600785 145.19698 
L 527.743502 150.12781 
" style="fill:none;stroke:#0000ff;stroke-linecap:square;stroke-width:0.9;"/>
   </g>
   <g id="line2d_83">
    <path clip-path="url(#pae29c3b87d)" d="M 527.743502 136.379309 
L 544.028936 146.240969 
L 548.914566 149.199467 
" style="fill:none;stroke:#0000ff;stroke-linecap:square;stroke-width:0.9;"/>
   </g>
   <g id="line2d_84">
    <path clip-path="url(#pae29c3b87d)" d="M 548.914566 137.029153 
L 565.2 146.890813 
" style="fill:none;stroke:#0000ff;stroke-linecap:square;stroke-width:0.9;"/>
   </g>
  </g>
 </g>
 <defs>
  <clipPath id="p18d9b55288">
   <rect height="84.83" width="495.077194" x="70.122806" y="10.8"/>
  </clipPath>
  <clipPath id="pae29c3b87d">
   <rect height="84.83" width="495.077194" x="70.122806" y="106.43"/>
  </clipPath>
 </defs>
</svg>
