<?xml version="1.0" encoding="utf-8" standalone="no"?>
<!DOCTYPE svg PUBLIC "-//W3C//DTD SVG 1.1//EN"
  "http://www.w3.org/Graphics/SVG/1.1/DTD/svg11.dtd">
<!-- Created with matplotlib (https://matplotlib.org/) -->
<svg height="213.84pt" version="1.1" viewBox="0 0 576 213.84" width="576pt" xmlns="http://www.w3.org/2000/svg" xmlns:xlink="http://www.w3.org/1999/xlink">
 <defs>
  <style type="text/css">
*{stroke-linecap:butt;stroke-linejoin:round;}
  </style>
 </defs>
 <g id="figure_1">
  <g id="patch_1">
   <path d="M 0 213.84 
L 576 213.84 
L 576 0 
L 0 0 
z
" style="fill:#ffffff;"/>
  </g>
  <g id="axes_1">
   <g id="patch_2">
    <path d="M 70.122806 95.029796 
L 565.2 95.029796 
L 565.2 10.8 
L 70.122806 10.8 
z
" style="fill:#ffffff;"/>
   </g>
   <g id="matplotlib.axis_1">
    <g id="xtick_1">
     <g id="line2d_1">
      <path clip-path="url(#p8f21a2097d)" d="M 70.122806 95.029796 
L 70.122806 10.8 
" style="fill:none;stroke:#cccccc;stroke-linecap:square;stroke-width:0.8;"/>
     </g>
     <g id="line2d_2">
      <defs>
       <path d="M 0 0 
L 0 -3.5 
" id="m4c4e39edf6" style="stroke:#000000;stroke-width:0.8;"/>
      </defs>
      <g>
       <use style="stroke:#000000;stroke-width:0.8;" x="70.122806" xlink:href="#m4c4e39edf6" y="95.029796"/>
      </g>
     </g>
    </g>
    <g id="xtick_2">
     <g id="line2d_3">
      <path clip-path="url(#p8f21a2097d)" d="M 151.549976 95.029796 
L 151.549976 10.8 
" style="fill:none;stroke:#cccccc;stroke-linecap:square;stroke-width:0.8;"/>
     </g>
     <g id="line2d_4">
      <g>
       <use style="stroke:#000000;stroke-width:0.8;" x="151.549976" xlink:href="#m4c4e39edf6" y="95.029796"/>
      </g>
     </g>
    </g>
    <g id="xtick_3">
     <g id="line2d_5">
      <path clip-path="url(#p8f21a2097d)" d="M 232.977146 95.029796 
L 232.977146 10.8 
" style="fill:none;stroke:#cccccc;stroke-linecap:square;stroke-width:0.8;"/>
     </g>
     <g id="line2d_6">
      <g>
       <use style="stroke:#000000;stroke-width:0.8;" x="232.977146" xlink:href="#m4c4e39edf6" y="95.029796"/>
      </g>
     </g>
    </g>
    <g id="xtick_4">
     <g id="line2d_7">
      <path clip-path="url(#p8f21a2097d)" d="M 314.404316 95.029796 
L 314.404316 10.8 
" style="fill:none;stroke:#cccccc;stroke-linecap:square;stroke-width:0.8;"/>
     </g>
     <g id="line2d_8">
      <g>
       <use style="stroke:#000000;stroke-width:0.8;" x="314.404316" xlink:href="#m4c4e39edf6" y="95.029796"/>
      </g>
     </g>
    </g>
    <g id="xtick_5">
     <g id="line2d_9">
      <path clip-path="url(#p8f21a2097d)" d="M 395.831486 95.029796 
L 395.831486 10.8 
" style="fill:none;stroke:#cccccc;stroke-linecap:square;stroke-width:0.8;"/>
     </g>
     <g id="line2d_10">
      <g>
       <use style="stroke:#000000;stroke-width:0.8;" x="395.831486" xlink:href="#m4c4e39edf6" y="95.029796"/>
      </g>
     </g>
    </g>
    <g id="xtick_6">
     <g id="line2d_11">
      <path clip-path="url(#p8f21a2097d)" d="M 477.258656 95.029796 
L 477.258656 10.8 
" style="fill:none;stroke:#cccccc;stroke-linecap:square;stroke-width:0.8;"/>
     </g>
     <g id="line2d_12">
      <g>
       <use style="stroke:#000000;stroke-width:0.8;" x="477.258656" xlink:href="#m4c4e39edf6" y="95.029796"/>
      </g>
     </g>
    </g>
    <g id="xtick_7">
     <g id="line2d_13">
      <path clip-path="url(#p8f21a2097d)" d="M 558.685826 95.029796 
L 558.685826 10.8 
" style="fill:none;stroke:#cccccc;stroke-linecap:square;stroke-width:0.8;"/>
     </g>
     <g id="line2d_14">
      <g>
       <use style="stroke:#000000;stroke-width:0.8;" x="558.685826" xlink:href="#m4c4e39edf6" y="95.029796"/>
      </g>
     </g>
    </g>
   </g>
   <g id="matplotlib.axis_2">
    <g id="ytick_1">
     <g id="line2d_15">
      <path clip-path="url(#p8f21a2097d)" d="M 70.122806 91.201169 
L 565.2 91.201169 
" style="fill:none;stroke:#cccccc;stroke-linecap:square;stroke-width:0.8;"/>
     </g>
     <g id="line2d_16">
      <defs>
       <path d="M 0 0 
L 3.5 0 
" id="mbc61a22c8a" style="stroke:#000000;stroke-width:0.8;"/>
      </defs>
      <g>
       <use style="stroke:#000000;stroke-width:0.8;" x="70.122806" xlink:href="#mbc61a22c8a" y="91.201169"/>
      </g>
     </g>
     <g id="text_1">
      <!-- 0.00 -->
      <defs>
       <path d="M 31.78125 66.40625 
Q 24.171875 66.40625 20.328125 58.90625 
Q 16.5 51.421875 16.5 36.375 
Q 16.5 21.390625 20.328125 13.890625 
Q 24.171875 6.390625 31.78125 6.390625 
Q 39.453125 6.390625 43.28125 13.890625 
Q 47.125 21.390625 47.125 36.375 
Q 47.125 51.421875 43.28125 58.90625 
Q 39.453125 66.40625 31.78125 66.40625 
z
M 31.78125 74.21875 
Q 44.046875 74.21875 50.515625 64.515625 
Q 56.984375 54.828125 56.984375 36.375 
Q 56.984375 17.96875 50.515625 8.265625 
Q 44.046875 -1.421875 31.78125 -1.421875 
Q 19.53125 -1.421875 13.0625 8.265625 
Q 6.59375 17.96875 6.59375 36.375 
Q 6.59375 54.828125 13.0625 64.515625 
Q 19.53125 74.21875 31.78125 74.21875 
z
" id="DejaVuSans-48"/>
       <path d="M 10.6875 12.40625 
L 21 12.40625 
L 21 0 
L 10.6875 0 
z
" id="DejaVuSans-46"/>
      </defs>
      <g transform="translate(48.810306 94.240544)scale(0.08 -0.08)">
       <use xlink:href="#DejaVuSans-48"/>
       <use x="63.623047" xlink:href="#DejaVuSans-46"/>
       <use x="95.410156" xlink:href="#DejaVuSans-48"/>
       <use x="159.033203" xlink:href="#DejaVuSans-48"/>
      </g>
     </g>
    </g>
    <g id="ytick_2">
     <g id="line2d_17">
      <path clip-path="url(#p8f21a2097d)" d="M 70.122806 72.058034 
L 565.2 72.058034 
" style="fill:none;stroke:#cccccc;stroke-linecap:square;stroke-width:0.8;"/>
     </g>
     <g id="line2d_18">
      <g>
       <use style="stroke:#000000;stroke-width:0.8;" x="70.122806" xlink:href="#mbc61a22c8a" y="72.058034"/>
      </g>
     </g>
     <g id="text_2">
      <!-- 0.25 -->
      <defs>
       <path d="M 19.1875 8.296875 
L 53.609375 8.296875 
L 53.609375 0 
L 7.328125 0 
L 7.328125 8.296875 
Q 12.9375 14.109375 22.625 23.890625 
Q 32.328125 33.6875 34.8125 36.53125 
Q 39.546875 41.84375 41.421875 45.53125 
Q 43.3125 49.21875 43.3125 52.78125 
Q 43.3125 58.59375 39.234375 62.25 
Q 35.15625 65.921875 28.609375 65.921875 
Q 23.96875 65.921875 18.8125 64.3125 
Q 13.671875 62.703125 7.8125 59.421875 
L 7.8125 69.390625 
Q 13.765625 71.78125 18.9375 73 
Q 24.125 74.21875 28.421875 74.21875 
Q 39.75 74.21875 46.484375 68.546875 
Q 53.21875 62.890625 53.21875 53.421875 
Q 53.21875 48.921875 51.53125 44.890625 
Q 49.859375 40.875 45.40625 35.40625 
Q 44.1875 33.984375 37.640625 27.21875 
Q 31.109375 20.453125 19.1875 8.296875 
z
" id="DejaVuSans-50"/>
       <path d="M 10.796875 72.90625 
L 49.515625 72.90625 
L 49.515625 64.59375 
L 19.828125 64.59375 
L 19.828125 46.734375 
Q 21.96875 47.46875 24.109375 47.828125 
Q 26.265625 48.1875 28.421875 48.1875 
Q 40.625 48.1875 47.75 41.5 
Q 54.890625 34.8125 54.890625 23.390625 
Q 54.890625 11.625 47.5625 5.09375 
Q 40.234375 -1.421875 26.90625 -1.421875 
Q 22.3125 -1.421875 17.546875 -0.640625 
Q 12.796875 0.140625 7.71875 1.703125 
L 7.71875 11.625 
Q 12.109375 9.234375 16.796875 8.0625 
Q 21.484375 6.890625 26.703125 6.890625 
Q 35.15625 6.890625 40.078125 11.328125 
Q 45.015625 15.765625 45.015625 23.390625 
Q 45.015625 31 40.078125 35.4375 
Q 35.15625 39.890625 26.703125 39.890625 
Q 22.75 39.890625 18.8125 39.015625 
Q 14.890625 38.140625 10.796875 36.28125 
z
" id="DejaVuSans-53"/>
      </defs>
      <g transform="translate(48.810306 75.097409)scale(0.08 -0.08)">
       <use xlink:href="#DejaVuSans-48"/>
       <use x="63.623047" xlink:href="#DejaVuSans-46"/>
       <use x="95.410156" xlink:href="#DejaVuSans-50"/>
       <use x="159.033203" xlink:href="#DejaVuSans-53"/>
      </g>
     </g>
    </g>
    <g id="ytick_3">
     <g id="line2d_19">
      <path clip-path="url(#p8f21a2097d)" d="M 70.122806 52.914898 
L 565.2 52.914898 
" style="fill:none;stroke:#cccccc;stroke-linecap:square;stroke-width:0.8;"/>
     </g>
     <g id="line2d_20">
      <g>
       <use style="stroke:#000000;stroke-width:0.8;" x="70.122806" xlink:href="#mbc61a22c8a" y="52.914898"/>
      </g>
     </g>
     <g id="text_3">
      <!-- 0.50 -->
      <g transform="translate(48.810306 55.954273)scale(0.08 -0.08)">
       <use xlink:href="#DejaVuSans-48"/>
       <use x="63.623047" xlink:href="#DejaVuSans-46"/>
       <use x="95.410156" xlink:href="#DejaVuSans-53"/>
       <use x="159.033203" xlink:href="#DejaVuSans-48"/>
      </g>
     </g>
    </g>
    <g id="ytick_4">
     <g id="line2d_21">
      <path clip-path="url(#p8f21a2097d)" d="M 70.122806 33.771763 
L 565.2 33.771763 
" style="fill:none;stroke:#cccccc;stroke-linecap:square;stroke-width:0.8;"/>
     </g>
     <g id="line2d_22">
      <g>
       <use style="stroke:#000000;stroke-width:0.8;" x="70.122806" xlink:href="#mbc61a22c8a" y="33.771763"/>
      </g>
     </g>
     <g id="text_4">
      <!-- 0.75 -->
      <defs>
       <path d="M 8.203125 72.90625 
L 55.078125 72.90625 
L 55.078125 68.703125 
L 28.609375 0 
L 18.3125 0 
L 43.21875 64.59375 
L 8.203125 64.59375 
z
" id="DejaVuSans-55"/>
      </defs>
      <g transform="translate(48.810306 36.811138)scale(0.08 -0.08)">
       <use xlink:href="#DejaVuSans-48"/>
       <use x="63.623047" xlink:href="#DejaVuSans-46"/>
       <use x="95.410156" xlink:href="#DejaVuSans-55"/>
       <use x="159.033203" xlink:href="#DejaVuSans-53"/>
      </g>
     </g>
    </g>
    <g id="ytick_5">
     <g id="line2d_23">
      <path clip-path="url(#p8f21a2097d)" d="M 70.122806 14.628627 
L 565.2 14.628627 
" style="fill:none;stroke:#cccccc;stroke-linecap:square;stroke-width:0.8;"/>
     </g>
     <g id="line2d_24">
      <g>
       <use style="stroke:#000000;stroke-width:0.8;" x="70.122806" xlink:href="#mbc61a22c8a" y="14.628627"/>
      </g>
     </g>
     <g id="text_5">
      <!-- 1.00 -->
      <defs>
       <path d="M 12.40625 8.296875 
L 28.515625 8.296875 
L 28.515625 63.921875 
L 10.984375 60.40625 
L 10.984375 69.390625 
L 28.421875 72.90625 
L 38.28125 72.90625 
L 38.28125 8.296875 
L 54.390625 8.296875 
L 54.390625 0 
L 12.40625 0 
z
" id="DejaVuSans-49"/>
      </defs>
      <g transform="translate(48.810306 17.668002)scale(0.08 -0.08)">
       <use xlink:href="#DejaVuSans-49"/>
       <use x="63.623047" xlink:href="#DejaVuSans-46"/>
       <use x="95.410156" xlink:href="#DejaVuSans-48"/>
       <use x="159.033203" xlink:href="#DejaVuSans-48"/>
      </g>
     </g>
    </g>
    <g id="text_6">
     <!-- h -->
     <defs>
      <path d="M 54.890625 33.015625 
L 54.890625 0 
L 45.90625 0 
L 45.90625 32.71875 
Q 45.90625 40.484375 42.875 44.328125 
Q 39.84375 48.1875 33.796875 48.1875 
Q 26.515625 48.1875 22.3125 43.546875 
Q 18.109375 38.921875 18.109375 30.90625 
L 18.109375 0 
L 9.078125 0 
L 9.078125 75.984375 
L 18.109375 75.984375 
L 18.109375 46.1875 
Q 21.34375 51.125 25.703125 53.5625 
Q 30.078125 56 35.796875 56 
Q 45.21875 56 50.046875 50.171875 
Q 54.890625 44.34375 54.890625 33.015625 
z
" id="DejaVuSans-104"/>
     </defs>
     <g transform="translate(10.713543 51.251148)scale(0.08 -0.08)">
      <use xlink:href="#DejaVuSans-104"/>
     </g>
    </g>
   </g>
   <g id="patch_3">
    <path d="M 70.122806 95.029796 
L 70.122806 10.8 
" style="fill:none;stroke:#000000;stroke-linecap:square;stroke-linejoin:miter;stroke-width:0.5;"/>
   </g>
   <g id="patch_4">
    <path d="M 565.2 95.029796 
L 565.2 10.8 
" style="fill:none;stroke:#000000;stroke-linecap:square;stroke-linejoin:miter;stroke-width:0.5;"/>
   </g>
   <g id="patch_5">
    <path d="M 70.122806 95.029796 
L 565.2 95.029796 
" style="fill:none;stroke:#000000;stroke-linecap:square;stroke-linejoin:miter;stroke-width:0.5;"/>
   </g>
   <g id="patch_6">
    <path d="M 70.122806 10.8 
L 565.2 10.8 
" style="fill:none;stroke:#000000;stroke-linecap:square;stroke-linejoin:miter;stroke-width:0.5;"/>
   </g>
   <g id="PathCollection_1">
    <defs>
     <path d="M 0 1.118034 
C 0.296506 1.118034 0.580908 1.000231 0.790569 0.790569 
C 1.000231 0.580908 1.118034 0.296506 1.118034 0 
C 1.118034 -0.296506 1.000231 -0.580908 0.790569 -0.790569 
C 0.580908 -1.000231 0.296506 -1.118034 0 -1.118034 
C -0.296506 -1.118034 -0.580908 -1.000231 -0.790569 -0.790569 
C -1.000231 -0.580908 -1.118034 -0.296506 -1.118034 0 
C -1.118034 0.296506 -1.000231 0.580908 -0.790569 0.790569 
C -0.580908 1.000231 -0.296506 1.118034 0 1.118034 
z
" id="mc06c907207" style="stroke:#0000ff;"/>
    </defs>
    <g clip-path="url(#p8f21a2097d)">
     <use style="fill:#0000ff;stroke:#0000ff;" x="70.122806" xlink:href="#mc06c907207" y="14.628627"/>
     <use style="fill:#0000ff;stroke:#0000ff;" x="86.40824" xlink:href="#mc06c907207" y="18.008922"/>
     <use style="fill:#0000ff;stroke:#0000ff;" x="102.693674" xlink:href="#mc06c907207" y="28.900983"/>
     <use style="fill:#0000ff;stroke:#0000ff;" x="118.979108" xlink:href="#mc06c907207" y="47.304811"/>
     <use style="fill:#0000ff;stroke:#0000ff;" x="135.264542" xlink:href="#mc06c907207" y="73.220405"/>
     <use style="fill:#0000ff;stroke:#0000ff;" x="145.035803" xlink:href="#mc06c907207" y="91.201169"/>
     <use style="fill:#0000ff;stroke:#0000ff;" x="161.321237" xlink:href="#mc06c907207" y="70.393576"/>
     <use style="fill:#0000ff;stroke:#0000ff;" x="177.606671" xlink:href="#mc06c907207" y="57.09775"/>
     <use style="fill:#0000ff;stroke:#0000ff;" x="193.892105" xlink:href="#mc06c907207" y="51.31369"/>
     <use style="fill:#0000ff;stroke:#0000ff;" x="210.177539" xlink:href="#mc06c907207" y="53.041396"/>
     <use style="fill:#0000ff;stroke:#0000ff;" x="226.462973" xlink:href="#mc06c907207" y="62.280869"/>
     <use style="fill:#0000ff;stroke:#0000ff;" x="242.748407" xlink:href="#mc06c907207" y="79.032108"/>
     <use style="fill:#0000ff;stroke:#0000ff;" x="252.519667" xlink:href="#mc06c907207" y="91.201169"/>
     <use style="fill:#0000ff;stroke:#0000ff;" x="268.805101" xlink:href="#mc06c907207" y="76.808594"/>
     <use style="fill:#0000ff;stroke:#0000ff;" x="285.090535" xlink:href="#mc06c907207" y="69.927862"/>
     <use style="fill:#0000ff;stroke:#0000ff;" x="301.375969" xlink:href="#mc06c907207" y="70.55882"/>
     <use style="fill:#0000ff;stroke:#0000ff;" x="317.661403" xlink:href="#mc06c907207" y="78.701621"/>
     <use style="fill:#0000ff;stroke:#0000ff;" x="332.318294" xlink:href="#mc06c907207" y="91.201169"/>
     <use style="fill:#0000ff;stroke:#0000ff;" x="348.603728" xlink:href="#mc06c907207" y="81.257076"/>
     <use style="fill:#0000ff;stroke:#0000ff;" x="364.889162" xlink:href="#mc06c907207" y="78.824749"/>
     <use style="fill:#0000ff;stroke:#0000ff;" x="381.174596" xlink:href="#mc06c907207" y="83.904242"/>
     <use style="fill:#0000ff;stroke:#0000ff;" x="392.5744" xlink:href="#mc06c907207" y="91.201169"/>
     <use style="fill:#0000ff;stroke:#0000ff;" x="408.859834" xlink:href="#mc06c907207" y="84.453045"/>
     <use style="fill:#0000ff;stroke:#0000ff;" x="425.145268" xlink:href="#mc06c907207" y="85.216696"/>
     <use style="fill:#0000ff;stroke:#0000ff;" x="438.173615" xlink:href="#mc06c907207" y="91.201169"/>
     <use style="fill:#0000ff;stroke:#0000ff;" x="454.459049" xlink:href="#mc06c907207" y="86.948292"/>
     <use style="fill:#0000ff;stroke:#0000ff;" x="470.744483" xlink:href="#mc06c907207" y="90.207181"/>
     <use style="fill:#0000ff;stroke:#0000ff;" x="474.00157" xlink:href="#mc06c907207" y="91.201169"/>
     <use style="fill:#0000ff;stroke:#0000ff;" x="490.287004" xlink:href="#mc06c907207" y="88.35656"/>
     <use style="fill:#0000ff;stroke:#0000ff;" x="503.315351" xlink:href="#mc06c907207" y="91.201169"/>
     <use style="fill:#0000ff;stroke:#0000ff;" x="519.600785" xlink:href="#mc06c907207" y="89.474068"/>
     <use style="fill:#0000ff;stroke:#0000ff;" x="527.743502" xlink:href="#mc06c907207" y="91.201169"/>
     <use style="fill:#0000ff;stroke:#0000ff;" x="544.028936" xlink:href="#mc06c907207" y="90.269289"/>
     <use style="fill:#0000ff;stroke:#0000ff;" x="548.914566" xlink:href="#mc06c907207" y="91.201169"/>
     <use style="fill:#0000ff;stroke:#0000ff;" x="565.2" xlink:href="#mc06c907207" y="90.764281"/>
    </g>
   </g>
   <g id="line2d_25">
    <path clip-path="url(#p8f21a2097d)" d="M 70.122806 14.628627 
L 86.40824 18.008922 
L 102.693674 28.900983 
L 118.979108 47.304811 
L 135.264542 73.220405 
L 145.035803 91.201169 
L 161.321237 70.393576 
L 177.606671 57.09775 
L 193.892105 51.31369 
L 210.177539 53.041396 
L 226.462973 62.280869 
L 242.748407 79.032108 
L 252.519667 91.201169 
L 268.805101 76.808594 
L 285.090535 69.927862 
L 301.375969 70.55882 
L 317.661403 78.701621 
L 332.318294 91.201169 
L 348.603728 81.257076 
L 364.889162 78.824749 
L 381.174596 83.904242 
L 392.5744 91.201169 
L 408.859834 84.453045 
L 425.145268 85.216696 
L 438.173615 91.201169 
L 454.459049 86.948292 
L 470.744483 90.207181 
L 474.00157 91.201169 
L 490.287004 88.35656 
L 503.315351 91.201169 
L 519.600785 89.474068 
L 527.743502 91.201169 
L 544.028936 90.269289 
L 548.914566 91.201169 
L 565.2 90.764281 
" style="fill:none;stroke:#0000ff;stroke-linecap:square;stroke-width:0.9;"/>
   </g>
  </g>
  <g id="axes_2">
   <g id="patch_7">
    <path d="M 70.122806 191.26 
L 565.2 191.26 
L 565.2 107.030204 
L 70.122806 107.030204 
z
" style="fill:#ffffff;"/>
   </g>
   <g id="matplotlib.axis_3">
    <g id="xtick_8">
     <g id="line2d_26">
      <path clip-path="url(#p2e733a3d1b)" d="M 70.122806 191.26 
L 70.122806 107.030204 
" style="fill:none;stroke:#cccccc;stroke-linecap:square;stroke-width:0.8;"/>
     </g>
     <g id="line2d_27">
      <g>
       <use style="stroke:#000000;stroke-width:0.8;" x="70.122806" xlink:href="#m4c4e39edf6" y="191.26"/>
      </g>
     </g>
     <g id="text_7">
      <!-- 0.0 -->
      <g transform="translate(63.761556 200.83875)scale(0.08 -0.08)">
       <use xlink:href="#DejaVuSans-48"/>
       <use x="63.623047" xlink:href="#DejaVuSans-46"/>
       <use x="95.410156" xlink:href="#DejaVuSans-48"/>
      </g>
     </g>
    </g>
    <g id="xtick_9">
     <g id="line2d_28">
      <path clip-path="url(#p2e733a3d1b)" d="M 151.549976 191.26 
L 151.549976 107.030204 
" style="fill:none;stroke:#cccccc;stroke-linecap:square;stroke-width:0.8;"/>
     </g>
     <g id="line2d_29">
      <g>
       <use style="stroke:#000000;stroke-width:0.8;" x="151.549976" xlink:href="#m4c4e39edf6" y="191.26"/>
      </g>
     </g>
     <g id="text_8">
      <!-- 0.5 -->
      <g transform="translate(145.188726 200.83875)scale(0.08 -0.08)">
       <use xlink:href="#DejaVuSans-48"/>
       <use x="63.623047" xlink:href="#DejaVuSans-46"/>
       <use x="95.410156" xlink:href="#DejaVuSans-53"/>
      </g>
     </g>
    </g>
    <g id="xtick_10">
     <g id="line2d_30">
      <path clip-path="url(#p2e733a3d1b)" d="M 232.977146 191.26 
L 232.977146 107.030204 
" style="fill:none;stroke:#cccccc;stroke-linecap:square;stroke-width:0.8;"/>
     </g>
     <g id="line2d_31">
      <g>
       <use style="stroke:#000000;stroke-width:0.8;" x="232.977146" xlink:href="#m4c4e39edf6" y="191.26"/>
      </g>
     </g>
     <g id="text_9">
      <!-- 1.0 -->
      <g transform="translate(226.615896 200.83875)scale(0.08 -0.08)">
       <use xlink:href="#DejaVuSans-49"/>
       <use x="63.623047" xlink:href="#DejaVuSans-46"/>
       <use x="95.410156" xlink:href="#DejaVuSans-48"/>
      </g>
     </g>
    </g>
    <g id="xtick_11">
     <g id="line2d_32">
      <path clip-path="url(#p2e733a3d1b)" d="M 314.404316 191.26 
L 314.404316 107.030204 
" style="fill:none;stroke:#cccccc;stroke-linecap:square;stroke-width:0.8;"/>
     </g>
     <g id="line2d_33">
      <g>
       <use style="stroke:#000000;stroke-width:0.8;" x="314.404316" xlink:href="#m4c4e39edf6" y="191.26"/>
      </g>
     </g>
     <g id="text_10">
      <!-- 1.5 -->
      <g transform="translate(308.043066 200.83875)scale(0.08 -0.08)">
       <use xlink:href="#DejaVuSans-49"/>
       <use x="63.623047" xlink:href="#DejaVuSans-46"/>
       <use x="95.410156" xlink:href="#DejaVuSans-53"/>
      </g>
     </g>
    </g>
    <g id="xtick_12">
     <g id="line2d_34">
      <path clip-path="url(#p2e733a3d1b)" d="M 395.831486 191.26 
L 395.831486 107.030204 
" style="fill:none;stroke:#cccccc;stroke-linecap:square;stroke-width:0.8;"/>
     </g>
     <g id="line2d_35">
      <g>
       <use style="stroke:#000000;stroke-width:0.8;" x="395.831486" xlink:href="#m4c4e39edf6" y="191.26"/>
      </g>
     </g>
     <g id="text_11">
      <!-- 2.0 -->
      <g transform="translate(389.470236 200.83875)scale(0.08 -0.08)">
       <use xlink:href="#DejaVuSans-50"/>
       <use x="63.623047" xlink:href="#DejaVuSans-46"/>
       <use x="95.410156" xlink:href="#DejaVuSans-48"/>
      </g>
     </g>
    </g>
    <g id="xtick_13">
     <g id="line2d_36">
      <path clip-path="url(#p2e733a3d1b)" d="M 477.258656 191.26 
L 477.258656 107.030204 
" style="fill:none;stroke:#cccccc;stroke-linecap:square;stroke-width:0.8;"/>
     </g>
     <g id="line2d_37">
      <g>
       <use style="stroke:#000000;stroke-width:0.8;" x="477.258656" xlink:href="#m4c4e39edf6" y="191.26"/>
      </g>
     </g>
     <g id="text_12">
      <!-- 2.5 -->
      <g transform="translate(470.897406 200.83875)scale(0.08 -0.08)">
       <use xlink:href="#DejaVuSans-50"/>
       <use x="63.623047" xlink:href="#DejaVuSans-46"/>
       <use x="95.410156" xlink:href="#DejaVuSans-53"/>
      </g>
     </g>
    </g>
    <g id="xtick_14">
     <g id="line2d_38">
      <path clip-path="url(#p2e733a3d1b)" d="M 558.685826 191.26 
L 558.685826 107.030204 
" style="fill:none;stroke:#cccccc;stroke-linecap:square;stroke-width:0.8;"/>
     </g>
     <g id="line2d_39">
      <g>
       <use style="stroke:#000000;stroke-width:0.8;" x="558.685826" xlink:href="#m4c4e39edf6" y="191.26"/>
      </g>
     </g>
     <g id="text_13">
      <!-- 3.0 -->
      <defs>
       <path d="M 40.578125 39.3125 
Q 47.65625 37.796875 51.625 33 
Q 55.609375 28.21875 55.609375 21.1875 
Q 55.609375 10.40625 48.1875 4.484375 
Q 40.765625 -1.421875 27.09375 -1.421875 
Q 22.515625 -1.421875 17.65625 -0.515625 
Q 12.796875 0.390625 7.625 2.203125 
L 7.625 11.71875 
Q 11.71875 9.328125 16.59375 8.109375 
Q 21.484375 6.890625 26.8125 6.890625 
Q 36.078125 6.890625 40.9375 10.546875 
Q 45.796875 14.203125 45.796875 21.1875 
Q 45.796875 27.640625 41.28125 31.265625 
Q 36.765625 34.90625 28.71875 34.90625 
L 20.21875 34.90625 
L 20.21875 43.015625 
L 29.109375 43.015625 
Q 36.375 43.015625 40.234375 45.921875 
Q 44.09375 48.828125 44.09375 54.296875 
Q 44.09375 59.90625 40.109375 62.90625 
Q 36.140625 65.921875 28.71875 65.921875 
Q 24.65625 65.921875 20.015625 65.03125 
Q 15.375 64.15625 9.8125 62.3125 
L 9.8125 71.09375 
Q 15.4375 72.65625 20.34375 73.4375 
Q 25.25 74.21875 29.59375 74.21875 
Q 40.828125 74.21875 47.359375 69.109375 
Q 53.90625 64.015625 53.90625 55.328125 
Q 53.90625 49.265625 50.4375 45.09375 
Q 46.96875 40.921875 40.578125 39.3125 
z
" id="DejaVuSans-51"/>
      </defs>
      <g transform="translate(552.324576 200.83875)scale(0.08 -0.08)">
       <use xlink:href="#DejaVuSans-51"/>
       <use x="63.623047" xlink:href="#DejaVuSans-46"/>
       <use x="95.410156" xlink:href="#DejaVuSans-48"/>
      </g>
     </g>
    </g>
   </g>
   <g id="matplotlib.axis_4">
    <g id="ytick_6">
     <g id="line2d_40">
      <path clip-path="url(#p2e733a3d1b)" d="M 70.122806 188.253011 
L 565.2 188.253011 
" style="fill:none;stroke:#cccccc;stroke-linecap:square;stroke-width:0.8;"/>
     </g>
     <g id="line2d_41">
      <g>
       <use style="stroke:#000000;stroke-width:0.8;" x="70.122806" xlink:href="#mbc61a22c8a" y="188.253011"/>
      </g>
     </g>
     <g id="text_14">
      <!-- −4 -->
      <defs>
       <path d="M 10.59375 35.5 
L 73.1875 35.5 
L 73.1875 27.203125 
L 10.59375 27.203125 
z
" id="DejaVuSans-8722"/>
       <path d="M 37.796875 64.3125 
L 12.890625 25.390625 
L 37.796875 25.390625 
z
M 35.203125 72.90625 
L 47.609375 72.90625 
L 47.609375 25.390625 
L 58.015625 25.390625 
L 58.015625 17.1875 
L 47.609375 17.1875 
L 47.609375 0 
L 37.796875 0 
L 37.796875 17.1875 
L 4.890625 17.1875 
L 4.890625 26.703125 
z
" id="DejaVuSans-52"/>
      </defs>
      <g transform="translate(54.829056 191.292386)scale(0.08 -0.08)">
       <use xlink:href="#DejaVuSans-8722"/>
       <use x="83.789062" xlink:href="#DejaVuSans-52"/>
      </g>
     </g>
    </g>
    <g id="ytick_7">
     <g id="line2d_42">
      <path clip-path="url(#p2e733a3d1b)" d="M 70.122806 166.630961 
L 565.2 166.630961 
" style="fill:none;stroke:#cccccc;stroke-linecap:square;stroke-width:0.8;"/>
     </g>
     <g id="line2d_43">
      <g>
       <use style="stroke:#000000;stroke-width:0.8;" x="70.122806" xlink:href="#mbc61a22c8a" y="166.630961"/>
      </g>
     </g>
     <g id="text_15">
      <!-- −2 -->
      <g transform="translate(54.829056 169.670336)scale(0.08 -0.08)">
       <use xlink:href="#DejaVuSans-8722"/>
       <use x="83.789062" xlink:href="#DejaVuSans-50"/>
      </g>
     </g>
    </g>
    <g id="ytick_8">
     <g id="line2d_44">
      <path clip-path="url(#p2e733a3d1b)" d="M 70.122806 145.008912 
L 565.2 145.008912 
" style="fill:none;stroke:#cccccc;stroke-linecap:square;stroke-width:0.8;"/>
     </g>
     <g id="line2d_45">
      <g>
       <use style="stroke:#000000;stroke-width:0.8;" x="70.122806" xlink:href="#mbc61a22c8a" y="145.008912"/>
      </g>
     </g>
     <g id="text_16">
      <!-- 0 -->
      <g transform="translate(61.532806 148.048287)scale(0.08 -0.08)">
       <use xlink:href="#DejaVuSans-48"/>
      </g>
     </g>
    </g>
    <g id="ytick_9">
     <g id="line2d_46">
      <path clip-path="url(#p2e733a3d1b)" d="M 70.122806 123.386863 
L 565.2 123.386863 
" style="fill:none;stroke:#cccccc;stroke-linecap:square;stroke-width:0.8;"/>
     </g>
     <g id="line2d_47">
      <g>
       <use style="stroke:#000000;stroke-width:0.8;" x="70.122806" xlink:href="#mbc61a22c8a" y="123.386863"/>
      </g>
     </g>
     <g id="text_17">
      <!-- 2 -->
      <g transform="translate(61.532806 126.426238)scale(0.08 -0.08)">
       <use xlink:href="#DejaVuSans-50"/>
      </g>
     </g>
    </g>
    <g id="text_18">
     <!-- v -->
     <defs>
      <path d="M 2.984375 54.6875 
L 12.5 54.6875 
L 29.59375 8.796875 
L 46.6875 54.6875 
L 56.203125 54.6875 
L 35.6875 0 
L 23.484375 0 
z
" id="DejaVuSans-118"/>
     </defs>
     <g transform="translate(10.713543 147.481352)scale(0.08 -0.08)">
      <use xlink:href="#DejaVuSans-118"/>
     </g>
    </g>
   </g>
   <g id="patch_8">
    <path d="M 70.122806 191.26 
L 70.122806 107.030204 
" style="fill:none;stroke:#000000;stroke-linecap:square;stroke-linejoin:miter;stroke-width:0.5;"/>
   </g>
   <g id="patch_9">
    <path d="M 565.2 191.26 
L 565.2 107.030204 
" style="fill:none;stroke:#000000;stroke-linecap:square;stroke-linejoin:miter;stroke-width:0.5;"/>
   </g>
   <g id="patch_10">
    <path d="M 70.122806 191.26 
L 565.2 191.26 
" style="fill:none;stroke:#000000;stroke-linecap:square;stroke-linejoin:miter;stroke-width:0.5;"/>
   </g>
   <g id="patch_11">
    <path d="M 70.122806 107.030204 
L 565.2 107.030204 
" style="fill:none;stroke:#000000;stroke-linecap:square;stroke-linejoin:miter;stroke-width:0.5;"/>
   </g>
   <g id="PathCollection_2">
    <g clip-path="url(#p2e733a3d1b)">
     <use style="fill:#0000ff;stroke:#0000ff;" x="70.122806" xlink:href="#mc06c907207" y="145.008912"/>
     <use style="fill:#0000ff;stroke:#0000ff;" x="86.40824" xlink:href="#mc06c907207" y="155.614527"/>
     <use style="fill:#0000ff;stroke:#0000ff;" x="102.693674" xlink:href="#mc06c907207" y="166.220142"/>
     <use style="fill:#0000ff;stroke:#0000ff;" x="118.979108" xlink:href="#mc06c907207" y="176.825758"/>
     <use style="fill:#0000ff;stroke:#0000ff;" x="135.264542" xlink:href="#mc06c907207" y="187.431373"/>
     <use style="fill:#0000ff;stroke:#0000ff;" x="145.035803" xlink:href="#mc06c907207" y="110.858831"/>
     <use style="fill:#0000ff;stroke:#0000ff;" x="161.321237" xlink:href="#mc06c907207" y="121.464446"/>
     <use style="fill:#0000ff;stroke:#0000ff;" x="177.606671" xlink:href="#mc06c907207" y="132.070061"/>
     <use style="fill:#0000ff;stroke:#0000ff;" x="193.892105" xlink:href="#mc06c907207" y="142.675677"/>
     <use style="fill:#0000ff;stroke:#0000ff;" x="210.177539" xlink:href="#mc06c907207" y="153.281292"/>
     <use style="fill:#0000ff;stroke:#0000ff;" x="226.462973" xlink:href="#mc06c907207" y="163.886907"/>
     <use style="fill:#0000ff;stroke:#0000ff;" x="242.748407" xlink:href="#mc06c907207" y="174.492522"/>
     <use style="fill:#0000ff;stroke:#0000ff;" x="252.519667" xlink:href="#mc06c907207" y="119.915983"/>
     <use style="fill:#0000ff;stroke:#0000ff;" x="268.805101" xlink:href="#mc06c907207" y="130.521598"/>
     <use style="fill:#0000ff;stroke:#0000ff;" x="285.090535" xlink:href="#mc06c907207" y="141.127257"/>
     <use style="fill:#0000ff;stroke:#0000ff;" x="301.375969" xlink:href="#mc06c907207" y="151.732872"/>
     <use style="fill:#0000ff;stroke:#0000ff;" x="317.661403" xlink:href="#mc06c907207" y="162.338444"/>
     <use style="fill:#0000ff;stroke:#0000ff;" x="332.318294" xlink:href="#mc06c907207" y="126.196648"/>
     <use style="fill:#0000ff;stroke:#0000ff;" x="348.603728" xlink:href="#mc06c907207" y="136.802285"/>
     <use style="fill:#0000ff;stroke:#0000ff;" x="364.889162" xlink:href="#mc06c907207" y="147.4079"/>
     <use style="fill:#0000ff;stroke:#0000ff;" x="381.174596" xlink:href="#mc06c907207" y="158.013494"/>
     <use style="fill:#0000ff;stroke:#0000ff;" x="392.5744" xlink:href="#mc06c907207" y="130.708953"/>
     <use style="fill:#0000ff;stroke:#0000ff;" x="408.859834" xlink:href="#mc06c907207" y="141.314547"/>
     <use style="fill:#0000ff;stroke:#0000ff;" x="425.145268" xlink:href="#mc06c907207" y="151.920162"/>
     <use style="fill:#0000ff;stroke:#0000ff;" x="438.173615" xlink:href="#mc06c907207" y="134.231888"/>
     <use style="fill:#0000ff;stroke:#0000ff;" x="454.459049" xlink:href="#mc06c907207" y="144.837504"/>
     <use style="fill:#0000ff;stroke:#0000ff;" x="470.744483" xlink:href="#mc06c907207" y="155.443118"/>
     <use style="fill:#0000ff;stroke:#0000ff;" x="474.00157" xlink:href="#mc06c907207" y="136.220176"/>
     <use style="fill:#0000ff;stroke:#0000ff;" x="490.287004" xlink:href="#mc06c907207" y="146.825791"/>
     <use style="fill:#0000ff;stroke:#0000ff;" x="503.315351" xlink:href="#mc06c907207" y="137.797948"/>
     <use style="fill:#0000ff;stroke:#0000ff;" x="519.600785" xlink:href="#mc06c907207" y="148.403563"/>
     <use style="fill:#0000ff;stroke:#0000ff;" x="527.743502" xlink:href="#mc06c907207" y="138.920694"/>
     <use style="fill:#0000ff;stroke:#0000ff;" x="544.028936" xlink:href="#mc06c907207" y="149.526309"/>
     <use style="fill:#0000ff;stroke:#0000ff;" x="548.914566" xlink:href="#mc06c907207" y="139.619562"/>
     <use style="fill:#0000ff;stroke:#0000ff;" x="565.2" xlink:href="#mc06c907207" y="150.225177"/>
    </g>
   </g>
   <g id="line2d_48">
    <path clip-path="url(#p2e733a3d1b)" d="M 70.122806 145.008912 
L 86.40824 155.614527 
L 102.693674 166.220142 
L 118.979108 176.825758 
L 135.264542 187.431373 
L 145.035803 110.858831 
L 161.321237 121.464446 
L 177.606671 132.070061 
L 193.892105 142.675677 
L 210.177539 153.281292 
L 226.462973 163.886907 
L 242.748407 174.492522 
L 252.519667 119.915983 
L 268.805101 130.521598 
L 285.090535 141.127257 
L 301.375969 151.732872 
L 317.661403 162.338444 
L 332.318294 126.196648 
L 348.603728 136.802285 
L 364.889162 147.4079 
L 381.174596 158.013494 
L 392.5744 130.708953 
L 408.859834 141.314547 
L 425.145268 151.920162 
L 438.173615 134.231888 
L 454.459049 144.837504 
L 470.744483 155.443118 
L 474.00157 136.220176 
L 490.287004 146.825791 
L 503.315351 137.797948 
L 519.600785 148.403563 
L 527.743502 138.920694 
L 544.028936 149.526309 
L 548.914566 139.619562 
L 565.2 150.225177 
" style="fill:none;stroke:#0000ff;stroke-linecap:square;stroke-width:0.9;"/>
   </g>
  </g>
 </g>
 <defs>
  <clipPath id="p8f21a2097d">
   <rect height="84.229796" width="495.077194" x="70.122806" y="10.8"/>
  </clipPath>
  <clipPath id="p2e733a3d1b">
   <rect height="84.229796" width="495.077194" x="70.122806" y="107.030204"/>
  </clipPath>
 </defs>
</svg>
