<?xml version="1.0" encoding="UTF-8" standalone="no"?><!DOCTYPE svg PUBLIC "-//W3C//DTD SVG 1.1//EN" "http://www.w3.org/Graphics/SVG/1.1/DTD/svg11.dtd"><svg width="100%" height="100%" viewBox="0 0 250 135" version="1.1" xmlns="http://www.w3.org/2000/svg" xmlns:xlink="http://www.w3.org/1999/xlink" xml:space="preserve" xmlns:serif="http://www.serif.com/" style="fill-rule:evenodd;clip-rule:evenodd;stroke-linecap:round;stroke-miterlimit:8;"><rect x="4.535" y="20.045" width="240.3" height="109.575" style="fill:url(#_Linear1);"/><rect x="4.535" y="20.045" width="240.3" height="109.575" style="fill:none;stroke:#000;stroke-width:1.13px;"/><path d="M148.535,0.845l0.029,26.193" style="fill:none;stroke:#f00;stroke-width:1.69px;stroke-linecap:butt;stroke-linejoin:round;"/><path d="M151.095,26.192l-2.522,8.44l-2.541,-8.435l5.063,-0.005Z" style="fill:#f00;"/><path d="M37.198,118.707l182.137,0l0,-81.037l-182.137,0l0,81.037Zm183.262,1.125l-184.387,0l0,-83.287l184.387,0l0,83.287Zm-183.825,-0.562l183.263,0l0,-82.163l-183.263,0l0,82.163Zm0,0l183.263,0l0,-82.163l-183.263,0l0,82.163Z" style="fill:#818181;fill-opacity:0.501961;fill-rule:nonzero;"/><rect x="34.385" y="34.857" width="183.262" height="82.162" style="fill:url(#_Linear2);"/><rect x="34.385" y="34.857" width="183.263" height="82.163" style="fill:none;stroke:#339;stroke-width:1.13px;"/><path d="M13.085,85.97l13.594,0" style="fill:none;stroke:#f00;stroke-width:1.69px;stroke-linecap:butt;stroke-linejoin:round;"/><path d="M25.835,83.438l8.438,2.532l-8.438,2.531l0,-5.063Z" style="fill:#f00;"/><path d="M217.648,86.757l14.381,-0.025" style="fill:none;stroke:#339;stroke-width:1.69px;stroke-linecap:butt;stroke-linejoin:round;"/><path d="M231.181,84.202l8.442,2.517l-8.434,2.546l-0.008,-5.063Z" style="fill:#339;"/><path d="M184.765,5.063l0.033,29.344" style="fill:none;stroke:#339;stroke-width:1.69px;stroke-linecap:butt;stroke-linejoin:round;"/><path d="M182.235,5.91l2.525,-5.065l2.537,5.059l-5.062,0.006Z" style="fill:#339;"/><rect x="34.873" y="35.645" width="181.125" height="79.725" style="fill:url(#_Linear3);"/><text x="20.63px" y="77.135px" style="font-family:'Arial-BoldMT', 'Arial', sans-serif;font-weight:700;font-size:8.235px;">u</text><text x="224.75px" y="78.08px" style="font-family:'Arial-BoldMT', 'Arial', sans-serif;font-weight:700;font-size:8.235px;">y</text><g transform="matrix(0.75,0,0,0.75,-109.015,-241.78)"><text x="155.64px" y="361.2px" style="font-family:'ArialMT', 'Arial', sans-serif;font-size:12px;">Enclosing <tspan x="211.105px " y="361.2px ">M</tspan>od</text><text x="234.449px" y="361.2px" style="font-family:'ArialMT', 'Arial', sans-serif;font-size:12px;">e</text><text x="241.023px" y="361.2px" style="font-family:'ArialMT', 'Arial', sans-serif;font-size:12px;">l</text></g><g transform="matrix(0.75,0,0,0.75,-109.015,-241.78)"><text x="405.9px" y="333.84px" style="font-family:'Arial-BoldMT', 'Arial', sans-serif;font-weight:700;font-size:10.98px;">v</text><g transform="matrix(0.996565,0,0,1,0.618536,0)"><text x="180.084px" y="336.764px" style="font-family:'TimesNewRomanPS-ItalicMT', 'Times New Roman', serif;font-style:italic;font-size:11.034px;">t</text></g><g transform="matrix(0.996568,0,0,1,0.628779,0)"><text x="183.204px" y="339.617px" style="font-family:'TimesNewRomanPSMT', 'Times New Roman', serif;font-size:7.022px;">0</text></g><g transform="matrix(0.996565,0,0,1,0.645266,0)"><text x="187.866px" y="336.764px" style="font-family:'TimesNewRomanPSMT', 'Times New Roman', serif;font-size:11.034px;">,</text></g><g transform="matrix(0.996565,0,0,1,0.657681,0)"><text x="191.481px" y="336.764px" style="font-family:'TimesNewRomanPS-BoldMT', 'Times New Roman', serif;font-weight:700;font-size:11.034px;">p</text></g><g transform="matrix(0.996565,0,0,1,0.678686,0)"><text x="197.596px" y="336.764px" style="font-family:'TimesNewRomanPSMT', 'Times New Roman', serif;font-size:11.034px;">,</text></g><g transform="matrix(0.996565,0,0,1,0.69121,0)"><text x="201.242px" y="336.764px" style="font-family:'TimesNewRomanPSMT', 'Times New Roman', serif;font-size:11.034px;">ini</text></g><g transform="matrix(0.996565,0,0,1,0.731082,0)"><text x="212.851px" y="336.764px" style="font-family:'TimesNewRomanPSMT', 'Times New Roman', serif;font-size:11.034px;">t</text></g><g transform="matrix(0.996565,0,0,1,0.742089,0)"><text x="216.056px" y="336.764px" style="font-family:'TimesNewRomanPSMT', 'Times New Roman', serif;font-size:11.034px;">a</text></g><g transform="matrix(0.996565,0,0,1,0.758511,0)"><text x="220.837px" y="336.764px" style="font-family:'TimesNewRomanPSMT', 'Times New Roman', serif;font-size:11.034px;">l</text></g><g transform="matrix(0.996565,0,0,1,0.777857,0)"><text x="226.469px" y="336.764px" style="font-family:'TimesNewRomanPSMT', 'Times New Roman', serif;font-size:11.034px;">v</text></g><g transform="matrix(0.996565,0,0,1,0.796057,0)"><text x="231.768px" y="336.764px" style="font-family:'TimesNewRomanPSMT', 'Times New Roman', serif;font-size:11.034px;">al</text></g><g transform="matrix(0.996565,0,0,1,0.82263,0)"><text x="239.505px" y="336.764px" style="font-family:'TimesNewRomanPSMT', 'Times New Roman', serif;font-size:11.034px;">u</text></g><g transform="matrix(0.996565,0,0,1,0.841515,0)"><text x="245.003px" y="336.764px" style="font-family:'TimesNewRomanPSMT', 'Times New Roman', serif;font-size:11.034px;">e</text></g><g transform="matrix(0.996565,0,0,1,0.857937,0)"><text x="249.784px" y="336.764px" style="font-family:'TimesNewRomanPSMT', 'Times New Roman', serif;font-size:11.034px;">s</text></g><g transform="matrix(0.996565,0,0,1,0.882172,0)"><text x="256.84px" y="336.764px" style="font-family:'TimesNewRomanPSMT', 'Times New Roman', serif;font-size:11.034px;">(<tspan x="260.415px " y="336.764px ">a</tspan></text></g><g transform="matrix(0.996565,0,0,1,0.920366,0)"><text x="267.96px" y="336.764px" style="font-family:'TimesNewRomanPSMT', 'Times New Roman', serif;font-size:11.034px;">subs</text></g><g transform="matrix(0.996565,0,0,1,0.987533,0)"><text x="287.515px" y="336.764px" style="font-family:'TimesNewRomanPSMT', 'Times New Roman', serif;font-size:11.034px;">e</text></g><g transform="matrix(0.996565,0,0,1,1.00395,0)"><text x="292.297px" y="336.764px" style="font-family:'TimesNewRomanPSMT', 'Times New Roman', serif;font-size:11.034px;">t</text></g><g transform="matrix(0.996565,0,0,1,1.02399,0)"><text x="298.128px" y="336.764px" style="font-family:'TimesNewRomanPSMT', 'Times New Roman', serif;font-size:11.034px;">o</text></g><g transform="matrix(0.996565,0,0,1,1.04287,0)"><text x="303.627px" y="336.764px" style="font-family:'TimesNewRomanPSMT', 'Times New Roman', serif;font-size:11.034px;">f</text></g><g transform="matrix(0.996565,0,0,1,1.06499,0)"><text x="310.066px" y="336.764px" style="font-family:'TimesNewRomanPS-BoldMT', 'Times New Roman', serif;font-weight:700;font-size:11.034px;">v</text></g><g transform="matrix(0.996565,0,0,1,1.0849,0)"><text x="315.863px" y="336.764px" style="font-family:'TimesNewRomanPSMT', 'Times New Roman', serif;font-size:11.034px;">(</text></g><g transform="matrix(0.996565,0,0,1,1.09754,0)"><text x="319.544px" y="336.764px" style="font-family:'TimesNewRomanPS-ItalicMT', 'Times New Roman', serif;font-style:italic;font-size:11.034px;">t</text></g><g transform="matrix(0.996568,0,0,1,1.1072,0)"><text x="322.599px" y="339.617px" style="font-family:'TimesNewRomanPSMT', 'Times New Roman', serif;font-size:7.022px;">0</text></g><g transform="matrix(0.996565,0,0,1,1.12457,0)"><text x="327.412px" y="336.764px" style="font-family:'TimesNewRomanPSMT', 'Times New Roman', serif;font-size:11.034px;">)<tspan x="330.986px " y="336.764px ">)</tspan></text></g></g><text x="38.405px" y="45.32px" style="font-family:'Arial-ItalicMT', 'Arial', sans-serif;font-style:italic;font-size:7.515px;">t</text><text x="51.455px" y="45.275px" style="font-family:'ArialMT', 'Arial', sans-serif;font-size:7.515px;">time</text><text x="38.405px" y="55.67px" style="font-family:'Arial-BoldMT', 'Arial', sans-serif;font-weight:700;font-size:7.515px;">p</text><g transform="matrix(0.75,0,0,0.75,-109.015,-241.78)"><text x="213.96px" y="396.54px" style="font-family:'ArialMT', 'Arial', sans-serif;font-size:10.02px;">par</text><text x="228.442px" y="396.54px" style="font-family:'ArialMT', 'Arial', sans-serif;font-size:10.02px;">a</text><text x="233.915px" y="396.54px" style="font-family:'ArialMT', 'Arial', sans-serif;font-size:10.02px;">meters</text><text x="267.321px" y="396.54px" style="font-family:'ArialMT', 'Arial', sans-serif;font-size:10.02px;">o</text><text x="272.794px" y="396.54px" style="font-family:'ArialMT', 'Arial', sans-serif;font-size:10.02px;">f type Real, Integer,</text><text x="363.023px" y="396.54px" style="font-family:'ArialMT', 'Arial', sans-serif;font-size:10.02px;">B</text><text x="369.606px" y="396.54px" style="font-family:'ArialMT', 'Arial', sans-serif;font-size:10.02px;">oo</text><text x="380.751px" y="396.54px" style="font-family:'ArialMT', 'Arial', sans-serif;font-size:10.02px;">le</text><text x="388.35px" y="396.54px" style="font-family:'ArialMT', 'Arial', sans-serif;font-size:10.02px;">a</text><text x="394.023px" y="396.54px" style="font-family:'ArialMT', 'Arial', sans-serif;font-size:10.02px;">n, S</text><text x="411.846px" y="396.54px" style="font-family:'ArialMT', 'Arial', sans-serif;font-size:10.02px;">t</text><text x="414.53px" y="396.54px" style="font-family:'ArialMT', 'Arial', sans-serif;font-size:10.02px;">ring</text></g><text x="38.405px" y="66.02px" style="font-family:'Arial-BoldMT', 'Arial', sans-serif;font-weight:700;font-size:7.515px;">u</text><g transform="matrix(0.75,0,0,0.75,-109.015,-241.78)"><text x="213.96px" y="410.34px" style="font-family:'ArialMT', 'Arial', sans-serif;font-size:10.02px;">inputs of t</text><text x="257.406px" y="410.34px" style="font-family:'ArialMT', 'Arial', sans-serif;font-size:10.02px;">y</text><text x="262.316px" y="410.34px" style="font-family:'ArialMT', 'Arial', sans-serif;font-size:10.02px;">pe Real,</text><text x="302.321px" y="410.34px" style="font-family:'ArialMT', 'Arial', sans-serif;font-size:10.02px;">Integer,</text><text x="338.933px" y="410.34px" style="font-family:'ArialMT', 'Arial', sans-serif;font-size:10.02px;">Boolean, String</text></g><text x="38.405px" y="76.37px" style="font-family:'Arial-BoldMT', 'Arial', sans-serif;font-weight:700;font-size:7.515px;">v</text><g transform="matrix(0.75,0,0,0.75,-109.015,-241.78)"><text x="213.96px" y="424.14px" style="font-family:'ArialMT', 'Arial', sans-serif;font-size:10.02px;">all exposed</text><text x="267.436px" y="424.14px" style="font-family:'ArialMT', 'Arial', sans-serif;font-size:10.02px;">v</text><text x="272.346px" y="424.14px" style="font-family:'ArialMT', 'Arial', sans-serif;font-size:10.02px;">ariables</text></g><text x="38.405px" y="86.72px" style="font-family:'Arial-BoldMT', 'Arial', sans-serif;font-weight:700;font-size:7.515px;">y</text><g transform="matrix(0.75,0,0,0.75,-109.015,-241.78)"><text x="213.96px" y="437.94px" style="font-family:'ArialMT', 'Arial', sans-serif;font-size:10.02px;">outputs of</text><text x="260.753px" y="437.94px" style="font-family:'ArialMT', 'Arial', sans-serif;font-size:10.02px;">t</text><text x="263.436px" y="437.94px" style="font-family:'ArialMT', 'Arial', sans-serif;font-size:10.02px;">ype Real, In</text><text x="316.907px" y="437.94px" style="font-family:'ArialMT', 'Arial', sans-serif;font-size:10.02px;">t</text><text x="319.591px" y="437.94px" style="font-family:'ArialMT', 'Arial', sans-serif;font-size:10.02px;">eger,<tspan x="342.43px " y="437.94px "> </tspan>Boole</text><text x="370.841px" y="437.94px" style="font-family:'ArialMT', 'Arial', sans-serif;font-size:10.02px;">a</text><text x="376.314px" y="437.94px" style="font-family:'ArialMT', 'Arial', sans-serif;font-size:10.02px;">n, S</text><text x="394.137px" y="437.94px" style="font-family:'ArialMT', 'Arial', sans-serif;font-size:10.02px;">t</text><text x="396.821px" y="437.94px" style="font-family:'ArialMT', 'Arial', sans-serif;font-size:10.02px;">ring</text><text x="276.96px" y="457.14px" style="font-family:'ArialMT', 'Arial', sans-serif;font-size:12px;">FMU instance</text><text x="237.24px" y="471.84px" style="font-family:'ArialMT', 'Arial', sans-serif;font-size:10.02px;">(mo</text><text x="254.496px" y="471.84px" style="font-family:'ArialMT', 'Arial', sans-serif;font-size:10.02px;">d</text><text x="259.969px" y="471.84px" style="font-family:'ArialMT', 'Arial', sans-serif;font-size:10.02px;">el exc</text><text x="286.144px" y="471.84px" style="font-family:'ArialMT', 'Arial', sans-serif;font-size:10.02px;">h</text><text x="291.617px" y="471.84px" style="font-family:'ArialMT', 'Arial', sans-serif;font-size:10.02px;">a</text><text x="297.239px" y="471.84px" style="font-family:'ArialMT', 'Arial', sans-serif;font-size:10.02px;">nge or co-si</text><text x="349.59px" y="471.84px" style="font-family:'ArialMT', 'Arial', sans-serif;font-size:10.02px;">m</text><text x="357.837px" y="471.84px" style="font-family:'ArialMT', 'Arial', sans-serif;font-size:10.02px;">ulation)</text></g><defs><linearGradient id="_Linear1" x1="0" y1="0" x2="1" y2="0" gradientUnits="userSpaceOnUse" gradientTransform="matrix(82.7289,181.426,-181.426,82.7289,151.809,-47.1112)"><stop offset="0" style="stop-color:#fff;stop-opacity:1"/><stop offset="1" style="stop-color:#eaeaea;stop-opacity:1"/></linearGradient><linearGradient id="_Linear2" x1="0" y1="0" x2="1" y2="0" gradientUnits="userSpaceOnUse" gradientTransform="matrix(61.3422,136.823,-136.823,61.3422,146.421,-15.3722)"><stop offset="0" style="stop-color:#fff;stop-opacity:1"/><stop offset="1" style="stop-color:#bbe0e3;stop-opacity:1"/></linearGradient><linearGradient id="_Linear3" x1="0" y1="0" x2="1" y2="0" gradientUnits="userSpaceOnUse" gradientTransform="matrix(4.88173e-15,79.7247,-79.7247,4.88173e-15,165.297,35.6447)"><stop offset="0" style="stop-color:#fff;stop-opacity:1"/><stop offset="1" style="stop-color:#bbe0e3;stop-opacity:1"/></linearGradient></defs></svg>