<?xml version="1.0" encoding="UTF-8" standalone="no"?><!DOCTYPE svg PUBLIC "-//W3C//DTD SVG 1.1//EN" "http://www.w3.org/Graphics/SVG/1.1/DTD/svg11.dtd"><svg width="100%" height="100%" viewBox="0 0 296 191" version="1.1" xmlns="http://www.w3.org/2000/svg" xmlns:xlink="http://www.w3.org/1999/xlink" xml:space="preserve" xmlns:serif="http://www.serif.com/" style="fill-rule:evenodd;clip-rule:evenodd;stroke-linecap:round;stroke-miterlimit:8;"><rect x="4.535" y="17.682" width="286.163" height="168.486" style="fill:url(#_Linear1);"/><rect x="4.535" y="17.682" width="286.162" height="168.488" style="fill:none;stroke:#000;stroke-width:1.13px;"/><rect x="38.285" y="34.482" width="219.075" height="143.25" style="fill:#bbe0e3;stroke:#000080;stroke-width:1.13px;"/><path d="M138.335,0.845l0.029,26.193" style="fill:none;stroke:#f00;stroke-width:1.69px;stroke-linecap:butt;stroke-linejoin:round;"/><path d="M140.895,26.192l-2.522,8.441l-2.541,-8.436l5.063,-0.005Z" style="fill:#f00;"/><path d="M16.723,102.357l13.593,0.024" style="fill:none;stroke:#f00;stroke-width:1.69px;stroke-linecap:butt;stroke-linejoin:round;"/><path d="M29.477,99.848l8.433,2.546l-8.442,2.517l0.009,-5.063Z" style="fill:#f00;"/><path d="M257.36,105.47l14.381,-0.025" style="fill:none;stroke:#339;stroke-width:1.69px;stroke-linecap:butt;stroke-linejoin:round;"/><path d="M270.893,102.915l8.442,2.517l-8.433,2.545l-0.009,-5.062Z" style="fill:#339;"/><path d="M170.065,5.063l0.033,29.344" style="fill:none;stroke:#339;stroke-width:1.69px;stroke-linecap:butt;stroke-linejoin:round;"/><path d="M167.535,5.91l2.525,-5.065l2.537,5.059l-5.062,0.006Z" style="fill:#339;"/><rect x="63.935" y="150.884" width="157.837" height="14.134" style="fill:url(#_Linear2);"/><rect x="63.935" y="150.882" width="157.837" height="14.138" style="fill:none;stroke:#008000;stroke-width:0.38px;"/><rect x="45.785" y="42.732" width="202.5" height="87.636" style="fill:url(#_Linear3);"/><rect x="45.785" y="42.732" width="202.5" height="87.637" style="fill:none;stroke:#5c7f93;stroke-width:0.38px;"/><text x="261.283px" y="98.495px" style="font-family:'Arial-BoldMT', 'Arial', sans-serif;font-weight:700;font-size:8.235px;">y</text><text x="21.163px" y="30.635px" style="font-family:'ArialMT', 'Arial', sans-serif;font-size:9px;">Co-Simulation Master</text><text x="175.468px" y="10.835px" style="font-family:'Arial-BoldMT', 'Arial', sans-serif;font-weight:700;font-size:8.235px;">v</text><text x="131.143px" y="161.405px" style="font-family:'ArialMT', 'Arial', sans-serif;font-size:8.235px;">Solver</text><text x="51.358px" y="52.595px" style="font-family:'Arial-ItalicMT', 'Arial', sans-serif;font-style:italic;font-size:7.515px;">t</text><g transform="matrix(0.75,0,0,0.75,-95.2525,-320.005)"><text x="212.88px" y="496.74px" style="font-family:'ArialMT', 'Arial', sans-serif;font-size:10.02px;">time</text><text x="195.48px" y="508.32px" style="font-family:'Arial-BoldMT', 'Arial', sans-serif;font-weight:700;font-size:10.02px;">m</text><text x="212.88px" y="508.26px" style="font-family:'ArialMT', 'Arial', sans-serif;font-size:10.02px;">discrete sta</text><text x="264.115px" y="508.26px" style="font-family:'ArialMT', 'Arial', sans-serif;font-size:10.02px;">t<tspan x="266.799px " y="508.26px ">e</tspan></text><text x="272.272px" y="508.26px" style="font-family:'ArialMT', 'Arial', sans-serif;font-size:10.02px;">s (co</text><text x="293.985px" y="508.26px" style="font-family:'ArialMT', 'Arial', sans-serif;font-size:10.02px;">n</text><text x="299.558px" y="508.26px" style="font-family:'ArialMT', 'Arial', sans-serif;font-size:10.02px;">stant</text><text x="324.064px" y="508.26px" style="font-family:'ArialMT', 'Arial', sans-serif;font-size:10.02px;">b</text><text x="329.537px" y="508.26px" style="font-family:'ArialMT', 'Arial', sans-serif;font-size:10.02px;">etwe</text><text x="350.702px" y="508.26px" style="font-family:'ArialMT', 'Arial', sans-serif;font-size:10.02px;">e</text><text x="356.175px" y="508.26px" style="font-family:'ArialMT', 'Arial', sans-serif;font-size:10.02px;">n even</text><text x="386.259px" y="508.26px" style="font-family:'ArialMT', 'Arial', sans-serif;font-size:10.02px;">t</text><text x="388.943px" y="508.26px" style="font-family:'ArialMT', 'Arial', sans-serif;font-size:10.02px;">s</text><text x="393.953px" y="508.26px" style="font-family:'ArialMT', 'Arial', sans-serif;font-size:10.02px;">)</text><text x="195.48px" y="519.78px" style="font-family:'Arial-BoldMT', 'Arial', sans-serif;font-weight:700;font-size:10.02px;">p</text></g><g transform="matrix(0.75,0,0,0.75,-95.2525,-320.005)"><text x="212.88px" y="519.72px" style="font-family:'ArialMT', 'Arial', sans-serif;font-size:10.02px;">par</text><text x="227.362px" y="519.72px" style="font-family:'ArialMT', 'Arial', sans-serif;font-size:10.02px;">a</text><text x="232.835px" y="519.72px" style="font-family:'ArialMT', 'Arial', sans-serif;font-size:10.02px;">meters</text><text x="266.241px" y="519.72px" style="font-family:'ArialMT', 'Arial', sans-serif;font-size:10.02px;">o</text><text x="271.714px" y="519.72px" style="font-family:'ArialMT', 'Arial', sans-serif;font-size:10.02px;">f type Real, Integer,</text><text x="361.943px" y="519.72px" style="font-family:'ArialMT', 'Arial', sans-serif;font-size:10.02px;">B</text><text x="368.526px" y="519.72px" style="font-family:'ArialMT', 'Arial', sans-serif;font-size:10.02px;">oo</text><text x="379.671px" y="519.72px" style="font-family:'ArialMT', 'Arial', sans-serif;font-size:10.02px;">l</text><text x="381.797px" y="519.72px" style="font-family:'ArialMT', 'Arial', sans-serif;font-size:10.02px;">e</text><text x="387.37px" y="519.72px" style="font-family:'ArialMT', 'Arial', sans-serif;font-size:10.02px;">an, String</text></g><text x="51.358px" y="78.47px" style="font-family:'Arial-BoldMT', 'Arial', sans-serif;font-weight:700;font-size:7.515px;">u</text><g transform="matrix(0.75,0,0,0.75,-95.2525,-320.005)"><text x="212.88px" y="531.24px" style="font-family:'ArialMT', 'Arial', sans-serif;font-size:10.02px;">inputs of t</text><text x="256.326px" y="531.24px" style="font-family:'ArialMT', 'Arial', sans-serif;font-size:10.02px;">y</text><text x="261.236px" y="531.24px" style="font-family:'ArialMT', 'Arial', sans-serif;font-size:10.02px;">pe Real,</text><text x="301.341px" y="531.24px" style="font-family:'ArialMT', 'Arial', sans-serif;font-size:10.02px;">I</text><text x="304.024px" y="531.24px" style="font-family:'ArialMT', 'Arial', sans-serif;font-size:10.02px;">nteger,</text><text x="337.903px" y="531.24px" style="font-family:'ArialMT', 'Arial', sans-serif;font-size:10.02px;">Boolean, S</text><text x="386.927px" y="531.24px" style="font-family:'ArialMT', 'Arial', sans-serif;font-size:10.02px;">t</text><text x="389.611px" y="531.24px" style="font-family:'ArialMT', 'Arial', sans-serif;font-size:10.02px;">ring</text></g><text x="51.358px" y="87.11px" style="font-family:'Arial-BoldMT', 'Arial', sans-serif;font-weight:700;font-size:7.515px;">v</text><g transform="matrix(0.75,0,0,0.75,-95.2525,-320.005)"><text x="212.88px" y="542.76px" style="font-family:'ArialMT', 'Arial', sans-serif;font-size:10.02px;">all exposed</text><text x="266.356px" y="542.76px" style="font-family:'ArialMT', 'Arial', sans-serif;font-size:10.02px;">v</text><text x="271.266px" y="542.76px" style="font-family:'ArialMT', 'Arial', sans-serif;font-size:10.02px;">ariables</text></g><text x="51.358px" y="95.705px" style="font-family:'Arial-BoldMT', 'Arial', sans-serif;font-weight:700;font-size:7.515px;">x</text><g transform="matrix(0.75,0,0,0.75,-95.2525,-320.005)"><text x="212.88px" y="554.22px" style="font-family:'ArialMT', 'Arial', sans-serif;font-size:10.02px;">conti</text><text x="234.045px" y="554.22px" style="font-family:'ArialMT', 'Arial', sans-serif;font-size:10.02px;">n</text><text x="239.518px" y="554.22px" style="font-family:'ArialMT', 'Arial', sans-serif;font-size:10.02px;">uo</text><text x="250.663px" y="554.22px" style="font-family:'ArialMT', 'Arial', sans-serif;font-size:10.02px;">u</text><text x="256.236px" y="554.22px" style="font-family:'ArialMT', 'Arial', sans-serif;font-size:10.02px;">s s</text><text x="269.04px" y="554.22px" style="font-family:'ArialMT', 'Arial', sans-serif;font-size:10.02px;">t</text><text x="271.724px" y="554.22px" style="font-family:'ArialMT', 'Arial', sans-serif;font-size:10.02px;">ates (conti</text><text x="317.949px" y="554.22px" style="font-family:'ArialMT', 'Arial', sans-serif;font-size:10.02px;">n</text><text x="323.421px" y="554.22px" style="font-family:'ArialMT', 'Arial', sans-serif;font-size:10.02px;">u</text><text x="329.044px" y="554.22px" style="font-family:'ArialMT', 'Arial', sans-serif;font-size:10.02px;">ous</text><text x="347.983px" y="554.22px" style="font-family:'ArialMT', 'Arial', sans-serif;font-size:10.02px;">b</text><text x="353.456px" y="554.22px" style="font-family:'ArialMT', 'Arial', sans-serif;font-size:10.02px;">etw</text><text x="369.048px" y="554.22px" style="font-family:'ArialMT', 'Arial', sans-serif;font-size:10.02px;">e</text><text x="374.621px" y="554.22px" style="font-family:'ArialMT', 'Arial', sans-serif;font-size:10.02px;">en even</text><text x="410.278px" y="554.22px" style="font-family:'ArialMT', 'Arial', sans-serif;font-size:10.02px;">t</text><text x="412.962px" y="554.22px" style="font-family:'ArialMT', 'Arial', sans-serif;font-size:10.02px;">s)</text></g><text x="51.358px" y="104.345px" style="font-family:'Arial-BoldMT', 'Arial', sans-serif;font-weight:700;font-size:7.515px;">y</text><g transform="matrix(0.75,0,0,0.75,-95.2525,-320.005)"><text x="212.88px" y="565.74px" style="font-family:'ArialMT', 'Arial', sans-serif;font-size:10.02px;">outputs of</text><text x="259.673px" y="565.74px" style="font-family:'ArialMT', 'Arial', sans-serif;font-size:10.02px;">t</text><text x="262.356px" y="565.74px" style="font-family:'ArialMT', 'Arial', sans-serif;font-size:10.02px;">ype Real, In</text><text x="315.827px" y="565.74px" style="font-family:'ArialMT', 'Arial', sans-serif;font-size:10.02px;">t</text><text x="318.511px" y="565.74px" style="font-family:'ArialMT', 'Arial', sans-serif;font-size:10.02px;">eger,<tspan x="341.35px " y="565.74px "> </tspan>Boole</text><text x="369.761px" y="565.74px" style="font-family:'ArialMT', 'Arial', sans-serif;font-size:10.02px;">a</text><text x="375.234px" y="565.74px" style="font-family:'ArialMT', 'Arial', sans-serif;font-size:10.02px;">n, S</text><text x="393.057px" y="565.74px" style="font-family:'ArialMT', 'Arial', sans-serif;font-size:10.02px;">t</text><text x="395.741px" y="565.74px" style="font-family:'ArialMT', 'Arial', sans-serif;font-size:10.02px;">ring</text></g><text x="51.358px" y="112.985px" style="font-family:'Arial-BoldMT', 'Arial', sans-serif;font-weight:700;font-size:7.515px;">z</text><g transform="matrix(0.75,0,0,0.75,-95.2525,-320.005)"><text x="212.88px" y="577.26px" style="font-family:'ArialMT', 'Arial', sans-serif;font-size:10.02px;">event indica</text><text x="266.356px" y="577.26px" style="font-family:'ArialMT', 'Arial', sans-serif;font-size:10.02px;">t</text><text x="269.04px" y="577.26px" style="font-family:'ArialMT', 'Arial', sans-serif;font-size:10.02px;">ors</text></g><text x="135.778px" y="125.54px" style="font-family:'ArialMT', 'Arial', sans-serif;font-size:8.235px;">Model</text><g transform="matrix(0.75,0,0,0.75,-95.2525,-320.005)"><text x="268.62px" y="440.58px" style="font-family:'ArialMT', 'Arial', sans-serif;font-size:10.98px;">t</text><text x="271.671px" y="442.08px" style="font-family:'ArialMT', 'Arial', sans-serif;font-size:7.02px;">0</text><text x="275.575px" y="440.58px" style="font-family:'ArialMT', 'Arial', sans-serif;font-size:10.98px;">,</text><text x="281.676px" y="440.58px" style="font-family:'Arial-BoldMT', 'Arial', sans-serif;font-weight:700;font-size:10.98px;">p, v</text><text x="300.591px" y="442.08px" style="font-family:'Arial-BoldMT', 'Arial', sans-serif;font-weight:700;font-size:7.02px;">0</text></g><g><clipPath id="_clip4"><rect x="53.293" y="166.804" width="183.69" height="8.056" clip-rule="nonzero"/></clipPath><g clip-path="url(#_clip4)"><g transform="matrix(0.75,0,0,0.75,-95.2525,-320.005)"><text x="231.3px" y="659.28px" style="font-family:'ArialMT', 'Arial', sans-serif;font-size:10.98px;">Co-Simulation</text><text x="303.408px" y="659.28px" style="font-family:'ArialMT', 'Arial', sans-serif;font-size:10.98px;">Slave (FMU Inst</text><text x="382.112px" y="659.28px" style="font-family:'ArialMT', 'Arial', sans-serif;font-size:10.98px;">a</text><text x="388.319px" y="659.28px" style="font-family:'ArialMT', 'Arial', sans-serif;font-size:10.98px;">nce)</text></g></g></g><g transform="matrix(0.75,0,0,0.75,-95.2525,-320.005)"><text x="289.86px" y="617.34px" style="font-family:'Arial-BoldMT', 'Arial', sans-serif;font-weight:700;font-size:10.98px;">x</text><text x="236.88px" y="618.48px" style="font-family:'Arial-ItalicMT', 'Arial', sans-serif;font-style:italic;font-size:10.98px;">t</text></g><g transform="matrix(0.75,0,0,0.75,-95.2525,-320.005)"><g transform="matrix(1.00263,0,0,1,-0.965199,0)"><text x="367.377px" y="617.43px" style="font-family:'TimesNewRomanPS-BoldMT', 'Times New Roman', serif;font-weight:700;font-size:11px;">x</text></g><g transform="matrix(1.00263,0,0,1,-0.979819,0)"><text x="372.941px" y="617.43px" style="font-family:'TimesNewRomanPSMT', 'Times New Roman', serif;font-size:11px;">,</text></g><g transform="matrix(1.00263,0,0,1,-0.990092,0)"><text x="376.852px" y="617.43px" style="font-family:'TimesNewRomanPS-BoldMT', 'Times New Roman', serif;font-weight:700;font-size:11px;">z</text></g></g><text x="180.942px" y="142.597px" style="font-family:'MT-Extra', '';font-size:8.25px;"></text><text x="19.678px" y="95.885px" style="font-family:'Arial-BoldMT', 'Arial', sans-serif;font-weight:700;font-size:8.235px;">u</text><path d="M131.548,151.07l-0.379,-12.997" style="fill:none;stroke:#f00;stroke-width:1.69px;stroke-linecap:butt;stroke-linejoin:round;"/><path d="M128.664,138.99l2.283,-8.508l2.777,8.36l-5.06,0.148Z" style="fill:#f00;"/><path d="M137.698,130.782l0.141,12.695" style="fill:none;stroke:#339;stroke-width:1.69px;stroke-linecap:butt;stroke-linejoin:round;"/><path d="M140.36,142.605l-2.438,8.465l-2.624,-8.409l5.062,-0.056Z" style="fill:#339;"/><path d="M175.46,130.557l0.165,12.92" style="fill:none;stroke:#339;stroke-width:1.69px;stroke-linecap:butt;stroke-linejoin:round;"/><path d="M178.146,142.601l-2.423,8.469l-2.639,-8.405l5.062,-0.064Z" style="fill:#339;"/><path d="M90.073,150.507l-0.091,-11.569" style="fill:none;stroke:#f00;stroke-width:1.69px;stroke-linecap:butt;stroke-linejoin:round;"/><path d="M87.458,139.802l2.464,-8.457l2.598,8.417l-5.062,0.04Z" style="fill:#f00;"/><defs><linearGradient id="_Linear1" x1="0" y1="0" x2="1" y2="0" gradientUnits="userSpaceOnUse" gradientTransform="matrix(147.33,250.228,-250.228,147.33,183.355,-87.6041)"><stop offset="0" style="stop-color:#eaeaea;stop-opacity:1"/><stop offset="1" style="stop-color:#eaeaea;stop-opacity:1"/></linearGradient><linearGradient id="_Linear2" x1="0" y1="0" x2="1" y2="0" gradientUnits="userSpaceOnUse" gradientTransform="matrix(2.51235,28.053,-28.053,2.51235,144.088,143.697)"><stop offset="0" style="stop-color:#ff9;stop-opacity:1"/><stop offset="1" style="stop-color:#ff9;stop-opacity:1"/></linearGradient><linearGradient id="_Linear3" x1="0" y1="0" x2="1" y2="0" gradientUnits="userSpaceOnUse" gradientTransform="matrix(63.8892,147.623,-147.623,63.8892,168.901,-10.5497)"><stop offset="0" style="stop-color:#8db3e2;stop-opacity:1"/><stop offset="1" style="stop-color:#8db3e2;stop-opacity:1"/></linearGradient></defs></svg>