<?xml version="1.0" encoding="UTF-8" standalone="no"?>
<!DOCTYPE svg PUBLIC "-//W3C//DTD SVG 1.1//EN" "http://www.w3.org/Graphics/SVG/1.1/DTD/svg11.dtd">
<svg width="100%" height="100%" viewBox="0 0 380 134" version="1.1" xmlns="http://www.w3.org/2000/svg" xmlns:xlink="http://www.w3.org/1999/xlink" xml:space="preserve" xmlns:serif="http://www.serif.com/" style="fill-rule:evenodd;clip-rule:evenodd;stroke-linejoin:round;stroke-miterlimit:2;">
    <g transform="matrix(1,0,0,1,-3.6098,-3.65115)">
        <g id="FMI">
            <g transform="matrix(1,0,0,-1,0,265.852)">
                <path d="M3.75,128.543L3.75,137.309L22.711,137.305L29.625,131.317L36.859,137.305L172.883,137.305L172.883,128.543L3.75,128.543Z" style="fill:rgb(204,25,58);fill-rule:nonzero;"/>
            </g>
            <g transform="matrix(1,0,0,1,-0.558201,-0.0988471)">
                <g transform="matrix(1,0,0,-1,0,135.012)">
                    <path d="M134.832,36.375L134.832,73.074C134.832,79.571 131.535,84.262 125.035,87.016C123.059,87.477 121.664,87.672 120.574,87.672C114.816,87.672 110.383,84.719 107.391,78.899C106.625,76.926 106.262,74.571 106.262,71.789L106.34,36.375L95.527,36.375L95.445,73.805C95.445,80.508 91.855,87.672 81.773,87.672C69.75,87.672 67.047,77.313 67.047,73.688L67.047,36.375L56.234,36.375L56.289,72.805C56.289,89.121 65.406,98.477 81.305,98.477C88.52,98.477 94.852,95.606 100.129,89.942L100.949,89.059L101.762,89.953C106.984,95.711 113.461,98.637 121.012,98.637C145.363,98.637 145.645,75.239 145.645,74.246L145.645,36.375L134.832,36.375Z" style="fill:rgb(42,55,65);fill-rule:nonzero;"/>
                </g>
                <g transform="matrix(1,0,0,-1,0,160.792)">
                    <rect x="161.914" y="62.152" width="10.953" height="36.488" style="fill:rgb(42,55,65);"/>
                </g>
                <g transform="matrix(1,0,0,-1,0,90.863)">
                    <rect x="161.934" y="38.445" width="10.953" height="13.973" style="fill:rgb(42,55,65);"/>
                </g>
                <g transform="matrix(1,0,0,-1,0,132.531)">
                    <path d="M24.461,8.242L24.461,85.187L4.168,85.187L4.379,95.996L24.461,95.996L24.461,103.093C24.461,111.093 27.434,117.957 33.289,123.492C35.441,125.125 37.848,126.461 40.352,127.398C43.23,128.289 46.586,128.758 50.266,128.781L50.266,117.965C43.234,117.898 38.688,115.308 36.75,110.261C35.77,107.683 35.273,105.273 35.273,103.093L35.273,95.996L56.289,95.996C52.211,92.222 49.953,87.109 49.207,85.187L35.273,85.187L35.273,8.261L29.656,3.75L24.461,8.242Z" style="fill:rgb(42,55,65);fill-rule:nonzero;"/>
                </g>
                <g transform="matrix(1,0,0,-1,0,99.833)">
                    <path d="M215.121,51.716L225.813,51.716L225.813,48.778L215.121,48.778L215.121,37.063L212.039,37.063L212.039,62.77L226.547,62.77L226.547,59.833L215.121,59.833L215.121,51.716Z" style="fill:rgb(42,55,65);fill-rule:nonzero;"/>
                </g>
                <g transform="matrix(1,0,0,-1,0,109.012)">
                    <path d="M232.055,52.301L232.055,63.211L235.141,63.211L235.141,52.817C235.141,49.914 236.941,48.664 239.219,48.664C242.082,48.664 243.441,51.457 243.441,51.457L243.441,63.211L246.527,63.211L246.527,46.242L243.66,46.242L243.66,48.848C243.66,48.848 242.117,45.801 238.445,45.801C235.066,45.801 232.055,48.117 232.055,52.301" style="fill:rgb(42,55,65);fill-rule:nonzero;"/>
                </g>
                <g transform="matrix(1,0,0,-1,84.8992,146.25)">
                    <path d="M232.055,52.301L232.055,63.211L235.141,63.211L235.141,52.817C235.141,49.914 236.941,48.664 239.219,48.664C242.082,48.664 243.441,51.457 243.441,51.457L243.441,63.211L246.527,63.211L246.527,46.242L243.66,46.242L243.66,48.848C243.66,48.848 242.117,45.801 238.445,45.801C235.066,45.801 232.055,48.117 232.055,52.301" style="fill:rgb(42,55,65);fill-rule:nonzero;"/>
                </g>
                <g transform="matrix(1,0,0,-1,0,108.129)">
                    <path d="M267.168,56.266L267.168,45.359L264.082,45.359L264.082,55.754C264.082,58.656 262.285,59.902 260.008,59.902C257.254,59.902 255.781,57.039 255.781,57.039L255.781,45.359L252.699,45.359L252.699,62.328L255.563,62.328L255.563,59.941C255.563,59.941 257.105,62.77 260.777,62.77C264.156,62.77 267.168,60.453 267.168,56.266" style="fill:rgb(42,55,65);fill-rule:nonzero;"/>
                </g>
                <g transform="matrix(1,0,0,-1,0,108.57)">
                    <path d="M287.848,48.629C287.848,48.629 285.387,45.359 280.906,45.359C275.91,45.359 272.164,49.289 272.164,54.285C272.164,59.242 275.91,63.211 280.906,63.211C285.238,63.211 287.664,60.16 287.664,60.16L285.57,58.289C285.57,58.289 283.918,60.343 280.906,60.343C277.492,60.343 275.25,57.625 275.25,54.285C275.25,50.941 277.492,48.222 280.906,48.222C284.211,48.222 285.863,50.648 285.863,50.648L287.848,48.629Z" style="fill:rgb(42,55,65);fill-rule:nonzero;"/>
                </g>
                <g transform="matrix(1,0,0,-1,0,103.832)">
                    <path d="M290.859,58.031L294.164,58.031L294.164,63.211L297.25,63.211L297.25,58.031L302.539,58.031L302.539,55.238L297.25,55.238L297.25,46.094C297.25,44.441 298.059,43.488 299.711,43.488C300.668,43.488 301.66,44.184 301.66,44.184L302.797,41.648C301.328,40.84 300.262,40.621 299.27,40.621C296.848,40.621 294.164,42.199 294.164,45.949L294.164,55.238L290.859,55.238L290.859,58.031Z" style="fill:rgb(42,55,65);fill-rule:nonzero;"/>
                </g>
                <g transform="matrix(1,0,0,-1,0,101.043)">
                    <path d="M308.16,55.242L311.246,55.242L311.246,38.273L308.16,38.273L308.16,55.242ZM309.703,62.77C310.84,62.77 311.797,61.816 311.797,60.676C311.797,59.539 310.84,58.582 309.703,58.582C308.563,58.582 307.609,59.539 307.609,60.676C307.609,61.816 308.563,62.77 309.703,62.77" style="fill:rgb(42,55,65);fill-rule:nonzero;"/>
                </g>
                <g transform="matrix(1,0,0,-1,0,108.57)">
                    <path d="M331.188,54.285C331.188,57.625 328.949,60.343 325.531,60.343C322.117,60.343 319.875,57.625 319.875,54.285C319.875,50.941 322.117,48.222 325.531,48.222C328.949,48.222 331.188,50.941 331.188,54.285M334.273,54.285C334.273,49.289 330.527,45.359 325.531,45.359C320.539,45.359 316.793,49.289 316.793,54.285C316.793,59.281 320.539,63.211 325.531,63.211C330.527,63.211 334.273,59.281 334.273,54.285" style="fill:rgb(42,55,65);fill-rule:nonzero;"/>
                </g>
                <g transform="matrix(1,0,0,-1,0,108.129)">
                    <path d="M353.742,56.266L353.742,45.359L350.656,45.359L350.656,55.754C350.656,58.656 348.855,59.902 346.578,59.902C343.824,59.902 342.355,57.039 342.355,57.039L342.355,45.359L339.27,45.359L339.27,62.328L342.137,62.328L342.137,59.941C342.137,59.941 343.676,62.77 347.352,62.77C350.73,62.77 353.742,60.453 353.742,56.266" style="fill:rgb(42,55,65);fill-rule:nonzero;"/>
                </g>
                <g transform="matrix(1,0,0,-1,0,108.57)">
                    <path d="M370.93,50.648L370.93,53.035C370.93,53.035 369.242,54.246 366.488,54.246C363.844,54.246 362.191,52.925 362.191,51.164C362.191,48.961 364.172,48.078 366.082,48.078C369.094,48.078 370.93,50.648 370.93,50.648M374.016,56.965L374.016,45.8L371.188,45.8L371.188,48.261C371.188,48.261 369.277,45.359 365.422,45.359C362.375,45.359 359.105,47.488 359.105,51.164C359.105,54.468 362.008,56.82 365.828,56.82C368.949,56.82 370.93,55.422 370.93,55.422L370.93,56.34C370.93,59.867 367.992,60.343 366.633,60.343C364.063,60.343 361.566,58.914 361.566,58.914L360.281,61.484C360.281,61.484 362.926,63.211 366.633,63.211C371.629,63.211 374.016,60.125 374.016,56.965" style="fill:rgb(42,55,65);fill-rule:nonzero;"/>
                </g>
                <g transform="matrix(1,0,0,-1,0,97.774)">
                    <rect x="380.848" y="35.004" width="3.086" height="27.766" style="fill:rgb(42,55,65);"/>
                </g>
                <g transform="matrix(1,0,0,-1,0,174.265)">
                    <path d="M215.121,99.988L223.973,85.624L232.789,99.988L235.766,99.988L235.766,74.277L232.68,74.277L232.68,94.406L223.902,80.117L215.121,94.367L215.121,74.277L212.039,74.277L212.039,99.988L215.121,99.988Z" style="fill:rgb(42,55,65);fill-rule:nonzero;"/>
                </g>
                <g transform="matrix(1,0,0,-1,0,183.008)">
                    <path d="M255.82,91.504C255.82,94.848 253.578,97.567 250.164,97.567C246.746,97.567 244.508,94.848 244.508,91.504C244.508,88.16 246.746,85.445 250.164,85.445C253.578,85.445 255.82,88.16 255.82,91.504M258.906,91.504C258.906,86.512 255.156,82.578 250.164,82.578C245.168,82.578 241.422,86.512 241.422,91.504C241.422,96.5 245.168,100.43 250.164,100.43C255.156,100.43 258.906,96.5 258.906,91.504" style="fill:rgb(42,55,65);fill-rule:nonzero;"/>
                </g>
                <g transform="matrix(1,0,0,-1,0,183.008)">
                    <path d="M278.41,85.848C278.41,85.848 275.949,82.578 271.469,82.578C266.473,82.578 262.727,86.508 262.727,91.504C262.727,96.461 266.473,100.43 271.469,100.43C275.801,100.43 278.227,97.379 278.227,97.379L276.133,95.508C276.133,95.508 274.48,97.567 271.469,97.567C268.051,97.567 265.813,94.848 265.813,91.504C265.813,88.16 268.051,85.445 271.469,85.445C274.773,85.445 276.426,87.867 276.426,87.867L278.41,85.848Z" style="fill:rgb(42,55,65);fill-rule:nonzero;"/>
                </g>
                <g transform="matrix(1,0,0,-1,0,172.207)">
                    <path d="M286.637,80.449L286.637,72.219L283.551,72.219L283.551,99.988L286.637,99.988L286.637,81.66L293.906,89.187L297.949,89.187L290.016,81.18L298.609,72.219L294.313,72.219L286.637,80.449Z" style="fill:rgb(42,55,65);fill-rule:nonzero;"/>
                </g>
                <g transform="matrix(1,0,0,-1,0,182.056)">
                    <rect x="301.367" y="89.559" width="9.805" height="2.938" style="fill:rgb(42,55,65);"/>
                </g>
                <g transform="matrix(1,0,0,-1,-5.1568,191.05)">
                    <path d="M345.516,96.352C345.516,96.352 347.133,93.449 350.512,93.449C353.961,93.449 356.129,96.164 356.129,99.508C356.129,102.852 353.961,105.571 350.512,105.571C347.133,105.571 345.516,102.668 345.516,102.668L345.516,96.352ZM345.258,107.992L345.258,105.532C345.258,105.532 346.949,108.434 350.988,108.434C355.578,108.434 359.215,104.504 359.215,99.508C359.215,94.512 355.578,90.582 350.988,90.582C347.867,90.582 346.102,92.348 345.516,93.117L345.516,82.578L342.43,82.578L342.43,107.992L345.258,107.992Z" style="fill:rgb(42,55,65);fill-rule:nonzero;"/>
                </g>
                <g transform="matrix(1,0,0,-1,0,248.699)">
                    <rect x="212.551" y="111.496" width="3.086" height="25.707" style="fill:rgb(42,55,65);"/>
                </g>
                <g transform="matrix(1,0,0,-1,0,257)">
                    <path d="M237.453,130.703L237.453,119.797L234.367,119.797L234.367,130.187C234.367,133.09 232.57,134.34 230.293,134.34C227.539,134.34 226.066,131.473 226.066,131.473L226.066,119.797L222.984,119.797L222.984,136.766L225.848,136.766L225.848,134.375C225.848,134.375 227.391,137.203 231.063,137.203C234.441,137.203 237.453,134.891 237.453,130.703" style="fill:rgb(42,55,65);fill-rule:nonzero;"/>
                </g>
                <g transform="matrix(1,0,0,-1,0,252.704)">
                    <path d="M242.156,132.47L245.461,132.47L245.461,137.645L248.547,137.645L248.547,132.47L253.836,132.47L253.836,129.677L248.547,129.677L248.547,120.528C248.547,118.876 249.355,117.923 251.008,117.923C251.961,117.923 252.953,118.622 252.953,118.622L254.094,116.087C252.621,115.278 251.559,115.059 250.566,115.059C248.141,115.059 245.461,116.638 245.461,120.384L245.461,129.677L242.156,129.677L242.156,132.47Z" style="fill:rgb(42,55,65);fill-rule:nonzero;"/>
                </g>
                <g transform="matrix(1,0,0,-1,0,257.442)">
                    <path d="M271.465,130.192C271.355,132.098 269.629,134.782 266.215,134.782C262.539,134.782 261.035,131.954 260.816,130.192L271.465,130.192ZM274.477,128.61C274.477,128.282 274.477,128.024 274.441,127.618L260.742,127.618C260.926,125.047 263.387,122.661 266.582,122.661C269.922,122.661 271.688,125.161 271.688,125.161L273.633,123.137C273.633,123.137 271.063,119.797 266.582,119.797C261.438,119.797 257.73,123.688 257.73,128.719C257.73,133.68 261.109,137.645 266.215,137.645C270.953,137.645 274.477,134.083 274.477,128.61" style="fill:rgb(42,55,65);fill-rule:nonzero;"/>
                </g>
                <g transform="matrix(1,0,0,-1,0,257.004)">
                    <path d="M289.535,136.77L288.398,133.977C288.398,133.977 287.738,134.344 286.453,134.344C283.77,134.344 282.559,131.481 282.559,131.481L282.559,119.797L279.473,119.797L279.473,136.77L282.34,136.77L282.34,134.16C282.34,134.16 283.844,137.207 287.074,137.207C288.473,137.207 289.535,136.77 289.535,136.77" style="fill:rgb(42,55,65);fill-rule:nonzero;"/>
                </g>
                <g transform="matrix(1,0,0,-1,0,246.207)">
                    <path d="M291.816,125.973L295.34,125.973L295.34,131.809C295.34,135.41 298.133,137.207 300.555,137.207C301.547,137.207 302.648,137.027 304.117,136.219L302.98,133.684C302.98,133.684 301.953,134.344 300.996,134.344C299.344,134.344 298.426,133.281 298.426,131.625L298.426,125.973L302.836,125.973L302.836,123.18L298.426,123.18L298.426,109L295.34,109L295.34,123.18L291.816,123.18L291.816,125.973Z" style="fill:rgb(42,55,65);fill-rule:nonzero;"/>
                </g>
                <g transform="matrix(1,0,0,-1,0,257.442)">
                    <path d="M318.223,125.087L318.223,127.473C318.223,127.473 316.535,128.684 313.777,128.684C311.133,128.684 309.48,127.36 309.48,125.598C309.48,123.395 311.465,122.516 313.375,122.516C316.387,122.516 318.223,125.087 318.223,125.087M321.309,131.403L321.309,120.235L318.48,120.235L318.48,122.696C318.48,122.696 316.57,119.797 312.715,119.797C309.664,119.797 306.398,121.926 306.398,125.598C306.398,128.903 309.297,131.254 313.117,131.254C316.238,131.254 318.223,129.86 318.223,129.86L318.223,130.778C318.223,134.305 315.285,134.782 313.926,134.782C311.355,134.782 308.855,133.348 308.855,133.348L307.57,135.919C307.57,135.919 310.215,137.645 313.926,137.645C318.922,137.645 321.309,134.563 321.309,131.403" style="fill:rgb(42,55,65);fill-rule:nonzero;"/>
                </g>
                <g transform="matrix(1,0,0,-1,0,257.442)">
                    <path d="M341.988,123.067C341.988,123.067 339.527,119.797 335.047,119.797C330.051,119.797 326.305,123.727 326.305,128.719C326.305,133.68 330.051,137.645 335.047,137.645C339.379,137.645 341.805,134.598 341.805,134.598L339.711,132.723C339.711,132.723 338.059,134.782 335.047,134.782C331.629,134.782 329.391,132.063 329.391,128.719C329.391,125.379 331.629,122.661 335.047,122.661C338.352,122.661 340.004,125.087 340.004,125.087L341.988,123.067Z" style="fill:rgb(42,55,65);fill-rule:nonzero;"/>
                </g>
                <g transform="matrix(1,0,0,-1,0,257.442)">
                    <path d="M359.031,130.192C358.922,132.098 357.195,134.782 353.777,134.782C350.105,134.782 348.598,131.954 348.379,130.192L359.031,130.192ZM362.043,128.61C362.043,128.282 362.043,128.024 362.004,127.618L348.305,127.618C348.488,125.047 350.949,122.661 354.145,122.661C357.488,122.661 359.25,125.161 359.25,125.161L361.195,123.137C361.195,123.137 358.625,119.797 354.145,119.797C349.004,119.797 345.293,123.688 345.293,128.719C345.293,133.68 348.672,137.645 353.777,137.645C358.516,137.645 362.043,134.083 362.043,128.61" style="fill:rgb(42,55,65);fill-rule:nonzero;"/>
                </g>
            </g>
        </g>
    </g>
</svg>
