<?xml version="1.0" encoding="UTF-8" standalone="no"?><!DOCTYPE svg PUBLIC "-//W3C//DTD SVG 1.1//EN" "http://www.w3.org/Graphics/SVG/1.1/DTD/svg11.dtd"><svg width="100%" height="100%" viewBox="0 0 1809 603" version="1.1" xmlns="http://www.w3.org/2000/svg" xmlns:xlink="http://www.w3.org/1999/xlink" xml:space="preserve" xmlns:serif="http://www.serif.com/" style="fill-rule:evenodd;clip-rule:evenodd;stroke-linejoin:round;stroke-miterlimit:1.41421;"><path d="M1381,439.696c0,9.807 7.96,17.769 17.765,17.769c9.805,0 17.766,-7.962 17.766,-17.769c0,-9.807 -7.961,-17.769 -17.766,-17.769c-9.805,0 -17.765,7.962 -17.765,17.769Z" style="fill:url(#_Radial1);"/><path d="M1028.06,296.543l0,25.032l33.097,0l0,12.981l-33.097,0l0,34.39l-14.628,0l0,-85.743l52.287,0l0,13.34l-37.659,0Z" style="fill:#00376f;fill-rule:nonzero;"/><path d="M1150.64,336.079c0,5.459 -0.822,10.312 -2.453,14.562c-1.647,4.254 -3.947,7.838 -6.903,10.763c-2.969,2.919 -6.572,5.144 -10.822,6.666c-4.25,1.518 -9.028,2.281 -14.328,2.281c-10.757,0 -19.129,-2.928 -25.085,-8.772c-5.972,-5.85 -8.959,-14.35 -8.959,-25.5l0,-52.875l14.625,0l0,51.822c0,7.409 1.715,12.928 5.144,16.553c3.434,3.625 8.268,5.437 14.509,5.437c6.162,0 10.972,-1.834 14.444,-5.5c3.475,-3.662 5.203,-9.162 5.203,-16.49l0,-51.822l14.625,0l0,52.875Z" style="fill:#00376f;fill-rule:nonzero;"/><path d="M1241.29,370.585l-53.693,-56.612l0,54.975l-14.616,0l0,-86.91l2.337,-0.468l52.988,55.793l0,-54.159l14.622,0l0,87.031l-1.638,0.35Z" style="fill:#00376f;fill-rule:nonzero;"/><path d="M1337.56,362.281c-3.587,2.263 -7.8,4.172 -12.631,5.729c-4.838,1.562 -9.947,2.34 -15.325,2.34c-6.781,0 -13.003,-1.112 -18.656,-3.331c-5.654,-2.222 -10.529,-5.303 -14.625,-9.241c-4.091,-3.937 -7.275,-8.597 -9.532,-13.978c-2.259,-5.384 -3.393,-11.272 -3.393,-17.662c0,-6.316 1.15,-12.188 3.45,-17.603c2.3,-5.425 5.5,-10.122 9.596,-14.1c4.091,-3.975 8.966,-7.079 14.619,-9.297c5.66,-2.222 11.835,-3.335 18.541,-3.335c5.378,0 10.412,0.738 15.09,2.225c4.675,1.478 8.844,3.35 12.516,5.613l-5.031,12.397c-3.431,-1.944 -7.135,-3.528 -11.11,-4.735c-3.981,-1.209 -7.878,-1.812 -11.696,-1.812c-4.685,0 -8.894,0.737 -12.635,2.219c-3.744,1.484 -6.919,3.568 -9.537,6.259c-2.607,2.691 -4.619,5.925 -6.025,9.706c-1.4,3.785 -2.103,7.938 -2.103,12.463c0,4.522 0.725,8.653 2.171,12.393c1.432,3.747 3.482,6.963 6.132,9.65c2.65,2.697 5.872,4.785 9.65,6.26c3.784,1.481 8.015,2.225 12.7,2.225c3.815,0 7.79,-0.622 11.928,-1.872c4.128,-1.25 7.953,-2.888 11.456,-4.916l4.45,12.403Z" style="fill:#00376f;fill-rule:nonzero;"/><path d="M1390.54,296.543l0,72.403l-14.618,0l0,-72.403l-27.253,0l0,-13.34l69.015,0l0,13.34l-27.144,0Z" style="fill:#00376f;fill-rule:nonzero;"/><rect x="1435.23" y="283.205" width="14.622" height="85.744" style="fill:#00376f;"/><path d="M1541.9,326.136c0,-4.447 -0.682,-8.578 -2.044,-12.4c-1.366,-3.816 -3.259,-7.137 -5.675,-9.941c-2.416,-2.812 -5.319,-4.99 -8.716,-6.553c-3.397,-1.559 -7.118,-2.337 -11.172,-2.337c-4.053,0 -7.8,0.778 -11.231,2.337c-3.425,1.563 -6.35,3.741 -8.772,6.553c-2.409,2.804 -4.303,6.125 -5.668,9.941c-1.363,3.822 -2.05,7.953 -2.05,12.4c0,4.444 0.687,8.578 2.05,12.397c1.365,3.819 3.259,7.119 5.668,9.884c2.422,2.772 5.347,4.953 8.772,6.553c3.431,1.597 7.178,2.397 11.231,2.397c4.054,0 7.775,-0.8 11.172,-2.397c3.397,-1.6 6.3,-3.781 8.716,-6.553c2.416,-2.765 4.309,-6.065 5.675,-9.884c1.362,-3.819 2.044,-7.953 2.044,-12.397m15.675,0c0,6.316 -1.107,12.181 -3.332,17.603c-2.225,5.422 -5.306,10.1 -9.246,14.038c-3.938,3.94 -8.554,7.018 -13.854,9.24c-5.306,2.219 -11.075,3.332 -17.315,3.332c-6.163,0 -11.869,-1.113 -17.141,-3.332c-5.256,-2.222 -9.8,-5.3 -13.625,-9.24c-3.819,-3.938 -6.803,-8.616 -8.944,-14.038c-2.146,-5.422 -3.215,-11.287 -3.215,-17.603c0,-6.394 1.106,-12.303 3.331,-17.725c2.225,-5.416 5.3,-10.094 9.244,-14.031c3.931,-3.941 8.578,-7.022 13.912,-9.241c5.347,-2.225 11.097,-3.337 17.253,-3.337c6.244,0 11.972,1.112 17.197,3.337c5.228,2.219 9.75,5.3 13.569,9.241c3.819,3.937 6.803,8.615 8.95,14.031c2.141,5.422 3.216,11.331 3.216,17.725" style="fill:#00376f;fill-rule:nonzero;"/><path d="M1646.36,370.585l-53.693,-56.612l0,54.975l-14.619,0l0,-86.91l2.34,-0.468l52.985,55.793l0,-54.159l14.625,0l0,87.031l-1.638,0.35Z" style="fill:#00376f;fill-rule:nonzero;"/><path d="M1702.04,309.059l-12.166,28.656l24.331,0l-12.165,-28.656Zm25.265,59.887l-8.303,-19.653l-33.922,0l-8.303,19.653l-15.094,0l39.535,-86.906l2.109,0l39.419,86.906l-15.441,0Z" style="fill:#00376f;fill-rule:nonzero;"/><path d="M1756.42,368.946l0,-85.743l14.625,0l0,72.406l37.659,0l0,13.337l-52.284,0Z" style="fill:#00376f;fill-rule:nonzero;"/><path d="M1084.79,484l-1.166,-51.35l-27.025,40.938l-1.753,0l-27.256,-41.056l-0.938,51.468l-14.387,0l3.628,-86.79l2.222,-0.238l38.019,56.85l37.075,-56.85l2.343,0.238l3.625,86.79l-14.387,0Z" style="fill:#00376f;fill-rule:nonzero;"/><path d="M1189.47,441.19c0,-4.446 -0.684,-8.575 -2.047,-12.4c-1.365,-3.815 -3.256,-7.137 -5.678,-9.94c-2.412,-2.81 -5.318,-4.991 -8.706,-6.55c-3.397,-1.563 -7.122,-2.341 -11.175,-2.341c-4.059,0 -7.8,0.778 -11.228,2.341c-3.428,1.559 -6.353,3.74 -8.772,6.55c-2.419,2.803 -4.306,6.125 -5.678,9.94c-1.363,3.825 -2.047,7.954 -2.047,12.4c0,4.444 0.684,8.579 2.047,12.397c1.372,3.822 3.259,7.119 5.678,9.885c2.419,2.775 5.344,4.953 8.772,6.553c3.428,1.597 7.169,2.397 11.228,2.397c4.053,0 7.778,-0.8 11.175,-2.397c3.388,-1.6 6.294,-3.778 8.706,-6.553c2.422,-2.766 4.313,-6.063 5.678,-9.885c1.363,-3.818 2.047,-7.953 2.047,-12.397m15.675,0c0,6.316 -1.112,12.182 -3.334,17.607c-2.219,5.418 -5.309,10.097 -9.241,14.037c-3.94,3.938 -8.556,7.016 -13.856,9.241c-5.309,2.215 -11.075,3.328 -17.319,3.328c-6.159,0 -11.872,-1.113 -17.134,-3.328c-5.263,-2.225 -9.803,-5.303 -13.628,-9.241c-3.822,-3.94 -6.803,-8.619 -8.947,-14.037c-2.15,-5.425 -3.219,-11.291 -3.219,-17.607c0,-6.39 1.113,-12.303 3.338,-17.725c2.225,-5.415 5.3,-10.09 9.24,-14.031c3.935,-3.937 8.578,-7.022 13.916,-9.24c5.341,-2.222 11.1,-3.338 17.253,-3.338c6.238,0 11.972,1.116 17.2,3.338c5.219,2.218 9.744,5.303 13.559,9.24c3.825,3.941 6.807,8.616 8.95,14.031c2.15,5.422 3.222,11.335 3.222,17.725" style="fill:#00376f;fill-rule:nonzero;"/><path d="M1296.85,477.335c-3.582,2.263 -7.794,4.175 -12.632,5.729c-4.831,1.562 -9.943,2.34 -15.325,2.34c-6.781,0 -13.003,-1.112 -18.656,-3.328c-5.653,-2.225 -10.525,-5.306 -14.619,-9.241c-4.09,-3.94 -7.275,-8.6 -9.537,-13.981c-2.253,-5.384 -3.388,-11.272 -3.388,-17.662c0,-6.316 1.15,-12.188 3.45,-17.603c2.3,-5.425 5.5,-10.122 9.591,-14.1c4.097,-3.975 8.969,-7.079 14.619,-9.297c5.659,-2.219 11.834,-3.335 18.54,-3.335c5.382,0 10.419,0.741 15.097,2.225c4.675,1.482 8.844,3.35 12.51,5.616l-5.032,12.394c-3.425,-1.944 -7.128,-3.528 -11.106,-4.732c-3.975,-1.212 -7.875,-1.815 -11.7,-1.815c-4.678,0 -8.887,0.74 -12.631,2.219c-3.747,1.484 -6.919,3.568 -9.535,6.262c-2.612,2.688 -4.618,5.925 -6.025,9.703c-1.4,3.785 -2.109,7.938 -2.109,12.463c0,4.525 0.725,8.653 2.172,12.393c1.437,3.747 3.487,6.963 6.137,9.65c2.654,2.697 5.866,4.785 9.65,6.263c3.785,1.478 8.016,2.222 12.694,2.222c3.819,0 7.8,-0.622 11.928,-1.872c4.128,-1.25 7.953,-2.884 11.463,-4.913l4.444,12.4Z" style="fill:#00376f;fill-rule:nonzero;"/><path d="M1364.11,484l-35.09,-41.171l0,41.171l-14.622,0l0,-85.74l14.622,0l0,38.603l33.687,-38.603l17.659,0l-37.431,41.172l39.306,44.568l-18.131,0Z" style="fill:#00376f;fill-rule:nonzero;"/><path d="M1504.47,451.133c0,5.46 -0.816,10.313 -2.453,14.563c-1.641,4.253 -3.938,7.837 -6.903,10.762c-2.96,2.919 -6.572,5.144 -10.822,6.666c-4.25,1.519 -9.028,2.281 -14.328,2.281c-10.757,0 -19.122,-2.928 -25.085,-8.772c-5.972,-5.85 -8.953,-14.35 -8.953,-25.5l0,-52.872l14.625,0l0,51.819c0,7.413 1.709,12.928 5.144,16.553c3.434,3.625 8.265,5.438 14.509,5.438c6.156,0 10.972,-1.835 14.444,-5.5c3.469,-3.66 5.203,-9.16 5.203,-16.491l0,-51.819l14.619,0l0,52.872Z" style="fill:#00376f;fill-rule:nonzero;"/><path d="M1568.93,427.04c0,-2.113 -0.372,-4.113 -1.116,-6.029c-0.74,-1.909 -1.853,-3.603 -3.331,-5.087c-1.478,-1.478 -3.353,-2.65 -5.615,-3.513c-2.26,-0.853 -4.872,-1.284 -7.838,-1.284c-3.353,0 -6.55,0.234 -9.591,0.7l0,31.353c1.482,0.16 2.888,0.272 4.213,0.35c1.328,0.078 2.65,0.113 3.975,0.113c6.628,0 11.503,-1.538 14.625,-4.616c3.112,-3.081 4.678,-7.078 4.678,-11.987m15.203,-0.472c0,4.368 -0.759,8.384 -2.275,12.05c-1.531,3.662 -3.728,6.803 -6.612,9.415c-2.885,2.613 -6.46,4.66 -10.707,6.141c-4.253,1.481 -9.103,2.225 -14.559,2.225c-1.403,0 -2.834,-0.041 -4.275,-0.119c-1.441,-0.075 -2.866,-0.156 -4.266,-0.234l0,27.956l-14.625,0l0,-84.919c7.644,-0.937 14.894,-1.406 21.763,-1.406c5.847,0 10.994,0.759 15.434,2.281c4.45,1.516 8.172,3.588 11.175,6.2c3,2.613 5.247,5.669 6.725,9.182c1.478,3.509 2.222,7.25 2.222,11.228" style="fill:#00376f;fill-rule:nonzero;"/><rect x="1014.02" y="508.111" width="14.625" height="85.744" style="fill:#e7440b;"/><path d="M1120.93,595.49l-53.691,-56.612l0,54.978l-14.621,0l0,-86.909l2.34,-0.472l52.991,55.797l0,-54.16l14.612,0l0,87.028l-1.631,0.35Z" style="fill:#e7440b;fill-rule:nonzero;"/><path d="M1179.07,521.449l0,72.406l-14.625,0l0,-72.406l-27.253,0l0,-13.338l69.012,0l0,13.338l-27.134,0Z" style="fill:#e7440b;fill-rule:nonzero;"/><path d="M1218.48,593.855l0,-85.744l52.285,0l0,13.338l-37.66,0l0,22.459l34.035,0l0,12.866l-34.035,0l0,23.74l37.66,0l0,13.341l-52.285,0Z" style="fill:#e7440b;fill-rule:nonzero;"/><path d="M1332.65,535.252c0,-4.363 -1.569,-7.897 -4.685,-10.588c-3.115,-2.687 -7.487,-4.037 -13.1,-4.037c-1.793,0 -3.512,0.043 -5.143,0.118c-1.644,0.082 -3.2,0.275 -4.685,0.585l0,29.24c1.325,0.16 2.71,0.275 4.157,0.354c1.434,0.081 2.859,0.118 4.265,0.118c6.394,0 11.191,-1.406 14.391,-4.212c3.2,-2.806 4.8,-6.666 4.8,-11.578m4.206,58.603l-18.719,-30.881c-0.784,0.078 -1.515,0.112 -2.218,0.112l-2.344,0c-1.4,0 -2.825,-0.016 -4.266,-0.053c-1.447,-0.038 -2.869,-0.1 -4.272,-0.175l0,30.997l-14.618,0l0,-84.922c3.428,-0.388 6.956,-0.722 10.581,-0.997c3.625,-0.272 7.625,-0.409 11.997,-0.409c6.078,0 11.328,0.703 15.728,2.109c4.406,1.4 8.053,3.313 10.934,5.728c2.888,2.422 5.013,5.263 6.375,8.538c1.372,3.278 2.047,6.828 2.047,10.647c0,5.615 -1.444,10.568 -4.325,14.856c-2.884,4.287 -7.022,7.603 -12.4,9.94l22.456,34.51l-16.956,0Z" style="fill:#e7440b;fill-rule:nonzero;"/><path d="M1385.99,521.449l0,25.031l33.1,0l0,12.981l-33.1,0l0,34.394l-14.625,0l0,-85.744l52.288,0l0,13.338l-37.663,0Z" style="fill:#e7440b;fill-rule:nonzero;"/><path d="M1464.24,533.964l-12.168,28.659l24.334,0l-12.166,-28.659Zm25.266,59.891l-8.303,-19.654l-33.922,0l-8.303,19.654l-15.094,0l39.531,-86.91l2.11,0l39.419,86.91l-15.438,0Z" style="fill:#e7440b;fill-rule:nonzero;"/><path d="M1589.86,587.187c-3.581,2.265 -7.794,4.175 -12.631,5.731c-4.831,1.559 -9.944,2.337 -15.325,2.337c-6.781,0 -13.003,-1.109 -18.656,-3.328c-5.654,-2.225 -10.525,-5.306 -14.619,-9.24c-4.091,-3.938 -7.275,-8.6 -9.538,-13.985c-2.253,-5.381 -3.387,-11.268 -3.387,-17.659c0,-6.316 1.15,-12.188 3.45,-17.603c2.3,-5.425 5.5,-10.122 9.587,-14.1c4.1,-3.975 8.972,-7.078 14.628,-9.3c5.654,-2.216 11.829,-3.331 18.535,-3.331c5.381,0 10.419,0.74 15.094,2.225c4.678,1.481 8.846,3.353 12.512,5.615l-5.031,12.394c-3.425,-1.944 -7.131,-3.525 -11.106,-4.731c-3.979,-1.213 -7.875,-1.819 -11.7,-1.819c-4.679,0 -8.888,0.744 -12.632,2.225c-3.747,1.481 -6.922,3.569 -9.534,6.259c-2.613,2.688 -4.619,5.925 -6.025,9.703c-1.4,3.788 -2.109,7.938 -2.109,12.463c0,4.525 0.725,8.653 2.171,12.394c1.438,3.75 3.488,6.962 6.138,9.653c2.65,2.697 5.866,4.781 9.65,6.259c3.784,1.481 8.016,2.225 12.694,2.225c3.815,0 7.797,-0.625 11.928,-1.875c4.128,-1.247 7.953,-2.884 11.462,-4.912l4.444,12.4Z" style="fill:#e7440b;fill-rule:nonzero;"/><path d="M1607.41,593.855l0,-85.744l52.284,0l0,13.338l-37.663,0l0,22.459l34.038,0l0,12.866l-34.038,0l0,23.74l37.663,0l0,13.341l-52.284,0Z" style="fill:#e7440b;fill-rule:nonzero;"/><path d="M861.594,570.577l-32.122,-28.144l-267.143,0l-34.213,28.178l-31.725,-28.178l-288.6,0l-34.09,28.213l-32.56,-28.213l0,54.932l754.291,0l0,-54.932l-33.838,28.144Z" style="fill:url(#_Radial2);fill-rule:nonzero;"/><path d="M278.201,6.518c-19.585,0 -37.207,2.406 -52.888,7.25c-13.044,4.868 -25.444,11.765 -37.169,20.7c-30.606,28.909 -45.884,64.25 -45.884,106.018l0,29.944l-77.803,0l-23.772,65.131l101.575,0l0,290.897l31.397,27.147l33.769,-27.147l0,-290.897l72.746,0l23.829,-65.131l-96.575,0l0,-29.944c0,-10.237 2.334,-21.556 7.006,-33.843c8.95,-23.307 30.206,-34.96 63.769,-34.96l4.175,0l0,-65.165l-4.175,0Z" style="fill:url(#_Radial3);fill-rule:nonzero;"/><path d="M530.176,214.865c-27.604,-29.638 -60.307,-44.435 -98.166,-44.435c-94.863,0 -130.609,61.806 -130.609,133.91l-0.294,187.69l65.156,0l0,-192.115c0,-15.96 11.509,-64.354 68.106,-64.354c52.516,0 62.803,39.922 62.803,63.797l0,227.128l31.044,27.072l34.125,-27.072l0,-217.075c0,-13.231 1.663,-24.234 5.047,-32.99c13.978,-27.225 34.3,-40.86 60.975,-40.86c5.019,0 11.738,0.957 20.134,2.819c30.375,12.875 45.582,34.413 45.582,64.603l0,189.047l65.165,0l0,-194.9c0,-34.497 -17.997,-127.478 -128.709,-127.478c-39.55,0 -73.506,15.575 -100.359,45.213Z" style="fill:url(#_Radial4);fill-rule:nonzero;"/><path d="M829.501,281.246l0,245.265l32.093,27.047l33.769,-27.047l0,-245.265l-65.862,0Z" style="fill:url(#_Radial5);fill-rule:nonzero;"/><rect x="829.585" y="170.43" width="65.856" height="80.956" style="fill:url(#_Radial6);"/><defs><radialGradient id="_Radial1" cx="0" cy="0" r="1" gradientUnits="userSpaceOnUse" gradientTransform="matrix(26.9937,0,0,26.9937,1393.11,427.781)"><stop offset="0" style="stop-color:#ffe79d;stop-opacity:1"/><stop offset="0.58" style="stop-color:#ed6b00;stop-opacity:1"/><stop offset="1" style="stop-color:#91100e;stop-opacity:1"/></radialGradient><radialGradient id="_Radial2" cx="0" cy="0" r="1" gradientUnits="userSpaceOnUse" gradientTransform="matrix(267.39,0,0,267.176,518.289,569.898)"><stop offset="0" style="stop-color:#ffe79d;stop-opacity:1"/><stop offset="0.58" style="stop-color:#ed6b00;stop-opacity:1"/><stop offset="1" style="stop-color:#91100e;stop-opacity:1"/></radialGradient><radialGradient id="_Radial3" cx="0" cy="0" r="1" gradientUnits="userSpaceOnUse" gradientTransform="matrix(-104.657,-430.261,430.261,-104.657,598.688,582.319)"><stop offset="0" style="stop-color:#0099d9;stop-opacity:1"/><stop offset="0.4" style="stop-color:#0099d9;stop-opacity:1"/><stop offset="1" style="stop-color:#22185b;stop-opacity:1"/></radialGradient><radialGradient id="_Radial4" cx="0" cy="0" r="1" gradientUnits="userSpaceOnUse" gradientTransform="matrix(-104.607,-430.054,430.054,-104.607,598.691,575.971)"><stop offset="0" style="stop-color:#0099d9;stop-opacity:1"/><stop offset="0.4" style="stop-color:#0099d9;stop-opacity:1"/><stop offset="1" style="stop-color:#22185b;stop-opacity:1"/></radialGradient><radialGradient id="_Radial5" cx="0" cy="0" r="1" gradientUnits="userSpaceOnUse" gradientTransform="matrix(-104.647,-430.22,430.22,-104.647,598.677,574.174)"><stop offset="0" style="stop-color:#0099d9;stop-opacity:1"/><stop offset="0.4" style="stop-color:#0099d9;stop-opacity:1"/><stop offset="1" style="stop-color:#22185b;stop-opacity:1"/></radialGradient><radialGradient id="_Radial6" cx="0" cy="0" r="1" gradientUnits="userSpaceOnUse" gradientTransform="matrix(0,-335.801,335.801,0,527.13,243.516)"><stop offset="0" style="stop-color:#0099d9;stop-opacity:1"/><stop offset="0.4" style="stop-color:#0099d9;stop-opacity:1"/><stop offset="1" style="stop-color:#22185b;stop-opacity:1"/></radialGradient></defs></svg>