<?xml version="1.0" encoding="utf-8"?>
<!-- Generator: Adobe Illustrator 15.0.0, SVG Export Plug-In . SVG Version: 6.00 Build 0)  -->
<!DOCTYPE svg PUBLIC "-//W3C//DTD SVG 1.1//EN" "http://www.w3.org/Graphics/SVG/1.1/DTD/svg11.dtd">
<svg version="1.1" id="Ebene_1" xmlns="http://www.w3.org/2000/svg" xmlns:xlink="http://www.w3.org/1999/xlink" x="0px" y="0px"
	 width="867.9px" height="272.726px" viewBox="-23.4 -11.226 867.9 272.726" enable-background="new -23.4 -11.226 867.9 272.726"
	 xml:space="preserve">
<rect x="25.5" y="25.5" fill="#969696" width="204" height="204"/>
<polygon opacity="0.59" fill="#FFFFFF" stroke="#00007F" stroke-width="5" points="25.5,229.5 25.5,25.5 229.5,127.5 "/>
<polygon fill="#00007F" stroke="#00007F" points="-15.3,107.1 25.5,127.5 -15.3,147.9 "/>
<polygon fill="#FFFFFF" stroke="#00007F" points="229.5,117.3 249.9,127.5 229.5,137.7 "/>
<rect x="-5" y="-5" fill="none" stroke="#000000" stroke-width="3" stroke-miterlimit="10" stroke-dasharray="6" width="265" height="265"/>
<rect x="-21.9" y="98.75" fill="none" stroke="#000000" stroke-width="3" stroke-miterlimit="10" stroke-dasharray="3" width="54" height="57.5"/>
<rect x="224.831" y="111.667" fill="none" stroke="#000000" stroke-width="3" stroke-miterlimit="10" stroke-dasharray="3" width="29.738" height="31.666"/>
<g>
	<path d="M304.282-7.736h5.716c2.686,0,4.628,0.402,5.827,1.205s1.8,2.071,1.8,3.806c0,1.2-0.335,2.189-1.004,2.969
		c-0.669,0.78-1.645,1.285-2.927,1.516v0.139c3.072,0.526,4.608,2.141,4.608,4.844c0,1.809-0.611,3.22-1.834,4.235
		s-2.932,1.522-5.128,1.522h-7.059V-7.736z M306.635,0.929h3.876c1.661,0,2.855-0.26,3.585-0.782c0.729-0.521,1.093-1.4,1.093-2.637
		c0-1.135-0.406-1.954-1.218-2.457c-0.812-0.502-2.104-0.754-3.875-0.754h-3.461V0.929z M306.635,2.922v7.571h4.222
		c1.634,0,2.863-0.316,3.688-0.948c0.826-0.632,1.239-1.622,1.239-2.969c0-1.255-0.423-2.178-1.267-2.769
		c-0.845-0.59-2.13-0.886-3.854-0.886H306.635z"/>
	<path d="M335.396,4.901c0,2.473-0.622,4.404-1.868,5.792s-2.967,2.083-5.163,2.083c-1.356,0-2.561-0.318-3.612-0.955
		s-1.864-1.55-2.436-2.741c-0.572-1.19-0.858-2.583-0.858-4.18c0-2.473,0.618-4.399,1.854-5.779s2.953-2.069,5.149-2.069
		c2.122,0,3.808,0.706,5.059,2.118C334.771,0.583,335.396,2.493,335.396,4.901z M323.84,4.901c0,1.938,0.388,3.414,1.162,4.429
		c0.775,1.015,1.915,1.522,3.419,1.522s2.646-0.505,3.426-1.516c0.779-1.01,1.17-2.489,1.17-4.436c0-1.929-0.391-3.394-1.17-4.395
		c-0.78-1.001-1.931-1.502-3.453-1.502c-1.505,0-2.64,0.494-3.405,1.481C324.223,1.474,323.84,2.945,323.84,4.901z"/>
	<path d="M341.584-2.67v9.841c0,1.236,0.281,2.159,0.844,2.768s1.444,0.914,2.644,0.914c1.587,0,2.748-0.434,3.481-1.301
		c0.733-0.867,1.101-2.284,1.101-4.249V-2.67h2.297V12.5h-1.896l-0.333-2.035h-0.124c-0.471,0.748-1.124,1.32-1.959,1.716
		s-1.787,0.595-2.857,0.595c-1.846,0-3.228-0.438-4.146-1.315c-0.919-0.876-1.378-2.279-1.378-4.208V-2.67H341.584z"/>
	<path d="M367.203,12.5V2.687c0-1.236-0.281-2.159-0.844-2.768c-0.563-0.609-1.444-0.914-2.644-0.914
		c-1.588,0-2.75,0.429-3.488,1.287c-0.738,0.858-1.107,2.275-1.107,4.25V12.5h-2.298V-2.67h1.869l0.374,2.076h0.11
		c0.471-0.747,1.13-1.326,1.979-1.737c0.849-0.411,1.794-0.616,2.837-0.616c1.827,0,3.202,0.441,4.125,1.322
		c0.923,0.881,1.384,2.291,1.384,4.229V12.5H367.203z"/>
	<path d="M384.547,10.465h-0.125c-1.062,1.541-2.648,2.312-4.761,2.312c-1.984,0-3.527-0.678-4.63-2.035
		c-1.104-1.356-1.654-3.285-1.654-5.786c0-2.5,0.554-4.443,1.661-5.827c1.107-1.384,2.647-2.076,4.623-2.076
		c2.058,0,3.635,0.748,4.733,2.242h0.18l-0.097-1.093l-0.056-1.066v-6.173h2.298V12.5h-1.868L384.547,10.465z M379.951,10.853
		c1.568,0,2.706-0.427,3.412-1.28s1.059-2.23,1.059-4.132V4.957c0-2.15-0.357-3.684-1.072-4.602
		c-0.716-0.918-1.857-1.377-3.426-1.377c-1.348,0-2.379,0.523-3.094,1.571s-1.072,2.526-1.072,4.436c0,1.938,0.354,3.4,1.065,4.388
		S378.576,10.853,379.951,10.853z"/>
	<path d="M391.397-6.781c0-0.526,0.129-0.911,0.388-1.156c0.258-0.244,0.581-0.367,0.969-0.367c0.369,0,0.688,0.125,0.955,0.374
		c0.268,0.249,0.401,0.632,0.401,1.148c0,0.517-0.134,0.902-0.401,1.156c-0.268,0.254-0.586,0.381-0.955,0.381
		c-0.388,0-0.711-0.127-0.969-0.381C391.526-5.878,391.397-6.264,391.397-6.781z M393.889,12.5h-2.298V-2.67h2.298V12.5z"/>
	<path d="M409.142,12.5V2.687c0-1.236-0.281-2.159-0.844-2.768c-0.563-0.609-1.444-0.914-2.644-0.914
		c-1.588,0-2.75,0.429-3.488,1.287c-0.738,0.858-1.107,2.275-1.107,4.25V12.5h-2.298V-2.67h1.869l0.374,2.076h0.11
		c0.471-0.747,1.13-1.326,1.979-1.737c0.849-0.411,1.794-0.616,2.837-0.616c1.827,0,3.202,0.441,4.125,1.322
		c0.923,0.881,1.384,2.291,1.384,4.229V12.5H409.142z"/>
	<path d="M428.575-2.67v1.454l-2.81,0.332c0.258,0.323,0.488,0.745,0.691,1.267s0.305,1.109,0.305,1.765
		c0,1.486-0.508,2.671-1.522,3.557s-2.408,1.329-4.18,1.329c-0.452,0-0.877-0.037-1.273-0.111c-0.979,0.517-1.467,1.167-1.467,1.952
		c0,0.416,0.17,0.722,0.512,0.92c0.341,0.199,0.928,0.298,1.758,0.298h2.686c1.642,0,2.903,0.346,3.785,1.038
		c0.881,0.692,1.321,1.698,1.321,3.017c0,1.679-0.673,2.959-2.021,3.841s-3.313,1.322-5.896,1.322c-1.983,0-3.513-0.369-4.588-1.107
		c-1.075-0.738-1.612-1.781-1.612-3.128c0-0.922,0.295-1.721,0.886-2.394c0.59-0.674,1.421-1.13,2.491-1.371
		c-0.388-0.175-0.713-0.447-0.976-0.816s-0.395-0.798-0.395-1.287c0-0.554,0.147-1.038,0.442-1.454
		c0.296-0.415,0.762-0.816,1.398-1.204c-0.784-0.323-1.424-0.872-1.917-1.647c-0.494-0.775-0.74-1.661-0.74-2.658
		c0-1.661,0.498-2.941,1.494-3.841c0.997-0.899,2.409-1.35,4.235-1.35c0.794,0,1.509,0.092,2.146,0.277H428.575z M416.478,15.047
		c0,0.821,0.347,1.444,1.038,1.869c0.692,0.424,1.685,0.636,2.977,0.636c1.928,0,3.356-0.288,4.283-0.865
		c0.928-0.577,1.392-1.359,1.392-2.346c0-0.821-0.254-1.391-0.762-1.709s-1.463-0.478-2.865-0.478h-2.754
		c-1.043,0-1.854,0.25-2.437,0.748C416.769,13.4,416.478,14.115,416.478,15.047z M417.724,2.188c0,1.061,0.3,1.864,0.899,2.408
		s1.435,0.817,2.506,0.817c2.242,0,3.363-1.089,3.363-3.267c0-2.279-1.135-3.419-3.405-3.419c-1.079,0-1.91,0.291-2.491,0.872
		C418.015,0.182,417.724,1.044,417.724,2.188z"/>
	<path d="M439.398-7.736h5.716c2.686,0,4.628,0.402,5.827,1.205s1.8,2.071,1.8,3.806c0,1.2-0.335,2.189-1.004,2.969
		c-0.669,0.78-1.645,1.285-2.927,1.516v0.139c3.072,0.526,4.608,2.141,4.608,4.844c0,1.809-0.611,3.22-1.834,4.235
		s-2.932,1.522-5.128,1.522h-7.059V-7.736z M441.751,0.929h3.876c1.661,0,2.855-0.26,3.585-0.782c0.729-0.521,1.093-1.4,1.093-2.637
		c0-1.135-0.406-1.954-1.218-2.457c-0.812-0.502-2.104-0.754-3.875-0.754h-3.461V0.929z M441.751,2.922v7.571h4.222
		c1.634,0,2.863-0.316,3.688-0.948c0.826-0.632,1.239-1.622,1.239-2.969c0-1.255-0.423-2.178-1.267-2.769
		c-0.845-0.59-2.13-0.886-3.854-0.886H441.751z"/>
	<path d="M470.513,4.901c0,2.473-0.622,4.404-1.868,5.792s-2.967,2.083-5.163,2.083c-1.356,0-2.561-0.318-3.612-0.955
		s-1.864-1.55-2.436-2.741c-0.572-1.19-0.858-2.583-0.858-4.18c0-2.473,0.618-4.399,1.854-5.779s2.953-2.069,5.149-2.069
		c2.122,0,3.808,0.706,5.059,2.118C469.888,0.583,470.513,2.493,470.513,4.901z M458.956,4.901c0,1.938,0.388,3.414,1.162,4.429
		c0.775,1.015,1.915,1.522,3.419,1.522s2.646-0.505,3.426-1.516c0.779-1.01,1.17-2.489,1.17-4.436c0-1.929-0.391-3.394-1.17-4.395
		c-0.78-1.001-1.931-1.502-3.453-1.502c-1.505,0-2.64,0.494-3.405,1.481C459.339,1.474,458.956,2.945,458.956,4.901z"/>
	<path d="M478.194,4.735l-5.273-7.405h2.616l4,5.813l3.986-5.813h2.588l-5.273,7.405l5.551,7.765h-2.603l-4.249-6.146l-4.291,6.146
		h-2.602L478.194,4.735z"/>
	<path d="M509.849,4.901c0,2.473-0.622,4.404-1.868,5.792s-2.967,2.083-5.163,2.083c-1.356,0-2.561-0.318-3.612-0.955
		s-1.864-1.55-2.436-2.741c-0.572-1.19-0.858-2.583-0.858-4.18c0-2.473,0.618-4.399,1.854-5.779s2.953-2.069,5.149-2.069
		c2.122,0,3.808,0.706,5.059,2.118C509.224,0.583,509.849,2.493,509.849,4.901z M498.292,4.901c0,1.938,0.388,3.414,1.162,4.429
		c0.775,1.015,1.915,1.522,3.419,1.522s2.646-0.505,3.426-1.516c0.779-1.01,1.17-2.489,1.17-4.436c0-1.929-0.391-3.394-1.17-4.395
		c-0.78-1.001-1.931-1.502-3.453-1.502c-1.505,0-2.64,0.494-3.405,1.481C498.675,1.474,498.292,2.945,498.292,4.901z"/>
	<path d="M520.715-0.884h-3.861V12.5h-2.298V-0.884h-2.713v-1.038l2.713-0.831v-0.844c0-3.728,1.629-5.592,4.886-5.592
		c0.803,0,1.744,0.162,2.823,0.484l-0.595,1.841c-0.886-0.286-1.643-0.429-2.27-0.429c-0.868,0-1.509,0.288-1.924,0.865
		c-0.416,0.577-0.623,1.502-0.623,2.775v0.982h3.861V-0.884z"/>
	<path d="M533.545,12.5h-2.353V-7.736h11.28v2.09h-8.928v7.405h8.388v2.09h-8.388V12.5z"/>
	<path d="M554.777,12.5l-6.865-17.938h-0.11c0.129,1.421,0.193,3.11,0.193,5.066V12.5h-2.173V-7.736h3.543l6.408,16.692h0.111
		l6.464-16.692h3.516V12.5h-2.354V-0.538c0-1.495,0.064-3.119,0.194-4.872h-0.111l-6.92,17.91H554.777z"/>
	<path d="M586.694-7.736V5.358c0,2.307-0.696,4.12-2.09,5.439c-1.394,1.32-3.308,1.979-5.744,1.979c-2.436,0-4.32-0.665-5.654-1.993
		c-1.333-1.329-2-3.156-2-5.481V-7.736h2.354V5.469c0,1.688,0.461,2.985,1.384,3.889c0.923,0.905,2.279,1.356,4.069,1.356
		c1.707,0,3.021-0.454,3.944-1.363c0.923-0.909,1.385-2.212,1.385-3.91V-7.736H586.694z"/>
	<path d="M612.245-1.839c0,2.048-0.698,3.624-2.097,4.727c-1.397,1.103-3.397,1.654-6,1.654h-2.381V12.5h-2.353V-7.736h5.245
		C609.717-7.736,612.245-5.77,612.245-1.839z M601.768,2.521h2.118c2.085,0,3.594-0.336,4.525-1.01
		c0.933-0.673,1.398-1.753,1.398-3.239c0-1.338-0.438-2.334-1.315-2.99c-0.876-0.655-2.242-0.983-4.097-0.983h-2.63V2.521z"/>
	<path d="M632.287,12.5h-2.686L618.543-4.483h-0.111c0.147,1.993,0.222,3.82,0.222,5.481V12.5h-2.173V-7.736h2.657l11.031,16.914
		h0.111c-0.02-0.249-0.061-1.05-0.125-2.401s-0.088-2.318-0.069-2.9V-7.736h2.201V12.5z"/>
	<path d="M646.751,1.898h6.879v9.841c-1.07,0.341-2.159,0.6-3.267,0.775c-1.106,0.175-2.39,0.263-3.848,0.263
		c-3.063,0-5.448-0.911-7.155-2.733S636.8,5.667,636.8,2.382c0-2.104,0.422-3.947,1.267-5.53c0.844-1.582,2.06-2.791,3.646-3.626
		c1.587-0.835,3.446-1.253,5.578-1.253c2.159,0,4.171,0.397,6.034,1.19l-0.913,2.076c-1.827-0.775-3.585-1.163-5.273-1.163
		c-2.464,0-4.388,0.733-5.771,2.201c-1.385,1.467-2.076,3.502-2.076,6.104c0,2.731,0.666,4.803,2,6.214
		c1.333,1.412,3.292,2.118,5.875,2.118c1.403,0,2.773-0.161,4.111-0.484V4.001h-4.526V1.898z"/>
	<path d="M665.824-7.736L658.28,12.5h-2.298l7.544-20.236H665.824z"/>
	<path d="M680.315,7.116c0,1.781-0.646,3.17-1.938,4.167c-1.292,0.996-3.045,1.495-5.259,1.495c-2.399,0-4.245-0.309-5.537-0.927
		V9.58c0.831,0.351,1.735,0.627,2.713,0.831c0.979,0.203,1.947,0.304,2.907,0.304c1.568,0,2.749-0.297,3.543-0.893
		s1.19-1.423,1.19-2.484c0-0.701-0.141-1.276-0.422-1.723c-0.282-0.448-0.753-0.86-1.412-1.239c-0.66-0.378-1.663-0.808-3.011-1.288
		c-1.882-0.673-3.227-1.472-4.034-2.395c-0.808-0.922-1.211-2.126-1.211-3.612c0-1.559,0.586-2.8,1.758-3.723
		s2.722-1.384,4.65-1.384c2.012,0,3.861,0.369,5.55,1.107l-0.733,2.048c-1.67-0.701-3.294-1.052-4.872-1.052
		c-1.245,0-2.219,0.268-2.92,0.803c-0.702,0.535-1.053,1.278-1.053,2.229c0,0.701,0.13,1.275,0.388,1.723
		c0.259,0.448,0.694,0.858,1.309,1.232c0.613,0.374,1.552,0.787,2.816,1.239c2.122,0.756,3.582,1.569,4.381,2.436
		C679.916,4.606,680.315,5.732,680.315,7.116z"/>
	<path d="M696.011-7.736h2.533L691.25,12.5h-2.325l-7.253-20.236h2.491l4.65,13.094c0.535,1.504,0.96,2.967,1.273,4.388
		c0.332-1.495,0.767-2.985,1.302-4.471L696.011-7.736z"/>
	<path d="M710.226,1.898h6.879v9.841c-1.07,0.341-2.159,0.6-3.267,0.775c-1.106,0.175-2.39,0.263-3.848,0.263
		c-3.063,0-5.448-0.911-7.155-2.733s-2.561-4.376-2.561-7.661c0-2.104,0.422-3.947,1.267-5.53c0.844-1.582,2.06-2.791,3.646-3.626
		c1.587-0.835,3.446-1.253,5.578-1.253c2.159,0,4.171,0.397,6.034,1.19l-0.913,2.076c-1.827-0.775-3.585-1.163-5.273-1.163
		c-2.464,0-4.388,0.733-5.771,2.201c-1.385,1.467-2.076,3.502-2.076,6.104c0,2.731,0.666,4.803,2,6.214
		c1.333,1.412,3.292,2.118,5.875,2.118c1.403,0,2.773-0.161,4.111-0.484V4.001h-4.526V1.898z"/>
	<path d="M729.327,12.5V-7.736h2.353V12.5H729.327z"/>
	<path d="M742.946,12.777c-2.196,0-3.896-0.676-5.1-2.028c-1.205-1.352-1.807-3.264-1.807-5.737c0-2.538,0.611-4.499,1.834-5.883
		c1.223-1.384,2.964-2.076,5.225-2.076c0.729,0,1.458,0.079,2.188,0.235c0.729,0.157,1.301,0.342,1.716,0.554l-0.706,1.952
		c-0.507-0.203-1.061-0.372-1.661-0.505c-0.6-0.133-1.13-0.201-1.591-0.201c-3.082,0-4.623,1.965-4.623,5.896
		c0,1.864,0.376,3.294,1.128,4.291s1.866,1.495,3.343,1.495c1.264,0,2.561-0.272,3.889-0.817v2.035
		C745.766,12.514,744.487,12.777,742.946,12.777z"/>
	<path d="M763.472,4.901c0,2.473-0.622,4.404-1.868,5.792s-2.967,2.083-5.163,2.083c-1.356,0-2.561-0.318-3.612-0.955
		s-1.864-1.55-2.436-2.741c-0.572-1.19-0.858-2.583-0.858-4.18c0-2.473,0.618-4.399,1.854-5.779s2.953-2.069,5.149-2.069
		c2.122,0,3.808,0.706,5.059,2.118C762.847,0.583,763.472,2.493,763.472,4.901z M751.915,4.901c0,1.938,0.388,3.414,1.162,4.429
		c0.775,1.015,1.915,1.522,3.419,1.522s2.646-0.505,3.426-1.516c0.779-1.01,1.17-2.489,1.17-4.436c0-1.929-0.391-3.394-1.17-4.395
		c-0.78-1.001-1.931-1.502-3.453-1.502c-1.505,0-2.64,0.494-3.405,1.481C752.298,1.474,751.915,2.945,751.915,4.901z"/>
	<path d="M777.881,12.5V2.687c0-1.236-0.281-2.159-0.844-2.768c-0.563-0.609-1.444-0.914-2.644-0.914
		c-1.588,0-2.75,0.429-3.488,1.287c-0.738,0.858-1.107,2.275-1.107,4.25V12.5H767.5V-2.67h1.869l0.374,2.076h0.11
		c0.471-0.747,1.13-1.326,1.979-1.737c0.849-0.411,1.794-0.616,2.837-0.616c1.827,0,3.202,0.441,4.125,1.322
		c0.923,0.881,1.384,2.291,1.384,4.229V12.5H777.881z"/>
	<path d="M304.282,60.296h5.716c2.686,0,4.628,0.402,5.827,1.205s1.8,2.071,1.8,3.806c0,1.2-0.335,2.189-1.004,2.969
		c-0.669,0.78-1.645,1.285-2.927,1.516v0.139c3.072,0.526,4.608,2.141,4.608,4.844c0,1.809-0.611,3.22-1.834,4.235
		s-2.932,1.522-5.128,1.522h-7.059V60.296z M306.635,68.96h3.876c1.661,0,2.855-0.26,3.585-0.782c0.729-0.521,1.093-1.4,1.093-2.637
		c0-1.135-0.406-1.954-1.218-2.457c-0.812-0.502-2.104-0.754-3.875-0.754h-3.461V68.96z M306.635,70.954v7.571h4.222
		c1.634,0,2.863-0.316,3.688-0.948c0.826-0.632,1.239-1.622,1.239-2.969c0-1.255-0.423-2.178-1.267-2.769
		c-0.845-0.59-2.13-0.886-3.854-0.886H306.635z"/>
	<path d="M335.396,72.933c0,2.473-0.622,4.404-1.868,5.792s-2.967,2.083-5.163,2.083c-1.356,0-2.561-0.318-3.612-0.955
		s-1.864-1.55-2.436-2.741c-0.572-1.19-0.858-2.583-0.858-4.18c0-2.473,0.618-4.399,1.854-5.779s2.953-2.069,5.149-2.069
		c2.122,0,3.808,0.706,5.059,2.118C334.771,68.615,335.396,70.525,335.396,72.933z M323.84,72.933c0,1.938,0.388,3.414,1.162,4.429
		c0.775,1.015,1.915,1.522,3.419,1.522s2.646-0.505,3.426-1.516c0.779-1.01,1.17-2.489,1.17-4.436c0-1.929-0.391-3.394-1.17-4.395
		c-0.78-1.001-1.931-1.502-3.453-1.502c-1.505,0-2.64,0.494-3.405,1.481C324.223,69.505,323.84,70.977,323.84,72.933z"/>
	<path d="M341.584,65.362v9.841c0,1.236,0.281,2.159,0.844,2.768s1.444,0.914,2.644,0.914c1.587,0,2.748-0.434,3.481-1.301
		c0.733-0.867,1.101-2.284,1.101-4.249v-7.973h2.297v15.17h-1.896l-0.333-2.035h-0.124c-0.471,0.748-1.124,1.32-1.959,1.716
		s-1.787,0.595-2.857,0.595c-1.846,0-3.228-0.438-4.146-1.315c-0.919-0.876-1.378-2.279-1.378-4.208v-9.924H341.584z"/>
	<path d="M367.203,80.532v-9.813c0-1.236-0.281-2.159-0.844-2.768c-0.563-0.609-1.444-0.914-2.644-0.914
		c-1.588,0-2.75,0.429-3.488,1.287c-0.738,0.858-1.107,2.275-1.107,4.25v7.958h-2.298v-15.17h1.869l0.374,2.076h0.11
		c0.471-0.747,1.13-1.326,1.979-1.737c0.849-0.411,1.794-0.616,2.837-0.616c1.827,0,3.202,0.441,4.125,1.322
		c0.923,0.881,1.384,2.291,1.384,4.229v9.896H367.203z"/>
	<path d="M384.547,78.497h-0.125c-1.062,1.541-2.648,2.312-4.761,2.312c-1.984,0-3.527-0.678-4.63-2.035
		c-1.104-1.356-1.654-3.285-1.654-5.786c0-2.5,0.554-4.443,1.661-5.827c1.107-1.384,2.647-2.076,4.623-2.076
		c2.058,0,3.635,0.748,4.733,2.242h0.18l-0.097-1.093l-0.056-1.066v-6.173h2.298v21.537h-1.868L384.547,78.497z M379.951,78.885
		c1.568,0,2.706-0.427,3.412-1.28s1.059-2.23,1.059-4.132v-0.484c0-2.15-0.357-3.684-1.072-4.602
		c-0.716-0.918-1.857-1.377-3.426-1.377c-1.348,0-2.379,0.523-3.094,1.571s-1.072,2.526-1.072,4.436c0,1.938,0.354,3.4,1.065,4.388
		S378.576,78.885,379.951,78.885z"/>
	<path d="M391.397,61.251c0-0.526,0.129-0.911,0.388-1.156c0.258-0.244,0.581-0.367,0.969-0.367c0.369,0,0.688,0.125,0.955,0.374
		c0.268,0.249,0.401,0.632,0.401,1.148c0,0.517-0.134,0.902-0.401,1.156c-0.268,0.254-0.586,0.381-0.955,0.381
		c-0.388,0-0.711-0.127-0.969-0.381C391.526,62.153,391.397,61.768,391.397,61.251z M393.889,80.532h-2.298v-15.17h2.298V80.532z"/>
	<path d="M409.142,80.532v-9.813c0-1.236-0.281-2.159-0.844-2.768c-0.563-0.609-1.444-0.914-2.644-0.914
		c-1.588,0-2.75,0.429-3.488,1.287c-0.738,0.858-1.107,2.275-1.107,4.25v7.958h-2.298v-15.17h1.869l0.374,2.076h0.11
		c0.471-0.747,1.13-1.326,1.979-1.737c0.849-0.411,1.794-0.616,2.837-0.616c1.827,0,3.202,0.441,4.125,1.322
		c0.923,0.881,1.384,2.291,1.384,4.229v9.896H409.142z"/>
	<path d="M428.575,65.362v1.454l-2.81,0.332c0.258,0.323,0.488,0.745,0.691,1.267s0.305,1.109,0.305,1.765
		c0,1.486-0.508,2.671-1.522,3.557s-2.408,1.329-4.18,1.329c-0.452,0-0.877-0.037-1.273-0.111c-0.979,0.517-1.467,1.167-1.467,1.952
		c0,0.416,0.17,0.722,0.512,0.92c0.341,0.199,0.928,0.298,1.758,0.298h2.686c1.642,0,2.903,0.346,3.785,1.038
		c0.881,0.692,1.321,1.698,1.321,3.017c0,1.679-0.673,2.959-2.021,3.841s-3.313,1.322-5.896,1.322c-1.983,0-3.513-0.369-4.588-1.107
		c-1.075-0.738-1.612-1.781-1.612-3.128c0-0.922,0.295-1.721,0.886-2.394c0.59-0.674,1.421-1.13,2.491-1.371
		c-0.388-0.175-0.713-0.447-0.976-0.816s-0.395-0.798-0.395-1.287c0-0.554,0.147-1.038,0.442-1.454
		c0.296-0.415,0.762-0.816,1.398-1.204c-0.784-0.323-1.424-0.872-1.917-1.647c-0.494-0.775-0.74-1.661-0.74-2.658
		c0-1.661,0.498-2.941,1.494-3.841c0.997-0.899,2.409-1.35,4.235-1.35c0.794,0,1.509,0.092,2.146,0.277H428.575z M416.478,83.079
		c0,0.821,0.347,1.444,1.038,1.869c0.692,0.424,1.685,0.636,2.977,0.636c1.928,0,3.356-0.288,4.283-0.865
		c0.928-0.577,1.392-1.359,1.392-2.346c0-0.821-0.254-1.391-0.762-1.709s-1.463-0.478-2.865-0.478h-2.754
		c-1.043,0-1.854,0.25-2.437,0.748C416.769,81.432,416.478,82.146,416.478,83.079z M417.724,70.22c0,1.061,0.3,1.864,0.899,2.408
		s1.435,0.817,2.506,0.817c2.242,0,3.363-1.089,3.363-3.267c0-2.279-1.135-3.419-3.405-3.419c-1.079,0-1.91,0.291-2.491,0.872
		C418.015,68.213,417.724,69.076,417.724,70.22z"/>
	<path d="M439.398,60.296h5.716c2.686,0,4.628,0.402,5.827,1.205s1.8,2.071,1.8,3.806c0,1.2-0.335,2.189-1.004,2.969
		c-0.669,0.78-1.645,1.285-2.927,1.516v0.139c3.072,0.526,4.608,2.141,4.608,4.844c0,1.809-0.611,3.22-1.834,4.235
		s-2.932,1.522-5.128,1.522h-7.059V60.296z M441.751,68.96h3.876c1.661,0,2.855-0.26,3.585-0.782c0.729-0.521,1.093-1.4,1.093-2.637
		c0-1.135-0.406-1.954-1.218-2.457c-0.812-0.502-2.104-0.754-3.875-0.754h-3.461V68.96z M441.751,70.954v7.571h4.222
		c1.634,0,2.863-0.316,3.688-0.948c0.826-0.632,1.239-1.622,1.239-2.969c0-1.255-0.423-2.178-1.267-2.769
		c-0.845-0.59-2.13-0.886-3.854-0.886H441.751z"/>
	<path d="M470.513,72.933c0,2.473-0.622,4.404-1.868,5.792s-2.967,2.083-5.163,2.083c-1.356,0-2.561-0.318-3.612-0.955
		s-1.864-1.55-2.436-2.741c-0.572-1.19-0.858-2.583-0.858-4.18c0-2.473,0.618-4.399,1.854-5.779s2.953-2.069,5.149-2.069
		c2.122,0,3.808,0.706,5.059,2.118C469.888,68.615,470.513,70.525,470.513,72.933z M458.956,72.933c0,1.938,0.388,3.414,1.162,4.429
		c0.775,1.015,1.915,1.522,3.419,1.522s2.646-0.505,3.426-1.516c0.779-1.01,1.17-2.489,1.17-4.436c0-1.929-0.391-3.394-1.17-4.395
		c-0.78-1.001-1.931-1.502-3.453-1.502c-1.505,0-2.64,0.494-3.405,1.481C459.339,69.505,458.956,70.977,458.956,72.933z"/>
	<path d="M478.194,72.767l-5.273-7.405h2.616l4,5.813l3.986-5.813h2.588l-5.273,7.405l5.551,7.765h-2.603l-4.249-6.146l-4.291,6.146
		h-2.602L478.194,72.767z"/>
	<path d="M509.849,72.933c0,2.473-0.622,4.404-1.868,5.792s-2.967,2.083-5.163,2.083c-1.356,0-2.561-0.318-3.612-0.955
		s-1.864-1.55-2.436-2.741c-0.572-1.19-0.858-2.583-0.858-4.18c0-2.473,0.618-4.399,1.854-5.779s2.953-2.069,5.149-2.069
		c2.122,0,3.808,0.706,5.059,2.118C509.224,68.615,509.849,70.525,509.849,72.933z M498.292,72.933c0,1.938,0.388,3.414,1.162,4.429
		c0.775,1.015,1.915,1.522,3.419,1.522s2.646-0.505,3.426-1.516c0.779-1.01,1.17-2.489,1.17-4.436c0-1.929-0.391-3.394-1.17-4.395
		c-0.78-1.001-1.931-1.502-3.453-1.502c-1.505,0-2.64,0.494-3.405,1.481C498.675,69.505,498.292,70.977,498.292,72.933z"/>
	<path d="M520.715,67.147h-3.861v13.384h-2.298V67.147h-2.713v-1.038l2.713-0.831v-0.844c0-3.728,1.629-5.592,4.886-5.592
		c0.803,0,1.744,0.162,2.823,0.484l-0.595,1.841c-0.886-0.286-1.643-0.429-2.27-0.429c-0.868,0-1.509,0.288-1.924,0.865
		c-0.416,0.577-0.623,1.502-0.623,2.775v0.982h3.861V67.147z"/>
	<path d="M537.421,80.532h-2.354V62.386h-6.408v-2.09h15.17v2.09h-6.408V80.532z"/>
	<path d="M552.937,80.809c-2.242,0-4.012-0.683-5.309-2.048c-1.296-1.366-1.944-3.262-1.944-5.689c0-2.445,0.602-4.388,1.807-5.827
		c1.204-1.439,2.82-2.159,4.851-2.159c1.901,0,3.405,0.625,4.513,1.875c1.107,1.25,1.661,2.9,1.661,4.948v1.454h-10.45
		c0.046,1.781,0.496,3.133,1.35,4.055c0.853,0.923,2.055,1.384,3.605,1.384c1.633,0,3.248-0.341,4.844-1.024v2.048
		c-0.812,0.351-1.58,0.602-2.304,0.754C554.835,80.732,553.961,80.809,552.937,80.809z M552.313,67.009
		c-1.218,0-2.189,0.396-2.914,1.19c-0.724,0.794-1.15,1.892-1.28,3.294h7.932c0-1.449-0.323-2.558-0.969-3.329
		C554.436,67.395,553.513,67.009,552.313,67.009z"/>
	<path d="M569.352,65.085c0.674,0,1.278,0.056,1.813,0.167l-0.318,2.131c-0.628-0.139-1.182-0.208-1.661-0.208
		c-1.228,0-2.276,0.498-3.148,1.495s-1.309,2.238-1.309,3.723v8.139h-2.298v-15.17h1.896l0.264,2.81h0.11
		c0.563-0.987,1.241-1.749,2.034-2.284C567.529,65.353,568.401,65.085,569.352,65.085z"/>
	<path d="M593.338,80.532v-9.869c0-1.208-0.258-2.115-0.774-2.72s-1.32-0.907-2.408-0.907c-1.431,0-2.487,0.411-3.17,1.232
		s-1.024,2.085-1.024,3.792v8.471h-2.298v-9.869c0-1.208-0.258-2.115-0.774-2.72c-0.518-0.604-1.324-0.907-2.423-0.907
		c-1.439,0-2.493,0.432-3.162,1.294s-1.004,2.277-1.004,4.242v7.958h-2.298v-15.17h1.869l0.374,2.076h0.11
		c0.434-0.738,1.045-1.315,1.834-1.73s1.672-0.623,2.65-0.623c2.371,0,3.922,0.858,4.65,2.575h0.111
		c0.451-0.793,1.107-1.421,1.965-1.882c0.858-0.461,1.836-0.692,2.935-0.692c1.716,0,3.001,0.441,3.854,1.322
		c0.854,0.881,1.28,2.291,1.28,4.229v9.896H593.338z"/>
	<path d="M600.176,61.251c0-0.526,0.129-0.911,0.388-1.156c0.258-0.244,0.581-0.367,0.969-0.367c0.369,0,0.688,0.125,0.955,0.374
		c0.268,0.249,0.401,0.632,0.401,1.148c0,0.517-0.134,0.902-0.401,1.156c-0.268,0.254-0.586,0.381-0.955,0.381
		c-0.388,0-0.711-0.127-0.969-0.381C600.305,62.153,600.176,61.768,600.176,61.251z M602.667,80.532h-2.298v-15.17h2.298V80.532z"/>
	<path d="M617.92,80.532v-9.813c0-1.236-0.281-2.159-0.844-2.768c-0.563-0.609-1.444-0.914-2.644-0.914
		c-1.588,0-2.75,0.429-3.488,1.287c-0.738,0.858-1.107,2.275-1.107,4.25v7.958h-2.298v-15.17h1.869l0.374,2.076h0.11
		c0.471-0.747,1.13-1.326,1.979-1.737c0.849-0.411,1.794-0.616,2.837-0.616c1.827,0,3.202,0.441,4.125,1.322
		c0.923,0.881,1.384,2.291,1.384,4.229v9.896H617.92z"/>
	<path d="M634.267,80.532l-0.456-2.159h-0.111c-0.757,0.951-1.511,1.594-2.263,1.931c-0.752,0.337-1.691,0.505-2.816,0.505
		c-1.505,0-2.684-0.388-3.537-1.163c-0.854-0.775-1.28-1.878-1.28-3.308c0-3.063,2.45-4.669,7.35-4.817l2.574-0.083v-0.941
		c0-1.19-0.256-2.069-0.768-2.637c-0.513-0.567-1.331-0.851-2.457-0.851c-1.265,0-2.694,0.387-4.291,1.163l-0.705-1.758
		c0.747-0.406,1.565-0.725,2.456-0.955s1.783-0.346,2.679-0.346c1.809,0,3.148,0.401,4.021,1.204s1.309,2.09,1.309,3.862v10.353
		H634.267z M629.076,78.912c1.431,0,2.554-0.392,3.37-1.176c0.817-0.784,1.226-1.882,1.226-3.294v-1.371l-2.298,0.097
		c-1.827,0.064-3.145,0.348-3.951,0.851c-0.808,0.503-1.212,1.285-1.212,2.346c0,0.831,0.252,1.462,0.755,1.896
		C627.469,78.696,628.172,78.912,629.076,78.912z"/>
	<path d="M643,80.532h-2.298V58.995H643V80.532z"/>
	<path d="M668.412,66.192c0,2.048-0.698,3.624-2.097,4.727c-1.397,1.103-3.397,1.654-6,1.654h-2.381v7.958h-2.353V60.296h5.245
		C665.884,60.296,668.412,62.262,668.412,66.192z M657.935,70.552h2.118c2.085,0,3.594-0.336,4.525-1.01
		c0.933-0.673,1.398-1.753,1.398-3.239c0-1.338-0.438-2.334-1.315-2.99c-0.876-0.655-2.242-0.983-4.097-0.983h-2.63V70.552z"/>
	<path d="M688.454,80.532h-2.686L674.71,63.549h-0.111c0.147,1.993,0.222,3.82,0.222,5.481v11.502h-2.173V60.296h2.657
		l11.031,16.914h0.111c-0.02-0.249-0.061-1.05-0.125-2.401s-0.088-2.318-0.069-2.9V60.296h2.201V80.532z"/>
	<path d="M702.918,69.93h6.879v9.841c-1.07,0.341-2.159,0.6-3.267,0.775c-1.106,0.175-2.39,0.263-3.848,0.263
		c-3.063,0-5.448-0.911-7.155-2.733s-2.561-4.376-2.561-7.661c0-2.104,0.422-3.947,1.267-5.53c0.844-1.582,2.06-2.791,3.646-3.626
		c1.587-0.835,3.446-1.253,5.578-1.253c2.159,0,4.171,0.397,6.034,1.19l-0.913,2.076c-1.827-0.775-3.585-1.163-5.273-1.163
		c-2.464,0-4.388,0.733-5.771,2.201c-1.385,1.467-2.076,3.502-2.076,6.104c0,2.731,0.666,4.803,2,6.214
		c1.333,1.412,3.292,2.118,5.875,2.118c1.403,0,2.773-0.161,4.111-0.484v-6.229h-4.526V69.93z"/>
	<path d="M721.991,60.296l-7.544,20.236h-2.298l7.544-20.236H721.991z"/>
	<path d="M736.482,75.147c0,1.781-0.646,3.17-1.938,4.167c-1.292,0.996-3.045,1.495-5.259,1.495c-2.399,0-4.245-0.309-5.537-0.927
		v-2.27c0.831,0.351,1.735,0.627,2.713,0.831c0.979,0.203,1.947,0.304,2.907,0.304c1.568,0,2.749-0.297,3.543-0.893
		s1.19-1.423,1.19-2.484c0-0.701-0.141-1.276-0.422-1.723c-0.282-0.448-0.753-0.86-1.412-1.239c-0.66-0.378-1.663-0.808-3.011-1.288
		c-1.882-0.673-3.227-1.472-4.034-2.395c-0.808-0.922-1.211-2.126-1.211-3.612c0-1.559,0.586-2.8,1.758-3.723
		s2.722-1.384,4.65-1.384c2.012,0,3.861,0.369,5.55,1.107l-0.733,2.048c-1.67-0.701-3.294-1.052-4.872-1.052
		c-1.245,0-2.219,0.268-2.92,0.803c-0.702,0.535-1.053,1.278-1.053,2.229c0,0.701,0.13,1.275,0.388,1.723
		c0.259,0.448,0.694,0.858,1.309,1.232c0.613,0.374,1.552,0.787,2.816,1.239c2.122,0.756,3.582,1.569,4.381,2.436
		C736.083,72.638,736.482,73.764,736.482,75.147z"/>
	<path d="M752.178,60.296h2.533l-7.294,20.236h-2.325l-7.253-20.236h2.491l4.65,13.094c0.535,1.504,0.96,2.967,1.273,4.388
		c0.332-1.495,0.767-2.985,1.302-4.471L752.178,60.296z"/>
	<path d="M766.393,69.93h6.879v9.841c-1.07,0.341-2.159,0.6-3.267,0.775c-1.106,0.175-2.39,0.263-3.848,0.263
		c-3.063,0-5.448-0.911-7.155-2.733s-2.561-4.376-2.561-7.661c0-2.104,0.422-3.947,1.267-5.53c0.844-1.582,2.06-2.791,3.646-3.626
		c1.587-0.835,3.446-1.253,5.578-1.253c2.159,0,4.171,0.397,6.034,1.19l-0.913,2.076c-1.827-0.775-3.585-1.163-5.273-1.163
		c-2.464,0-4.388,0.733-5.771,2.201c-1.385,1.467-2.076,3.502-2.076,6.104c0,2.731,0.666,4.803,2,6.214
		c1.333,1.412,3.292,2.118,5.875,2.118c1.403,0,2.773-0.161,4.111-0.484v-6.229h-4.526V69.93z"/>
	<path d="M785.494,80.532V60.296h2.353v20.236H785.494z"/>
	<path d="M799.113,80.809c-2.196,0-3.896-0.676-5.1-2.028c-1.205-1.352-1.807-3.264-1.807-5.737c0-2.538,0.611-4.499,1.834-5.883
		c1.223-1.384,2.964-2.076,5.225-2.076c0.729,0,1.458,0.079,2.188,0.235c0.729,0.157,1.301,0.342,1.716,0.554l-0.706,1.952
		c-0.507-0.203-1.061-0.372-1.661-0.505c-0.6-0.133-1.13-0.201-1.591-0.201c-3.082,0-4.623,1.965-4.623,5.896
		c0,1.864,0.376,3.294,1.128,4.291s1.866,1.495,3.343,1.495c1.264,0,2.561-0.272,3.889-0.817v2.035
		C801.933,80.545,800.654,80.809,799.113,80.809z"/>
	<path d="M819.639,72.933c0,2.473-0.622,4.404-1.868,5.792s-2.967,2.083-5.163,2.083c-1.356,0-2.561-0.318-3.612-0.955
		s-1.864-1.55-2.436-2.741c-0.572-1.19-0.858-2.583-0.858-4.18c0-2.473,0.618-4.399,1.854-5.779s2.953-2.069,5.149-2.069
		c2.122,0,3.808,0.706,5.059,2.118C819.014,68.615,819.639,70.525,819.639,72.933z M808.082,72.933c0,1.938,0.388,3.414,1.162,4.429
		c0.775,1.015,1.915,1.522,3.419,1.522s2.646-0.505,3.426-1.516c0.779-1.01,1.17-2.489,1.17-4.436c0-1.929-0.391-3.394-1.17-4.395
		c-0.78-1.001-1.931-1.502-3.453-1.502c-1.505,0-2.64,0.494-3.405,1.481C808.465,69.505,808.082,70.977,808.082,72.933z"/>
	<path d="M834.048,80.532v-9.813c0-1.236-0.281-2.159-0.844-2.768c-0.563-0.609-1.444-0.914-2.644-0.914
		c-1.588,0-2.75,0.429-3.488,1.287c-0.738,0.858-1.107,2.275-1.107,4.25v7.958h-2.298v-15.17h1.869l0.374,2.076h0.11
		c0.471-0.747,1.13-1.326,1.979-1.737c0.849-0.411,1.794-0.616,2.837-0.616c1.827,0,3.202,0.441,4.125,1.322
		c0.923,0.881,1.384,2.291,1.384,4.229v9.896H834.048z"/>
	<path d="M312.946,130.141c-2.224,0-3.979,0.74-5.267,2.221c-1.287,1.482-1.931,3.51-1.931,6.084c0,2.648,0.621,4.694,1.861,6.139
		c1.241,1.443,3.011,2.166,5.309,2.166c1.412,0,3.021-0.254,4.83-0.762v2.063c-1.402,0.525-3.133,0.789-5.19,0.789
		c-2.98,0-5.28-0.904-6.899-2.713s-2.429-4.379-2.429-7.709c0-2.086,0.39-3.912,1.169-5.481c0.78-1.569,1.905-2.777,3.378-3.626
		c1.472-0.85,3.204-1.273,5.197-1.273c2.122,0,3.977,0.387,5.563,1.162l-0.996,2.021C316.01,130.5,314.479,130.141,312.946,130.141z
		"/>
	<path d="M324.116,148.563h-2.298v-21.536h2.298V148.563z"/>
	<path d="M328.795,129.282c0-0.526,0.129-0.911,0.388-1.155c0.258-0.245,0.581-0.367,0.969-0.367c0.369,0,0.688,0.125,0.955,0.374
		c0.268,0.249,0.401,0.632,0.401,1.148s-0.134,0.902-0.401,1.155c-0.268,0.254-0.586,0.381-0.955,0.381
		c-0.388,0-0.711-0.127-0.969-0.381C328.924,130.185,328.795,129.799,328.795,129.282z M331.286,148.563h-2.298v-15.17h2.298
		V148.563z"/>
	<path d="M342.22,148.84c-2.196,0-3.896-0.676-5.1-2.027c-1.205-1.352-1.807-3.265-1.807-5.737c0-2.538,0.611-4.499,1.834-5.883
		s2.964-2.076,5.225-2.076c0.729,0,1.458,0.079,2.188,0.235c0.729,0.157,1.301,0.342,1.716,0.554l-0.706,1.952
		c-0.507-0.203-1.061-0.372-1.661-0.506c-0.6-0.133-1.13-0.201-1.591-0.201c-3.082,0-4.623,1.966-4.623,5.896
		c0,1.864,0.376,3.295,1.128,4.291s1.866,1.495,3.343,1.495c1.264,0,2.561-0.272,3.889-0.817v2.035
		C345.039,148.576,343.761,148.84,342.22,148.84z"/>
	<path d="M351.923,140.799c0.396-0.563,1.001-1.302,1.813-2.215l4.899-5.191h2.727l-6.146,6.465l6.574,8.705h-2.781l-5.356-7.169
		l-1.73,1.495v5.674h-2.271v-21.536h2.271v11.419c0,0.508-0.037,1.292-0.11,2.354H351.923z"/>
	<path d="M373.86,148.563l-0.456-2.158h-0.111c-0.757,0.95-1.511,1.594-2.263,1.93c-0.752,0.338-1.691,0.506-2.816,0.506
		c-1.505,0-2.684-0.388-3.537-1.162c-0.854-0.775-1.28-1.879-1.28-3.309c0-3.063,2.45-4.669,7.35-4.816l2.574-0.084v-0.94
		c0-1.19-0.256-2.069-0.768-2.637c-0.513-0.567-1.331-0.851-2.457-0.851c-1.265,0-2.694,0.387-4.291,1.162l-0.705-1.758
		c0.747-0.406,1.565-0.725,2.456-0.955s1.783-0.346,2.679-0.346c1.809,0,3.148,0.4,4.021,1.203s1.309,2.091,1.309,3.862v10.353
		H373.86z M368.67,146.943c1.431,0,2.554-0.393,3.37-1.176c0.817-0.785,1.226-1.883,1.226-3.295v-1.37l-2.298,0.097
		c-1.827,0.064-3.145,0.349-3.951,0.852c-0.808,0.503-1.212,1.285-1.212,2.346c0,0.831,0.252,1.463,0.755,1.896
		S367.766,146.943,368.67,146.943z"/>
	<path d="M387.356,133.145c1.993,0,3.541,0.68,4.644,2.041s1.654,3.287,1.654,5.779c0,2.49-0.557,4.426-1.668,5.806
		c-1.112,1.38-2.655,2.069-4.63,2.069c-0.987,0-1.89-0.182-2.706-0.547c-0.816-0.364-1.502-0.925-2.056-1.682h-0.166l-0.484,1.951
		h-1.647v-21.536h2.298v5.231c0,1.172-0.037,2.225-0.11,3.156h0.11C383.665,133.9,385.253,133.145,387.356,133.145z
		 M387.024,135.068c-1.569,0-2.699,0.449-3.392,1.35c-0.691,0.899-1.038,2.414-1.038,4.547c0,2.131,0.355,3.656,1.066,4.574
		c0.71,0.918,1.85,1.377,3.418,1.377c1.412,0,2.464-0.514,3.156-1.543s1.038-2.508,1.038-4.437c0-1.975-0.346-3.446-1.038-4.415
		S388.473,135.068,387.024,135.068z"/>
	<path d="M399.965,148.563h-2.298v-21.536h2.298V148.563z"/>
	<path d="M411.246,148.84c-2.242,0-4.012-0.683-5.309-2.049c-1.296-1.365-1.944-3.262-1.944-5.688c0-2.444,0.602-4.388,1.807-5.827
		c1.204-1.439,2.82-2.159,4.851-2.159c1.901,0,3.405,0.626,4.513,1.876s1.661,2.899,1.661,4.947v1.454h-10.45
		c0.046,1.78,0.496,3.133,1.35,4.056c0.853,0.922,2.055,1.384,3.605,1.384c1.633,0,3.248-0.341,4.844-1.024v2.049
		c-0.812,0.351-1.58,0.602-2.304,0.754C413.145,148.764,412.271,148.84,411.246,148.84z M410.623,135.041
		c-1.218,0-2.189,0.396-2.914,1.189c-0.724,0.794-1.15,1.892-1.28,3.295h7.932c0-1.449-0.323-2.559-0.969-3.33
		C412.745,135.426,411.822,135.041,410.623,135.041z"/>
	<path d="M428.45,148.563v-20.235h2.353v20.235H428.45z"/>
	<path d="M442.069,148.84c-2.196,0-3.896-0.676-5.1-2.027c-1.205-1.352-1.807-3.265-1.807-5.737c0-2.538,0.611-4.499,1.834-5.883
		s2.964-2.076,5.225-2.076c0.729,0,1.458,0.079,2.188,0.235c0.729,0.157,1.301,0.342,1.716,0.554l-0.706,1.952
		c-0.507-0.203-1.061-0.372-1.661-0.506c-0.6-0.133-1.13-0.201-1.591-0.201c-3.082,0-4.623,1.966-4.623,5.896
		c0,1.864,0.376,3.295,1.128,4.291s1.866,1.495,3.343,1.495c1.264,0,2.561-0.272,3.889-0.817v2.035
		C444.889,148.576,443.61,148.84,442.069,148.84z"/>
	<path d="M462.596,140.965c0,2.473-0.622,4.403-1.868,5.792s-2.967,2.083-5.163,2.083c-1.356,0-2.561-0.318-3.612-0.955
		s-1.864-1.551-2.436-2.74c-0.572-1.19-0.858-2.584-0.858-4.18c0-2.473,0.618-4.4,1.854-5.779s2.953-2.069,5.149-2.069
		c2.122,0,3.808,0.706,5.059,2.118C461.971,136.646,462.596,138.557,462.596,140.965z M451.039,140.965
		c0,1.938,0.388,3.414,1.162,4.429c0.775,1.015,1.915,1.522,3.419,1.522s2.646-0.506,3.426-1.516c0.779-1.01,1.17-2.489,1.17-4.436
		c0-1.93-0.391-3.395-1.17-4.395c-0.78-1.002-1.931-1.502-3.453-1.502c-1.505,0-2.64,0.493-3.405,1.48
		C451.422,137.537,451.039,139.008,451.039,140.965z"/>
	<path d="M477.004,148.563v-9.813c0-1.236-0.281-2.16-0.844-2.769c-0.563-0.608-1.444-0.913-2.644-0.913
		c-1.588,0-2.75,0.429-3.488,1.287c-0.738,0.857-1.107,2.274-1.107,4.249v7.958h-2.298v-15.17h1.869l0.374,2.076h0.11
		c0.471-0.746,1.13-1.326,1.979-1.736c0.849-0.41,1.794-0.616,2.837-0.616c1.827,0,3.202,0.44,4.125,1.321
		c0.923,0.882,1.384,2.291,1.384,4.229v9.896H477.004z"/>
	<path d="M503.15,143.179c0,1.781-0.646,3.17-1.938,4.167c-1.292,0.996-3.045,1.494-5.259,1.494c-2.399,0-4.245-0.309-5.537-0.928
		v-2.27c0.831,0.351,1.735,0.627,2.713,0.83c0.979,0.203,1.947,0.305,2.907,0.305c1.568,0,2.749-0.297,3.543-0.893
		s1.19-1.424,1.19-2.484c0-0.701-0.141-1.275-0.422-1.723c-0.282-0.448-0.753-0.861-1.412-1.239
		c-0.66-0.378-1.663-0.808-3.011-1.288c-1.882-0.673-3.227-1.471-4.034-2.395c-0.808-0.922-1.211-2.126-1.211-3.611
		c0-1.56,0.586-2.801,1.758-3.724s2.722-1.384,4.65-1.384c2.012,0,3.861,0.369,5.55,1.107l-0.733,2.048
		c-1.67-0.701-3.294-1.052-4.872-1.052c-1.245,0-2.219,0.268-2.92,0.803c-0.702,0.535-1.053,1.278-1.053,2.229
		c0,0.701,0.13,1.275,0.388,1.723c0.259,0.448,0.694,0.858,1.309,1.232c0.613,0.373,1.552,0.787,2.816,1.238
		c2.122,0.757,3.582,1.569,4.381,2.437C502.751,140.669,503.15,141.795,503.15,143.179z"/>
	<path d="M506.749,129.282c0-0.526,0.129-0.911,0.388-1.155c0.258-0.245,0.581-0.367,0.969-0.367c0.369,0,0.688,0.125,0.955,0.374
		c0.268,0.249,0.401,0.632,0.401,1.148s-0.134,0.902-0.401,1.155c-0.268,0.254-0.586,0.381-0.955,0.381
		c-0.388,0-0.711-0.127-0.969-0.381C506.878,130.185,506.749,129.799,506.749,129.282z M509.24,148.563h-2.298v-15.17h2.298V148.563
		z"/>
	<path d="M523.814,148.563h-11.004v-1.563l8.277-11.82h-7.765v-1.786h10.283v1.786l-8.166,11.599h8.374V148.563z"/>
	<path d="M533.78,148.84c-2.242,0-4.012-0.683-5.309-2.049c-1.296-1.365-1.944-3.262-1.944-5.688c0-2.444,0.602-4.388,1.807-5.827
		c1.204-1.439,2.82-2.159,4.851-2.159c1.901,0,3.405,0.626,4.513,1.876s1.661,2.899,1.661,4.947v1.454h-10.45
		c0.046,1.78,0.496,3.133,1.35,4.056c0.853,0.922,2.055,1.384,3.605,1.384c1.633,0,3.248-0.341,4.844-1.024v2.049
		c-0.812,0.351-1.58,0.602-2.304,0.754C535.679,148.764,534.805,148.84,533.78,148.84z M533.157,135.041
		c-1.218,0-2.189,0.396-2.914,1.189c-0.724,0.794-1.15,1.892-1.28,3.295h7.932c0-1.449-0.323-2.559-0.969-3.33
		C535.279,135.426,534.356,135.041,533.157,135.041z"/>
</g>
<line fill="none" stroke="#00007F" stroke-width="2" x1="292.5" y1="4" x2="260" y2="7.5"/>
<line fill="none" stroke="#00007F" stroke-width="2" x1="292.5" y1="70.5" x2="243" y2="111.667"/>
<line fill="none" stroke="#00007F" stroke-width="2" x1="292.5" y1="137.7" x2="216.5" y2="180"/>
<g>
	<g>
		<line fill="none" stroke="#000000" stroke-width="8" stroke-linecap="square" x1="127.5" y1="128" x2="127.5" y2="86.445"/>
		<g>
			<polygon points="127.5,69.5 137.257,93.378 127.5,87.712 117.745,93.378 			"/>
		</g>
	</g>
</g>
<g>
	<g>
		<line fill="none" stroke="#000000" stroke-width="8" stroke-linecap="square" x1="127.5" y1="128" x2="169.055" y2="128"/>
		<g>
			<polygon points="186,128 162.122,137.757 167.788,128 162.122,118.245 			"/>
		</g>
	</g>
</g>
<g>
	<rect x="100" y="93.137" fill="none" width="17.5" height="32"/>
	<path d="M100.028,99.51h2.463l3.322,8.651c0.729,1.975,1.181,3.4,1.356,4.277h0.111c0.12-0.471,0.372-1.275,0.754-2.416
		c0.383-1.139,1.635-4.644,3.758-10.512h2.464l-6.519,17.274c-0.646,1.707-1.4,2.918-2.263,3.633
		c-0.863,0.715-1.922,1.072-3.176,1.072c-0.702,0-1.394-0.078-2.076-0.235v-1.841c0.507,0.111,1.075,0.167,1.702,0.167
		c1.578,0,2.704-0.886,3.377-2.658l0.844-2.159L100.028,99.51z"/>
</g>
<g>
	<rect x="139.25" y="131.9" fill="none" width="17.5" height="32"/>
	<path d="M145.34,145.679l-5.273-7.405h2.616l4,5.813l3.986-5.813h2.589l-5.273,7.405l5.55,7.765h-2.603l-4.249-6.146l-4.29,6.146
		h-2.603L145.34,145.679z"/>
</g>
</svg>
